<?xml version="1.0" encoding="UTF-8"?>
<svg id="Layer_2" data-name="Layer 2" xmlns="http://www.w3.org/2000/svg" viewBox="0 0 600 199.36">
  <defs>
    <style>
      .cls-1 {
        fill: #252525;
      }
    </style>
  </defs>
  <g id="Layer_1-2" data-name="Layer 1">
    <g>
      <path class="cls-1" d="M372.07,0c4.09.67,7.5,1.22,11.64,1.9v60.64c-3.03-.35-6.88,1.55-10.2-1.59-9.35,6.05-23.71,2.81-26.39-12.37-.86-4.87-.72-10.25.39-15.07,2.76-12.03,12.59-17.09,24.57-13.05V0ZM372.26,41.13c0-2.27,0-4.54,0-6.82-.01-3.81-.99-5.15-4.36-6.01-3.07-.78-5.93.18-7.07,3.05-2.51,6.28-2.67,12.79-.43,19.18,1.02,2.91,4.47,4.11,7.8,3.22,2.95-.79,4.5-2.52,4.12-5.82-.25-2.24-.05-4.54-.05-6.81Z"/>
      <path class="cls-1" d="M505.6,81.17V20.68c6.64-2.69,9.05-2.55,10.49,1.02,1.29-.63,2.54-1.32,3.85-1.86,8.67-3.59,18.05.35,21.35,9.31,2.78,7.53,2.72,15.33,0,22.85-3.29,9.11-11.59,13.17-21.01,10.78-1.02-.26-2.02-.56-3.68-1.03,0,4.69-.13,9.04.05,13.38.11,2.5-.79,3.66-3.23,4.08-2.36.41-4.66,1.16-7.83,1.98ZM516.7,41.37c0,2.67-.11,5.35.05,8.02.07,1.09.4,2.49,1.15,3.15,4.05,3.63,10.9,1.81,11.69-3.55.8-5.45.56-11.14.06-16.67-.31-3.45-3.21-4.75-7-4.21-4.06.57-5.91,2.44-5.95,6.04-.02,2.41,0,4.81,0,7.22Z"/>
      <path class="cls-1" d="M481.71,35.57c.61-6.59-1.28-8.59-7.1-7.22-3.45.81-6.69,2.53-10.36,3.97-1.4-2.27-2.91-4.73-4.65-7.56,8.36-5.04,16.77-8.12,26.33-5,4.68,1.53,7.24,5,7.33,9.95.1,5.88.03,11.77-.16,17.65-.13,4.04.3,7.75,3.99,10.49-.51.66-.88,1.18-1.29,1.66q-5.16,6-11.01.69c-4.64,4.11-10.14,4.88-16.04,3.55-6-1.35-9.17-4.9-9.97-11.02-.82-6.31,1.54-11.75,6.75-14.18,2.73-1.27,5.82-1.87,8.81-2.44,2.33-.44,4.76-.36,7.38-.53ZM481.79,43.64c-2.69.33-4.95.35-7.05.92-3.05.83-4.3,3.56-3.61,7.01.57,2.85,2.57,4.38,5.41,4.14,3.37-.29,5.17-2.21,5.24-5.67.04-1.85,0-3.71,0-6.4Z"/>
      <path class="cls-1" d="M278.06,35.55c.93-6.3-.88-8.44-6.51-7.25-3.59.76-6.98,2.5-10.84,3.95-1.34-2.19-2.85-4.65-4.6-7.5,8.38-5.06,16.8-8.13,26.36-4.98,4.68,1.54,7.21,5.04,7.29,9.99.09,5.75.06,11.52-.15,17.27-.15,4.17.23,8.03,4.08,10.92-2.09,2.37-4.01,4.53-6.28,7.09-2.08-1.61-3.94-3.04-6.11-4.73-4.44,3.76-9.89,4.8-15.81,3.48-6.34-1.41-9.69-5.22-10.29-11.66-.6-6.45,2.11-11.92,7.74-14.05,3.44-1.3,7.26-1.61,10.92-2.26,1.4-.25,2.86-.2,4.21-.28ZM278.3,43.45c-2.97.5-5.37.63-7.58,1.36-2.77.91-3.84,3.74-3.07,6.94.68,2.84,2.7,4.26,5.58,3.93,3.24-.37,5-2.22,5.07-5.43.04-1.97,0-3.95,0-6.8Z"/>
      <path class="cls-1" d="M453.62,7.37c-1.77,2.64-3.4,5.07-5.17,7.71-1.28-.63-2.42-1.24-3.59-1.76-7.73-3.44-15.5.02-17.75,8.16-2.07,7.49-1.95,15.16-.19,22.67,2.16,9.21,11.08,12.97,19.45,8.52.94-.5,1.83-1.1,3.21-1.93,1.74,2.4,3.5,4.81,5.23,7.19-9.53,8.84-26.77,7.56-35.45-2.33-10.47-11.93-9.32-35.61,2.26-46.45,8.65-8.1,23.03-9.01,32-1.76Z"/>
      <path class="cls-1" d="M85.87,41.35c-.27,2.28-.35,4.58-.84,6.79-2.08,9.36-9.22,15.22-18.51,15.34-9.73.13-16.77-5.34-19.13-15-1.43-5.85-1.28-11.7.82-17.39,3.17-8.6,10.67-13.29,19.8-12.49,8.75.77,15.73,7.19,17.22,15.96.38,2.24.44,4.52.65,6.8ZM73.52,41.15c-.4-3.03-.58-5.98-1.22-8.82-.79-3.51-3.06-5.21-6.2-5.13-3.3.08-5.17,1.98-5.88,5.01-1.4,5.93-1.3,11.9-.04,17.86.68,3.19,2.82,4.76,5.94,4.99,2.82.2,5.15-1.56,5.98-4.89.74-2.95.96-6.03,1.41-9.01Z"/>
      <path class="cls-1" d="M587.75,44.47h-24.39c-1.01,3.93.03,6.99,2.83,8.86,5.85,3.89,11.21,1,16.6-2.21,1.48,2.2,2.88,4.26,4.42,6.55-7.56,6.01-15.74,7.84-24.57,4.5-8.58-3.24-11.72-10.5-12.25-19.05-.19-3.17.07-6.46.72-9.57,2.58-12.23,15.07-18.61,26.36-13.24,2.82,1.34,5.43,3.99,7.13,6.67,3.25,5.13,3.14,11.12,3.16,17.49ZM575.62,35.98c0-6.35-2.15-9.12-6.51-8.88-4.02.22-6.16,3.38-5.86,8.88h12.36Z"/>
      <path class="cls-1" d="M190.41,44.67h-24.92c-.23,3.97.57,7.24,3.78,9.04,5.71,3.2,10.82.63,16.06-2.69,1.46,2.18,2.85,4.24,4.4,6.56-7.15,5.97-15.09,7.74-23.69,4.92-8.71-2.85-12.33-9.89-13.02-18.48-.29-3.55.03-7.26.74-10.76,1.87-9.11,9.26-14.84,18.43-14.72,9.48.12,15.58,5.3,17.34,15.11.61,3.37.57,6.85.87,11.02ZM178.19,35.98c.23-3.43-.01-6.73-3.21-8.11-1.78-.77-4.62-.53-6.37.41-2.8,1.5-3.24,4.53-2.81,7.7h12.39Z"/>
      <path class="cls-1" d="M336.06,62.41h-11.03c0-1.98,0-3.8,0-5.62,0-7.49.03-14.99-.03-22.48-.04-4.71-1.04-6.13-3.96-6.02-3.94.14-7.41,3.25-7.43,6.74-.03,7.36,0,14.72,0,22.08,0,1.6,0,3.19,0,5.17h-11.2c-.22-13.53-.45-27.08-.68-41.36,2.3-.68,5.54-1.64,9-2.67.74,1.73,1.34,3.16,1.9,4.47,2.96-1.25,5.77-2.88,8.8-3.65,8.77-2.23,14.82,2.54,14.87,11.5.06,9.37.02,18.73,0,28.1,0,1.17-.15,2.34-.24,3.74Z"/>
      <path class="cls-1" d="M32.96,62.48h-12.08V13.97H6.61V4.2h41.95c-.6,3.17-1.16,6.13-1.79,9.47h-13.81v48.81Z"/>
      <path class="cls-1" d="M229.3,22.47c-1.3,2.65-2.46,5-3.66,7.46-2.05-.76-3.74-1.66-5.54-2-2.33-.44-4.81-.87-7.08-.46-1.31.24-2.95,2.01-3.24,3.35-.21.99,1.35,2.57,2.43,3.56.72.66,1.97.76,2.99,1.04,1.93.54,3.88,1.02,5.82,1.54,5.17,1.39,9.03,4.23,9.83,9.85.88,6.16-1.25,11.33-6.81,14.2-3.22,1.66-7.05,2.61-10.68,2.88-6.4.47-12.35-1.64-18.31-4.95,1.34-2.75,2.6-5.34,3.86-7.94,3.45,1.32,6.63,2.67,9.9,3.72,1.62.52,3.43.76,5.13.67,2.62-.13,4.66-1.37,5.01-4.26.34-2.8-1.47-4.23-3.82-4.88-2.96-.81-6.05-1.15-8.99-2.02-9.15-2.7-12.21-13.32-5.98-20.56,2.87-3.33,6.68-4.81,10.95-5.22,6.3-.6,12.22.69,18.2,4.02Z"/>
      <path class="cls-1" d="M83.08,186.81c-5.88.11-11.06-1.65-15.31-5.82-4.21-4.14-5-7.97-2.76-13.43,3.18-7.78,11.03-11.81,20.84-10.71,7.76.88,14.41,7.34,15.6,15.06.63,4.08-.54,7.38-3.87,9.87-4.3,3.22-9.05,5.11-14.49,5.03Z"/>
      <path class="cls-1" d="M194.71,199.36c-9.75-.67-17.11-7.33-17.08-15.92.02-6.4,3.61-11.24,9.79-13.09,4.87-1.45,9.72-3.03,14.95-1.58,6.01,1.67,10.06,6.31,10.77,12.6.68,6.08-2,11.54-7.58,14.2-3.43,1.64-7.22,2.55-10.84,3.78Z"/>
      <path class="cls-1" d="M550.33,146.98c11.03-.06,17.18,7.95,14.18,17.56-2.18,6.99-5.62,13.01-13.46,15.18-7.89,2.18-13.7-.53-16.76-8.11-3.51-8.69-2.33-15.15,3.87-20.39,3.77-3.18,8.39-3.92,12.18-4.24Z"/>
      <path class="cls-1" d="M451.85,169.22c-2.93-.48-5.36-.64-7.66-1.28-9.78-2.75-13.86-14.77-7.97-23,2.86-4,7.16-4.9,11.55-5.58,7.51-1.17,16.18,2.67,19.43,8.49,4.35,7.79,1.44,16.22-6.89,19.32-2.84,1.06-5.92,1.46-8.45,2.06Z"/>
      <path class="cls-1" d="M104.08,18.22c.73,2.03,1.28,3.59,1.95,5.45,3.84-3.92,7.87-6.8,14-4.39-.97,3.23-1.9,6.35-2.88,9.63-1.37-.14-2.53-.37-3.69-.35-4.14.1-6.59,2.62-6.6,6.75-.02,7.63,0,15.27-.01,22.9,0,1.3-.12,2.61-.2,4.17h-11c-.27-13.6-.54-27.29-.82-41.62,2.42-.67,5.58-1.54,9.26-2.56Z"/>
      <path class="cls-1" d="M124.84,20.73c2.55-.68,5.73-1.54,9.11-2.44.78,1.82,1.45,3.36,2.2,5.11,3.96-3.7,7.97-6.68,13.93-3.99-.99,3.2-1.93,6.22-2.94,9.51-1.02-.12-1.89-.28-2.77-.33-4.71-.29-7.56,2.34-7.56,6.99-.01,8.82,0,17.63,0,26.76h-11.15c-.26-13.7-.52-27.28-.8-41.62Z"/>
      <path class="cls-1" d="M225.21,182.97c-5.98-.37-10.92-3.17-12.21-7.27-1.49-4.72,1.13-11.34,6.12-14.05,3.13-1.7,6.61-2.98,10.09-3.75,4.87-1.08,8.99,1.49,10.96,6.11,3.36,7.88,1.06,13.71-6.88,16.82-2.58,1.01-5.39,1.45-8.09,2.15Z"/>
      <path class="cls-1" d="M166.75,180.12c.62,8.17-7.88,13.28-13.66,13.59-6.9.37-13.01-4.79-13.82-11.91-.42-3.65,1.22-6.83,4.07-8.68,3.06-1.98,6.61-3.65,10.16-4.32,8.79-1.66,13.3,2.45,13.25,11.32Z"/>
      <path class="cls-1" d="M45.37,167.88c-2.88-.46-5.86-.59-8.61-1.46-4.44-1.4-6.55-5.62-5.57-10.17,2.31-10.72,17.26-15.67,25.58-8.44,3.33,2.89,4.44,6.6,3.26,10.85-1.28,4.62-4.16,7.72-9.02,8.56-1.83.32-3.72.26-5.58.38-.02.09-.04.18-.06.27Z"/>
      <path class="cls-1" d="M265.83,176.91c-8.57-.07-14.2-4.69-14.78-11.32-.42-4.83,2.07-8.94,6.59-10.75,1.49-.59,3.01-1.12,4.57-1.49,5.36-1.27,10.23-.38,13.8,4.08,2.92,3.65,4.25,7.98,1.91,12.36-2.72,5.08-7.54,6.93-12.08,7.12Z"/>
      <path class="cls-1" d="M411.62,160.88c-7.86-.07-13.05-4.96-12.93-12.18.12-6.99,6.2-12.51,13.65-12.39,7.9.13,13.6,5.35,13.54,12.42-.06,6.96-6.24,12.23-14.26,12.15Z"/>
      <path class="cls-1" d="M517.29,152.11c6.45.43,11.36,4.26,12.6,10.21,1.25,6-1.42,10.95-7.82,13-3.6,1.16-7.56,1.57-11.37,1.59-3.7.03-5.73-2.15-6.71-5.77-1.84-6.78.35-13.04,6.29-16.69,2.04-1.26,4.66-1.59,7.01-2.34Z"/>
      <path class="cls-1" d="M586.31,165.77c-9.6.11-16.1-8.18-12.86-16,.89-2.16,2.82-4.54,4.87-5.42,3.2-1.36,6.93-2.14,10.41-2.06,6.85.16,11.2,4.98,11.27,11.56.07,6.52-3.86,10.83-10.7,11.7-1.19.15-2.4.18-2.99.22Z"/>
      <path class="cls-1" d="M486.56,150.94c8.16,0,13.25,4.06,14.11,10.65.61,4.7-1.45,8.98-5.69,11-4.21,2-8.73,2.63-13.32,1.55-5.39-1.27-8.32-5.29-8.17-10.87.17-6.08,4.03-10.84,9.83-12,1.3-.26,2.66-.27,3.24-.32Z"/>
      <path class="cls-1" d="M127.13,183.28c-.16,7.04-4.42,11.16-11.54,10.93-9.12-.3-13.4-4.7-13.75-11.06-.33-5.98,7.13-12.06,13.88-11.86,6.58.2,11.56,5.43,11.41,12Z"/>
      <path class="cls-1" d="M355.35,163.24c-5.28-.27-8.69-2.04-10.84-5.86-2.65-4.7-1.6-8.77,2.98-11.66,3.33-2.11,6.86-3.59,10.94-2.96,4.41.68,7.6,3.79,8.27,8.05.71,4.48-1.36,8.8-5.4,10.6-2.16.96-4.54,1.41-5.95,1.83Z"/>
      <path class="cls-1" d="M326.92,169.69c-7.07-.03-11.58-4.24-10.98-10.33.46-4.7,3.56-7.5,7.6-8.99,4.42-1.63,9.03-1.86,12.7,1.95,2.89,3,3.98,6.6,2.48,10.7-1.5,4.08-6.15,6.7-11.79,6.67Z"/>
      <path class="cls-1" d="M383.61,159.53c-5.96.15-11.41-4.55-11.52-9.94-.12-5.8,4.83-10.47,11.25-10.63,6.26-.15,12.03,4.76,12.19,10.38.18,5.99-4.52,10-11.93,10.18Z"/>
      <path class="cls-1" d="M298.04,167.97c-5.38-.06-9.22-3.18-10.23-8.31-.99-5.05,1.25-8.76,6.58-10.85,5.41-2.13,10.68-1.3,13.28,2.07,2.75,3.57,2.81,8.93.18,12.76-2.39,3.47-5.92,4.31-9.81,4.33Z"/>
      <path class="cls-1" d="M0,150.26c.03-6.3,3.85-9.72,10.71-9.59,5.79.11,10.84,4.39,10.87,9.2.03,5.16-4.67,9.27-10.61,9.26-6.91,0-11.01-3.31-10.98-8.88Z"/>
      <path class="cls-1" d="M299.09,103.49h15.68c0-4.23.02-8.21,0-12.19-.01-1.72.3-3,2.76-2.29v34.31c-2.08.85-2.74-.09-2.74-1.94,0-3.35,0-6.69-.01-10.04,0-1.46,0-2.91,0-4.73h-15.66c0,4.22.11,8.57-.06,12.9-.06,1.43,1.28,3.89-1.63,3.94-.42,0-1.26-2.52-1.28-3.88-.12-8.97-.06-17.93-.06-26.9,0-.67-.18-1.42.06-1.99.3-.72.95-1.29,1.45-1.92.51.63,1.44,1.24,1.46,1.89.13,4.13.07,8.27.07,12.84Z"/>
      <path class="cls-1" d="M271.84,99.88v-13.08c3.08-.72,2.85,1.24,2.85,2.93.01,7.75,0,15.51,0,23.26,0,3.46,0,6.91,0,10.97-1.15-.58-2.17-1.11-3.38-1.72-8.76,4.72-15.94.72-16.35-9.59-.1-2.49.1-5.13.84-7.5,2.08-6.72,7.96-9.07,14.28-6.02.46.22.93.4,1.76.75ZM271.85,110.78c0-1.6.02-3.21,0-4.81-.05-3.72-1.15-5.02-4.77-5.65-3.73-.65-7.06.74-7.8,4.51-.8,4.05-.79,8.45-.16,12.55.53,3.46,3.84,4.82,7.54,4.19,3.55-.61,5.14-2.55,5.18-6.38.02-1.47,0-2.94,0-4.41Z"/>
      <path class="cls-1" d="M38.71,106.47h-15.32c-.38,5.78-.75,11.42-1.19,17.05,0,.09-.97.1-1.81.19v-34.71c2.5-.79,2.58.71,2.58,2.32,0,3.99,0,7.97,0,12.19h15.75c0-4.04-.09-7.99.06-11.94.04-.95.87-1.87,1.34-2.81.56.98,1.6,1.95,1.61,2.93.12,9.77.11,19.54,0,29.3,0,.89-.96,1.77-1.48,2.66-.51-.89-1.44-1.76-1.46-2.67-.15-4.77-.07-9.54-.07-14.52Z"/>
      <path class="cls-1" d="M461.86,91.31c-.28,2.13-1.36,1.52-2.84,1.11-2.64-.74-5.42-1.46-8.12-1.42-2.87.04-4.99,1.8-5.5,4.91-.53,3.21.55,5.29,3.8,6.68,2.45,1.05,5.07,1.71,7.56,2.69,4.34,1.72,6.59,4.99,6.46,9.17-.13,4.2-2.95,7.98-7.18,9.17-4.4,1.23-8.75.84-12.92-1.1-1.53-.71-2.61-1.5-1.39-2.75,3.88.66,7.34,1.64,10.83,1.75,3.97.12,6.57-2.3,7.2-5.69.64-3.41-1.05-6.24-4.85-7.78-2.35-.95-4.84-1.57-7.2-2.51-4.1-1.63-5.74-4.15-5.65-8.28.09-4.03,2.36-7.1,6.23-8.45,4.3-1.5,9.67-.51,13.58,2.5Z"/>
      <path class="cls-1" d="M100.37,133.25v-35.54c1.22.7,2.27,1.31,3.84,2.21.22-.13,1.21-.79,2.27-1.29,4.92-2.3,10.36-.34,12.3,4.72,1.88,4.9,1.93,10.02-.03,14.9-2.46,6.15-7.94,7.48-15.23,3.89-1.68,3.58,1.28,8.17-1.72,11.41-.48-.1-.96-.19-1.44-.29ZM103.09,111.09c0,1.87-.13,3.76.05,5.61.09.97.5,2.11,1.16,2.8,3.85,4.04,10.57,2.7,11.75-2.72.82-3.77.59-7.96-.05-11.82-.6-3.61-3.75-5.08-7.36-4.43-3.66.66-5.52,2.85-5.55,6.55-.01,1.34,0,2.67,0,4.01Z"/>
      <path class="cls-1" d="M407.34,86.65v14.13c2.6-1.13,4.45-2.27,6.46-2.75,5.11-1.23,8.51,1.35,8.65,6.53.14,5.48.11,10.97-.03,16.46-.02.88-.99,1.74-1.52,2.61-.39-.86-1.1-1.72-1.12-2.59-.11-4.82-.02-9.63-.07-14.45-.05-4.46-1.3-6.09-4.54-6.16-3.9-.08-7.48,3.01-7.53,6.62-.06,4.68.06,9.37-.1,14.05-.03.87-1.03,1.71-1.58,2.56-.44-.83-1.24-1.65-1.26-2.49-.17-10.97-.25-21.94-.25-32.91,0-.71.91-1.42,1.39-2.13.5.18,1.01.35,1.51.53Z"/>
      <path class="cls-1" d="M167.71,108.19c1.27-6.9-1.57-9.48-7.82-7.37-1.13.38-2.13,1.18-3.27,1.48-.68.18-1.52-.22-2.29-.37-.02-.39-.05-.78-.07-1.18,1.9-.84,3.73-1.93,5.71-2.48,7.57-2.11,11.33.83,11.26,8.64-.03,2.94-.33,5.9-.16,8.83.12,2.05.89,4.05,1.22,6.1.13.8-.16,1.66-.26,2.5l-1.3.57c-.76-1.06-1.52-2.11-1.97-2.74-3.04.71-5.9,1.87-8.79,1.94-3.76.09-5.9-1.99-6.66-5.22-.81-3.42.51-6.97,3.7-8.53,2.11-1.03,4.55-1.41,6.88-1.91,1.26-.27,2.61-.19,3.84-.26ZM168.08,110.11c-2.9.38-5.16.44-7.3,1-3.38.89-5.06,3.83-4.35,6.99.59,2.63,2.75,4.13,5.64,3.93,3.36-.24,5.85-2.54,5.99-5.66.08-1.82.02-3.65.02-6.26Z"/>
      <path class="cls-1" d="M366.12,122.28c-3.5.78-6.14,1.82-8.8,1.86-3.8.05-6.08-2.01-6.75-5.09-.82-3.79.52-7.11,3.89-8.82,1.63-.83,3.5-1.3,5.31-1.65,1.68-.32,3.43-.24,5.34-.35.63-2.48,1.05-5.32-1.02-6.65-1.72-1.1-4.46-.86-6.73-.76-1.23.05-2.37,1.2-3.63,1.58-.64.2-1.46-.2-2.21-.76,3.63-3.41,7.81-4.61,12.46-3.51,3.22.76,4.31,3.41,4.37,6.44.07,3.88-.13,7.76-.04,11.63.04,1.69.54,3.36.76,5.05.12.9.08,1.81.11,2.72-.86-.38-1.76-.7-2.57-1.17-.43-.25-.7-.78-.48-.52ZM365.25,110.16c-2.79.33-4.93.37-6.96.88-3.6.89-5.12,3.36-4.58,6.86.43,2.75,2.47,4.3,5.43,4.15,3.6-.19,5.96-2.49,6.09-6.02.06-1.7.01-3.41.01-5.86Z"/>
      <path class="cls-1" d="M70.88,111.19c-.19,7.77-3.69,12.5-9.78,13.02-4.86.41-9.13-1.73-10.26-6.43-.96-4-1.1-8.46-.41-12.52.86-5.1,4.9-7.64,9.88-7.53,4.9.1,8.45,2.96,9.7,7.95.45,1.8.59,3.67.87,5.51ZM67.77,111.31c-.53-2.41-.84-4.8-1.59-7.05-.97-2.87-3.35-4.12-6.25-4.08-2.88.04-5.17,1.28-6.19,4.19-1.57,4.45-1.44,8.92.18,13.31,1.05,2.85,3.42,4.06,6.29,4.11,2.96.05,5.17-1.44,6.14-4.25.68-1.99.97-4.11,1.44-6.23Z"/>
      <path class="cls-1" d="M220.32,124.78c-.79-1.04-1.59-2.07-2.16-2.82-2.46.82-4.75,2.01-7.15,2.28-4.13.47-7.16-1.71-8.06-5.12-.99-3.77.76-7.61,4.57-9.22,1.93-.82,4.11-1.08,6.2-1.45,1.28-.22,2.6-.18,3.85-.25.89-7.21-2.11-9.64-8.49-7.22-.62.24-1.19.7-1.83.8-.98.16-1.99.09-2.98.12.7-.81,1.26-1.83,2.13-2.36,1.12-.68,2.44-1.11,3.73-1.41,7.3-1.67,10.77,1.12,10.68,8.57-.03,2.81-.37,5.64-.17,8.43.17,2.3,1,4.56,1.39,6.85.13.74-.2,1.55-.32,2.33-.46.15-.92.31-1.39.46ZM217.79,110.23c-2.58.26-4.69.28-6.71.72-3.75.82-5.6,3.52-5.04,6.9.45,2.7,2.52,4.29,5.44,4.18,3.68-.14,6.18-2.59,6.3-6.26.05-1.58,0-3.16,0-5.55Z"/>
      <path class="cls-1" d="M344.95,111.19h-15.59c-.79,4.94.52,8.94,3.96,9.67,3.38.71,7.05.02,10.86-.06-.35.5-.61,1.26-1.14,1.61-7.02,4.55-15.6,1.12-17.08-7.07-.56-3.08-.49-6.47.14-9.54,1.09-5.35,5.53-8.45,10.46-8.03,4.84.41,7.92,3.94,8.39,9.64.09,1.04.01,2.1.01,3.79ZM341.77,108.77c.09-3.61-.45-6.41-3.45-8.02-2.19-1.17-4.49-1.04-6.39.56-2.23,1.88-3.4,4.29-2.64,7.46h12.47Z"/>
      <path class="cls-1" d="M488.16,111.1h-15.66c-1.21,8.99,2.72,11.35,15.46,8.99-1.03,1.3-1.43,2.15-2.1,2.58-6.18,3.91-14.34,1.15-16.21-5.89-.9-3.37-.96-7.21-.4-10.67.91-5.56,5.52-8.8,10.6-8.33,4.96.46,8.02,4.17,8.31,10.12.04.9,0,1.81,0,3.21ZM472.22,108.69h12.41c.5-5.26-1.61-8.43-5.57-8.67-3.87-.23-6.42,2.83-6.84,8.67Z"/>
      <path class="cls-1" d="M585.89,111.12h-15.31c-.95,9.29,4.48,12.51,14.93,8.67-.37,1.14-.38,2.08-.85,2.46-5.2,4.22-14.19,1.99-16.47-4.39-1.05-2.92-1.3-6.31-1.15-9.44.34-6.98,5.4-11.42,11.45-10.59,5.63.77,8.55,5.79,7.4,13.3ZM570.47,108.63h12.39c.32-5.44-1.81-8.5-5.75-8.61-3.86-.11-6.35,3.01-6.64,8.61Z"/>
      <path class="cls-1" d="M229.92,98.35c2.2-1.34,2.34.88,2.84,2.31,2.2-.95,4.29-2.27,6.56-2.74,4.67-.96,7.94,1.68,8.09,6.44.18,5.61.11,11.24,0,16.86-.02.82-.88,1.62-1.35,2.42-.5-.88-1.41-1.75-1.44-2.65-.14-4.95-.03-9.9-.09-14.85-.05-4.16-1.32-5.76-4.42-5.81-3.78-.05-7.41,2.9-7.45,6.19-.06,4.82.06,9.64-.09,14.45-.03.9-.95,1.76-1.47,2.64-.39-.87-1.05-1.71-1.11-2.6-.16-2.26-.06-4.55-.06-6.82,0-5.18,0-10.36,0-15.85Z"/>
      <path class="cls-1" d="M75.94,120.62c.91,0,1.84-.13,2.73.03,2.09.36,4.15,1.18,6.24,1.23,3.08.07,5.06-1.78,5.37-4.36.33-2.8-.91-4.36-4.28-5.29-1.67-.46-3.43-.68-5.05-1.27-2.77-1-4.39-3.03-4.43-6.06-.05-2.95,1.3-5.2,3.92-6.5,3.35-1.65,6.78-1.31,10.09.15.55.24.83,1.12,1.23,1.7-.75.17-1.53.55-2.26.48-1.97-.19-3.94-.93-5.86-.78-2.32.18-3.89,1.7-4.01,4.25-.12,2.42,1.25,3.71,3.41,4.3,1.55.42,3.15.66,4.69,1.09,4.05,1.14,5.84,3.44,5.69,7.15-.15,3.68-2.52,6.47-6.36,7.2-3.95.75-7.7.17-11.1-2.05,0-.43,0-.86,0-1.29Z"/>
      <path class="cls-1" d="M517.91,119.93c2.4-6.92,4.51-13.03,6.65-19.14.59-1.69,1.21-3.43,3.85-1.98-2.84,7.78-5.64,15.56-8.57,23.28-.29.77-1.48,1.74-2.17,1.68-.75-.06-1.76-1.1-2.06-1.92-2.79-7.64-5.46-15.33-8.18-23.07,2.3-1.66,3.14-.44,3.77,1.46,1.94,5.83,3.92,11.66,5.89,17.48.15.45.33.9.82,2.2Z"/>
      <path class="cls-1" d="M561.78,101.11c-1.48.19-2.49.64-3.22.37-5.95-2.22-9.68-.33-10.62,5.94-.42,2.86-.44,5.94.17,8.74,1.15,5.31,5.72,7.06,10.51,4.52.86-.46,1.91-.57,2.97-.47-3.75,5.58-11.45,5.3-15.02-.08-3.07-4.63-3.02-13.42.12-17.98,3.58-5.21,9.69-5.93,15.09-1.05Z"/>
      <path class="cls-1" d="M183.16,86.91v8.35c0,7.23-.12,14.47.08,21.7.06,2.1,1.03,4.18,1.67,6.61-2.41,1.51-4.6.39-4.68-3.55-.13-6.03-.01-12.05-.05-18.08-.03-4.42-.21-8.84-.13-13.25.02-.87.92-1.73,1.41-2.59.57.27,1.13.54,1.7.81Z"/>
      <path class="cls-1" d="M382.19,123.59c-3.09,1.11-4.67.22-4.8-3.58-.16-4.54-.03-9.08-.05-13.62-.03-5.74-.13-11.48-.08-17.22,0-.87.65-1.73.99-2.59.67.77,1.88,1.52,1.91,2.32.21,5.33.18,10.68.21,16.02.02,4.14-.17,8.29.08,12.41.12,1.97,1.05,3.89,1.74,6.27Z"/>
      <path class="cls-1" d="M148.66,121.98c-1.59,2.86-4.06,2.78-5.85,1.69-1.41-.86-2.73-3.03-2.82-4.68-.34-5.87-.13-11.76-.13-17.78-1.15-.55-2.23-1.07-3.98-1.92,1.66-.75,2.65-1.2,3.56-1.62,1.44-1.86-1.19-5.96,3.64-6.31-.11,2.34-.2,4.28-.3,6.47,2.04.2,3.86.37,5.88.56-.91,3.49-4,1.24-6.03,2.85,0,5.56-.09,11.55.05,17.53.05,2.21,1.52,3.31,3.78,3.21.73-.03,1.46,0,2.19,0Z"/>
      <path class="cls-1" d="M398.71,121.99c-4.79,3.87-8.85,1.98-8.97-3.47-.12-5.75-.03-11.5-.03-17.33-1.24-.56-2.34-1.06-4.32-1.94,3.79-.92,4.77-2.92,4.66-5.84-.03-.69,1.34-1.42,2.07-2.14l.65.63v5.84c1.79.24,3.67.49,5.81.78-1.17,3.23-3.93,1.23-6,2.6,0,5.72-.15,11.84.14,17.94.05,1.02,1.89,2.15,3.13,2.85.73.41,1.89.08,2.86.08Z"/>
      <path class="cls-1" d="M506.34,98.82c-.82.67-1.53,1.65-2.47,1.96-4.69,1.58-5.77,2.88-5.82,7.75-.04,3.6.13,7.21-.07,10.8-.08,1.46,1.25,3.72-1.46,4.12-.21.03-1.12-2.55-1.18-3.93-.16-4.13-.01-8.27-.07-12.4-.04-2.77-.23-5.54-.36-8.37,2.65-1.93,2.81.57,3.24,1.87,2.48-1.17,4.78-2.25,7.08-3.34.37.51.74,1.03,1.11,1.54Z"/>
      <path class="cls-1" d="M533.89,123.39c0-7.84-.05-15.69.08-23.53.01-.76,1.19-1.49,1.82-2.24.34.2.68.39,1.02.59,0,7.83.05,15.66-.08,23.49-.01.76-1.15,1.51-1.77,2.26-.36-.19-.72-.38-1.07-.57Z"/>
      <path class="cls-1" d="M130.62,98.23c0,3.57,0,7.14,0,10.7,0,4.15.07,8.3-.08,12.44-.03.77-.97,1.51-1.49,2.26-.44-.7-1.24-1.39-1.25-2.09-.09-7.09-.11-14.19.01-21.28.01-.85,1-1.67,1.54-2.51l1.29.47Z"/>
      <path class="cls-1" d="M129.18,93.65c-1.04-1.57-2.16-2.54-2.02-3.27.15-.8,1.39-1.77,2.29-1.92.55-.09,1.89,1.24,1.86,1.9-.03.88-1.05,1.72-2.13,3.29Z"/>
      <path class="cls-1" d="M538.63,90.32c-1.53,1.08-2.43,2.22-3.23,2.14-.8-.08-1.82-1.26-2.09-2.15-.13-.45,1.2-1.87,1.89-1.88.9-.01,1.81.93,3.43,1.88Z"/>
    </g>
  </g>
</svg>