<?xml version="1.0" encoding="UTF-8"?>
<svg id="Layer_2" data-name="Layer 2" xmlns="http://www.w3.org/2000/svg" viewBox="0 0 936.23 92.76">
  <defs>
    <style>
      .cls-1 {
        fill: #1a1446;
      }
    </style>
  </defs>
  <g id="Layer_1-2" data-name="Layer 1">
    <g>
      <g>
        <path class="cls-1" d="M94.56,45c0,23.88-17.52,47.28-47.4,47.28C20.88,92.28,0,71.76,0,45.72S21.72,0,47.52,0c20.04,0,39.36,13.56,44.4,31.44h-25.44c-4.2-7.32-11.04-11.52-19.56-11.52-14.28,0-24.24,11.52-24.24,25.8s9.36,26.64,24.36,26.64c10.56,0,18.48-5.16,21.24-14.28h-26.52v-18.12h52.8v5.04Z"/>
        <path class="cls-1" d="M97.08,90.48V1.68h19.92v88.8h-19.92Z"/>
        <path class="cls-1" d="M139.08,63.24c1.08,7.56,7.44,12.6,15.6,12.6,5.4,0,8.88-2.04,12.12-6.24h20.4c-6.36,14.52-18.48,23.04-32.52,23.04-19.2,0-35.28-15.48-35.28-35.28s15.36-35.76,34.92-35.76,35.16,15.72,35.16,36.36c0,1.92-.12,3.48-.48,5.28h-49.92ZM169.56,49.8c-1.56-6.84-7.56-11.4-15.24-11.4-7.2,0-13.44,4.32-15,11.4h30.24Z"/>
        <path class="cls-1" d="M233.88,90.48v-36.96c0-9-3.12-13.2-10.44-13.2-8.04,0-11.4,4.44-11.4,13.44v36.72h-19.92V23.88h18.6v7.08h.24c4.2-6.84,10.08-9.36,18.12-9.36,12,0,24.72,6.72,24.72,26.4v42.48h-19.92Z"/>
        <path class="cls-1" d="M301.31,90.48v-36.96c0-9-3.12-13.2-10.44-13.2-8.04,0-11.4,4.44-11.4,13.44v36.72h-19.92V23.88h18.6v7.08h.24c4.2-6.84,10.08-9.36,18.12-9.36,12,0,24.72,6.72,24.72,26.4v42.48h-19.92Z"/>
      </g>
      <g>
        <path class="cls-1" d="M406.56,90.48v-35.52h-29.04v35.52h-22.68V1.68h22.68v33.36h29.04V1.68h22.68v88.8h-22.68Z"/>
        <path class="cls-1" d="M486.12,90.48v-7.2h-.24c-2.88,5.88-10.8,9.48-19.56,9.48-19.68,0-33.36-15.48-33.36-35.64s14.28-35.52,33.36-35.52c8.16,0,15.72,3.24,19.56,9.36h.24v-7.08h19.92v66.6h-19.92ZM486.12,57.12c0-9.36-7.56-16.92-16.92-16.92s-16.32,7.56-16.32,17.16,7.32,16.8,16.56,16.8,16.68-7.44,16.68-17.04Z"/>
        <path class="cls-1" d="M594.48,90.48v-35.88c0-10.44-3.36-14.28-10.2-14.28-7.56,0-11.04,4.56-11.04,13.32v36.84h-19.92v-36.72c0-8.64-3.12-13.44-9.96-13.44-7.8,0-11.28,5.04-11.28,14.28v35.88h-19.92V23.88h18.6v7.08h.24c3.48-6.24,9.84-9.36,18.36-9.36s15,4.32,19.2,11.88c4.8-7.56,12-11.88,21.12-11.88,14.88,0,24.72,9.12,24.72,27.72v41.16h-19.92Z"/>
        <path class="cls-1" d="M702.35,90.48v-35.88c0-10.44-3.36-14.28-10.2-14.28-7.56,0-11.04,4.56-11.04,13.32v36.84h-19.92v-36.72c0-8.64-3.12-13.44-9.96-13.44-7.8,0-11.28,5.04-11.28,14.28v35.88h-19.92V23.88h18.6v7.08h.24c3.48-6.24,9.84-9.36,18.36-9.36s15,4.32,19.2,11.88c4.8-7.56,12-11.88,21.12-11.88,14.88,0,24.72,9.12,24.72,27.72v41.16h-19.92Z"/>
        <path class="cls-1" d="M760.68,92.52c-20.28,0-35.88-15-35.88-35.4s15.96-35.4,35.88-35.4,35.88,15,35.88,35.16-15.84,35.64-35.88,35.64ZM776.64,57.12c0-8.88-6.72-16.8-16.08-16.8-8.76,0-15.84,7.68-15.84,16.8s6.96,16.8,15.96,16.8,15.96-7.92,15.96-16.8Z"/>
        <path class="cls-1" d="M841.19,90.48v-36.96c0-9-3.12-13.2-10.44-13.2-8.04,0-11.4,4.44-11.4,13.44v36.72h-19.92V23.88h18.6v7.08h.24c4.2-6.84,10.08-9.36,18.12-9.36,12,0,24.72,6.72,24.72,26.4v42.48h-19.92Z"/>
        <path class="cls-1" d="M917.27,90.48v-7.2h-.24c-3.72,6.12-10.44,9.36-19.92,9.36-20.16,0-33.36-15.48-33.36-35.64s13.56-35.4,33-35.4c7.68,0,13.92,2.28,19.56,7.92V1.68h19.92v88.8h-18.96ZM917.39,56.88c0-9.24-7.08-16.68-16.92-16.68s-16.8,6.96-16.8,16.68,7.08,17.16,16.68,17.16,17.04-7.32,17.04-17.16Z"/>
      </g>
    </g>
  </g>
</svg>