<?xml version="1.0" encoding="UTF-8"?>
<svg id="Layer_2" data-name="Layer 2" xmlns="http://www.w3.org/2000/svg" viewBox="0 0 1079.36 200">
  <g id="Layer_1-2" data-name="Layer 1">
    <g>
      <path d="M64.14,200H0V0h64.14v19.71H29.28v160.47h34.86v19.82Z"/>
      <path d="M1015.49,180.18h34.86V19.71h-34.86V0h63.87v200h-63.87v-19.82Z"/>
      <g>
        <g>
          <path d="M167.19,98.62c0,23.88-17.52,47.28-47.4,47.28-26.28,0-47.16-20.52-47.16-46.56s21.72-45.72,47.52-45.72c20.04,0,39.36,13.56,44.4,31.44h-25.44c-4.2-7.32-11.04-11.52-19.56-11.52-14.28,0-24.24,11.52-24.24,25.8s9.36,26.64,24.36,26.64c10.56,0,18.48-5.16,21.24-14.28h-26.52v-18.12h52.8v5.04Z"/>
          <path d="M169.71,144.1V55.3h19.92v88.8h-19.92Z"/>
          <path d="M211.71,116.86c1.08,7.56,7.44,12.6,15.6,12.6,5.4,0,8.88-2.04,12.12-6.24h20.4c-6.36,14.52-18.48,23.04-32.52,23.04-19.2,0-35.28-15.48-35.28-35.28s15.36-35.76,34.92-35.76,35.16,15.72,35.16,36.36c0,1.92-.12,3.48-.48,5.28h-49.92ZM242.19,103.42c-1.56-6.84-7.56-11.4-15.24-11.4-7.2,0-13.44,4.32-15,11.4h30.24Z"/>
          <path d="M306.51,144.1v-36.96c0-9-3.12-13.2-10.44-13.2-8.04,0-11.4,4.44-11.4,13.44v36.72h-19.92v-66.6h18.6v7.08h.24c4.2-6.84,10.08-9.36,18.12-9.36,12,0,24.72,6.72,24.72,26.4v42.48h-19.92Z"/>
          <path d="M373.95,144.1v-36.96c0-9-3.12-13.2-10.44-13.2-8.04,0-11.4,4.44-11.4,13.44v36.72h-19.92v-66.6h18.6v7.08h.24c4.2-6.84,10.08-9.36,18.12-9.36,12,0,24.72,6.72,24.72,26.4v42.48h-19.92Z"/>
        </g>
        <g>
          <path d="M477.19,144.1v-35.52h-29.04v35.52h-22.68V55.3h22.68v33.36h29.04v-33.36h22.68v88.8h-22.68Z"/>
          <path d="M556.75,144.1v-7.2h-.24c-2.88,5.88-10.8,9.48-19.56,9.48-19.68,0-33.36-15.48-33.36-35.64s14.28-35.52,33.36-35.52c8.16,0,15.72,3.24,19.56,9.36h.24v-7.08h19.92v66.6h-19.92ZM556.75,110.74c0-9.36-7.56-16.92-16.92-16.92s-16.32,7.56-16.32,17.16,7.32,16.8,16.56,16.8,16.68-7.44,16.68-17.04Z"/>
          <path d="M665.11,144.1v-35.88c0-10.44-3.36-14.28-10.2-14.28-7.56,0-11.04,4.56-11.04,13.32v36.84h-19.92v-36.72c0-8.64-3.12-13.44-9.96-13.44-7.8,0-11.28,5.04-11.28,14.28v35.88h-19.92v-66.6h18.6v7.08h.24c3.48-6.24,9.84-9.36,18.36-9.36s15,4.32,19.2,11.88c4.8-7.56,12-11.88,21.12-11.88,14.88,0,24.72,9.12,24.72,27.72v41.16h-19.92Z"/>
          <path d="M772.99,144.1v-35.88c0-10.44-3.36-14.28-10.2-14.28-7.56,0-11.04,4.56-11.04,13.32v36.84h-19.92v-36.72c0-8.64-3.12-13.44-9.96-13.44-7.8,0-11.28,5.04-11.28,14.28v35.88h-19.92v-66.6h18.6v7.08h.24c3.48-6.24,9.84-9.36,18.36-9.36s15,4.32,19.2,11.88c4.8-7.56,12-11.88,21.12-11.88,14.88,0,24.72,9.12,24.72,27.72v41.16h-19.92Z"/>
          <path d="M831.31,146.14c-20.28,0-35.88-15-35.88-35.4s15.96-35.4,35.88-35.4,35.88,15,35.88,35.16-15.84,35.64-35.88,35.64ZM847.27,110.74c0-8.88-6.72-16.8-16.08-16.8-8.76,0-15.84,7.68-15.84,16.8s6.96,16.8,15.96,16.8,15.96-7.92,15.96-16.8Z"/>
          <path d="M911.83,144.1v-36.96c0-9-3.12-13.2-10.44-13.2-8.04,0-11.4,4.44-11.4,13.44v36.72h-19.92v-66.6h18.6v7.08h.24c4.2-6.84,10.08-9.36,18.12-9.36,12,0,24.72,6.72,24.72,26.4v42.48h-19.92Z"/>
          <path d="M987.9,144.1v-7.2h-.24c-3.72,6.12-10.44,9.36-19.92,9.36-20.16,0-33.36-15.48-33.36-35.64s13.56-35.4,33-35.4c7.68,0,13.92,2.28,19.56,7.92v-27.84h19.92v88.8h-18.96ZM988.02,110.5c0-9.24-7.08-16.68-16.92-16.68s-16.8,6.96-16.8,16.68,7.08,17.16,16.68,17.16,17.04-7.32,17.04-17.16Z"/>
        </g>
      </g>
    </g>
  </g>
</svg>