<?xml version="1.0" encoding="UTF-8"?>
<svg id="Layer_2" data-name="Layer 2" xmlns="http://www.w3.org/2000/svg" viewBox="0 0 600 128.63">
  <defs>
    <style>
      .cls-1 {
        fill: #252525;
      }
    </style>
  </defs>
  <g id="Layer_1-2" data-name="Layer 1">
    <g>
      <path class="cls-1" d="M59.06,103.1c-.09.19-.25.34-.43.43"/>
      <path class="cls-1" d="M63.18,70.96c.48.02.88-.36.9-.83.02-.48-.36-.88-.83-.9s-.88.36-.9.83c0,.01,0,.02,0,.03,0,.47.37.85.84.87Z"/>
      <path class="cls-1" d="M102.99,34.67h-30.93v24.99c-.18,2.04.75,4.02,2.44,5.17l12.03,7.11c.27.32.67.5,1.08.49.35,0,.69-.14.96-.37l12.09-7.24c1.69-1.15,2.63-3.13,2.44-5.17v-24.99h-.12ZM82.32,41.91h-2.66v-6.4h2.66v6.4ZM80.37,44.14l.4-.4-.25-.43h.49l.31-.53.28.53h.53l-.25.43.37.4h-.46v.53l-.46-.34-.46.34v-.53h-.49ZM72.92,52.09v-6.19h3.09v6.19h-3.09ZM73.45,43.3h.49l.31-.53.28.53h.53l-.25.43.37.4h-.46v.53l-.56-.25-.46.34v-.53h-.49l.4-.4-.25-.43.09-.09ZM77.13,49.49h.49l.31-.53.28.53h.53l-.25.46.37.37h-.49v.56l-.43-.34-.46.34v-.49h-.49l.37-.37-.09-.56-.12.03ZM79.26,44.63c0-.19-.22-.22-.31-.22s-.4.46-.65.49-.31,0-.31-.19.37-.31.49-.43c-1.98,0-2.04.9-2.35.9s.43-.96.71-1.24c-.4,0-.62-.56-1.08-.8.22-.31.34-.19.59,0s.19-.46.65-.46.65.87.77.87,0-.87.59-.87,2.01,2.29.99,2.29c-.43,0,0-.31,0-.37l-.09.03ZM76.97,37.92l.37-.4-.09-.46h.49l.31-.53.28.53h.53l-.25.43.37.4h-.49v.56l-.43-.34-.46.34v-.56h-.49l-.12.03ZM76.17,35.54v6.4h-3.09v-6.43l3.09.03ZM82.35,68.55l-7.39-4.42c-1.26-.99-2-2.51-2.01-4.11v-7.05h9.28v15.47l.12.12ZM79.69,52.12v-6.19h2.66v6.19h-2.66ZM91.88,69.07l-3.4,2.04h0c-.26.2-.57.31-.9.31-.34,0-.67-.12-.93-.34l-3.4-2.01v-16.08h8.69v16.08h-.06ZM91.88,52.12h-8.72v-16.61h8.69v16.58l.03.03ZM102,59.98c0,1.61-.75,3.12-2.01,4.11l-7.27,4.42v-15.47h9.28v6.93ZM102,52.09h-9.28v-16.58h9.28v16.58Z"/>
      <path class="cls-1" d="M81.83,58.68s-1.18.37-.87.34.68-1.02.96-1.27-.56,0-1.08.25c1.76-2.54.62-1.52-.37-1.33,1.58-1.7,1.18-1.67,0-1.14.93-.71,1.11-1.58.96-1.82-.84,1.14-1.64.96-1.64,2.01.01.78-.19,1.55-.59,2.23-.46.49,0-1.86-1.33-1.86-.37,0-1.3,0-1.58.43.25,0,.62.65.62.9s.22.93-.19.93-.9-.87-.9-1.3v-.9c-.27-1.16-1.15-2.08-2.29-2.41,0,.68.93.87.93,1.76-.4,0-.96-.74-.96-.28s.59.53.59.9-.65,0-.65.28.34.31.43.68h-.56c-.06,0,0,.28.28.37s0,.31,0,.9c0,1.98,1.24,2.88,2.13,2.88s.56-.43.62-.65c0,.34.37-.19.37.4s-.65.34-.65.87.99,0,.99.77c.03.43.03.87,0,1.3,0,.22,1.05-.37.99-.46s.25.84.71.8.34-.74.59-.8.93.68.93.34c0-.9-.37-.53-.37-1.14s1.27-.46,1.08-.77-.28,0-.43-.53c0,0-.99-1.45.22-.68,1.21.77,1.42-1.95,1.36-2.07l-.31.09Z"/>
      <path class="cls-1" d="M114.86,65.2c.5,0,.9-.4.9-.9,0-.5-.4-.9-.9-.9h0c-.5,0-.9.4-.9.9,0,.5.4.9.9.9h0Z"/>
      <path class="cls-1" d="M110.75,67.65c.5,0,.9-.4.9-.9,0-.5-.4-.9-.9-.9h0c-.5,0-.9.4-.9.9,0,.5.4.9.9.9h0Z"/>
      <path class="cls-1" d="M61.78,73.31c.5,0,.9-.4.9-.9,0-.5-.4-.9-.9-.9h0c-.5,0-.9.4-.9.9,0,.5.4.9.9.9h0Z"/>
      <path class="cls-1" d="M64.88,73.59c.49-.07.83-.52.76-1.01s-.52-.83-1.01-.76c-.44.06-.77.44-.77.88.03.53.49.93,1.02.9,0,0,0,0,0,0Z"/>
      <path class="cls-1" d="M153.06,30.87c1.52,1.92,1.82,4.53.77,6.74-.62,0-.49-.8-.62-1.24-1.34-2.03-1.69-4.55-.96-6.87.71,0,.43.99.8,1.36Z"/>
      <path class="cls-1" d="M23.8,33.38c-.31,1.42-.31,2.88,0,4.3-.28.28-.22-.28-.49-.22-2.1-1.52-1.11-4.52-1.67-6.62.16-.14.4-.14.56,0,.88.63,1.46,1.59,1.61,2.66v-.12Z"/>
      <path class="cls-1" d="M157.67,33.38c.34.59-.28,1.18-.71,1.45-.52.09-1.04-.15-1.33-.59-.15-.57.12-1.16.65-1.42.53-.11,1.08.11,1.39.56Z"/>
      <path class="cls-1" d="M20.52,35.88c-.05.49-.31.93-.71,1.21-.31,0-.8,0-1.02-.28-.35-.27-.47-.74-.31-1.14.25-.31.62-.5,1.02-.49.4.09.73.35.93.71h.09Z"/>
      <path class="cls-1" d="M159.81,36.81c.12.28.12.59,0,.87-.3.49-.91.7-1.45.49-.31-.22-.52-.55-.59-.93.14-.46.48-.82.93-.99.43.04.83.23,1.11.56Z"/>
      <path class="cls-1" d="M156.74,36.87c.43.22,0,.74,0,1.08s-.65.71-1.14.53-.59-.25-.71-.65c-.06-.54.26-1.05.77-1.24.43,0,.68,0,1.02.28h.06Z"/>
      <path class="cls-1" d="M152.79,37.68c0,.59,0,1.36-.65,1.45-.55.14-1.1-.2-1.24-.74-.05-.56.28-1.09.8-1.3.43.02.83.23,1.08.59Z"/>
      <path class="cls-1" d="M26.4,37.95c0,.53-.37.87-.71,1.14-.45.03-.88-.21-1.08-.62-.37-.37,0-.71.22-1.02.42-.35,1.05-.28,1.39.14.09.1.15.22.18.35Z"/>
      <path class="cls-1" d="M23.15,38.11c.02.43-.21.83-.59,1.02-.39.07-.79-.12-.99-.46-.22-.46-.03-1.02.43-1.24.02-.01.04-.02.06-.03.59-.22.96.34,1.18.71h-.09Z"/>
      <path class="cls-1" d="M139.73,38.32c.58,1.24.95,2.57,1.08,3.93-.22,1.02.15,2.38-.59,3.09-.77-.28-.84-1.21-1.3-1.7-.6-1.96-.53-4.05.19-5.97.43-.15.43.37.59.65h.03Z"/>
      <path class="cls-1" d="M20.61,38.97c.15.65-.31.99-.71,1.36s-1.05-.31-1.42-.77c-.04-.53.23-1.03.68-1.3.55-.05,1.09.23,1.36.71h.09Z"/>
      <path class="cls-1" d="M148.39,40.55c.58,1.68.58,3.51,0,5.2l-.31.28c-.91-1.39-1.65-2.87-2.23-4.42-.02-1.07.21-2.12.65-3.09.4-.28.62,0,.77.37,0,.66.32,1.27.87,1.64l.25.03Z"/>
      <path class="cls-1" d="M155.07,39.56c0,.57-.32,1.09-.84,1.33-.52.16-1.07-.13-1.24-.65-.11-.52.12-1.06.59-1.33.62-.31,1.21.22,1.48.65Z"/>
      <path class="cls-1" d="M23.21,41.26c-.02.48-.34.89-.8,1.02-.43.34-.77-.22-1.14-.37-.21-.38-.21-.85,0-1.24,0-.34.56-.34.87-.43s.96.46,1.08,1.02Z"/>
      <path class="cls-1" d="M25.59,40.98c.22.56-.37.84-.59,1.08s-.99-.25-1.27-.65c-.05-.48.2-.94.62-1.18.65-.19.96.25,1.24.74Z"/>
      <path class="cls-1" d="M156.59,40.83c0,.71-1.14,1.42-1.27,2.1-.61,1.47-1.83,2.6-3.34,3.09-.33.35-.76.6-1.24.71,0-1.08.87-2.07,1.45-3.09,1.11-1.4,2.66-2.39,4.39-2.81Z"/>
      <path class="cls-1" d="M22.13,43.12c.65.95,1.4,1.83,2.23,2.63,0,.22,0,.56-.4.56-2.63,0-4.42-2.88-5.72-4.79.19-.59.87,0,1.27,0,.9.71,1.92.93,2.63,1.86v-.25Z"/>
      <path class="cls-1" d="M157.33,43.86c-.04,2.4-1.3,4.62-3.34,5.88-.62.22-1.24.84-1.86.43,1.29-2.27,2.9-4.36,4.76-6.19l.43-.12Z"/>
      <path class="cls-1" d="M146.97,45.44c.16.69-.25,1.38-.93,1.58-.59,0-.96-.43-1.24-.87-.05-.52.25-1.02.74-1.21.21-.08.44-.08.65,0,.34,0,.49.37.77.65v-.15Z"/>
      <path class="cls-1" d="M19.16,45.93c1.02.8,1.99,1.65,2.91,2.57-.68.49-1.55,0-2.38,0-1.82-.68-3.09-2.26-4.95-2.78,0-.62.74-.37,1.14-.56,1.12.06,2.23.3,3.28.71v.06Z"/>
      <path class="cls-1" d="M77,29.85c-3.09-1.21-5.04,1.95-8.1,1.58-.37.22-.28.59-.49.87s-.43,0-.59,0c-.15-1.3-.59-2.51-.77-3.74-.31-.56-.15-1.3-.43-1.86-1.7-4.73,4.24-1.14,5.41-3.93,1.18-2.78-2.01-2.66-2.91-4.33v-.77c-.87-.87-1.79-1.14-2.32-2.29.42-1.35.47-2.79.15-4.18,0-.34-.28-.77-.77-.62-1.02,1.42-1.76,2.57-2.75,3.93-.97-.87-2-1.67-3.09-2.38-.8,0-1.55-.93-2.47-.62-.11.29-.05.61.15.84.15,2.05,1.11,3.97,2.66,5.32l.15.8c-.68,2.33-1,4.75-.96,7.18-2.42,6.41-6.46,12.09-11.72,16.49-3.09,3.5-6.74,6.87-7.24,11.63-.15.77,0,1.7-.49,2.23-1.8-.62-3.49-1.52-5.01-2.66-2.47-1.73-6.19-1.52-7.67-4.67-.65-1.24,0-2.51.74-3.43,1.62-1.97,1.87-4.73.62-6.96-.22,0-.28.22-.43.28-.19,3.09-2.72,5.44-1.73,8.97.22,1.05.74,1.7,1.02,2.66-.42-.04-.84-.14-1.24-.28-1.18-.32-2.4-.48-3.62-.46-2.47,1.14-5.88-.28-7.89,2.01-.31,0-.74,0-.65.59,1.21,0,2.32.34,3.53.28,1.89.31,3.09-1.27,4.42-1.95h.31c.56-.56,1.45-.22,2.17-.34,3.19.55,6.22,1.82,8.85,3.71v.22c-1.08.46-2.32.8-3.4,1.39-1.41.84-2.5,2.12-3.09,3.65-.87,1.36.25,2.57.8,3.71,0,.53,0,1.18.59,1.39,1.73-1.82,0-4.11.37-6.19.55-1.54,1.91-2.65,3.53-2.88,3.09-1.3,5.29,1.18,7.76,2.6.17,2.45.08,4.9-.25,7.33-.81.3-1.67.44-2.54.4-4.27.31-7.61,2.66-11.44,3.96-1.73.59-3.77.56-5.51,1.21,1.34.17,2.69.16,4.02-.03,5.29-.77,9.28-4.86,15.06-4.14v.15c-.64,1.31-1.49,2.51-2.54,3.53,0-.59-.22-1.08-.74-1.39-.47-.18-1,0-1.27.43-.16.24-.16.56,0,.8.27.42.71.7,1.21.77,0,.49-.71.71-1.02,1.14-1.52,2.54-4.61,1.52-6.37,3.31-.28.37-1.24.59-.84,1.21,1.97.22,3.95-.29,5.57-1.42,2.01-2.23,4.11-4.36,6.19-6.46.28,1.74-.16,3.53-1.21,4.95-.45-.33-.94-.61-1.45-.84-.51.14-.88.56-.96,1.08.18.43.46.81.8,1.11-1.96.99-4.07,1.64-6.25,1.95-3.9.49-7.82.78-11.75.87-1.94.2-3.9.2-5.85,0-2.04.37-4.27-.28-5.94.87-.22.28,0,.56,0,.8,2.47,1.64,5.88.34,8.69.84h21.28c1.5.07,2.99-.22,4.36-.84,2.56-1.78,4.54-4.28,5.69-7.18.54-1.02.91-2.11,1.11-3.25.56-1.82,2.16-3.13,4.05-3.31.16,2.79-.16,5.58-.93,8.26-.31,1.73-1.45,3.4-.74,5.26.15.87,1.08.87,1.79.99,6.53,0,13.05-.37,19.95,0,1.2.33,2.44.51,3.68.56,0-.15.49-.22.34-.56-.17-.68-.65-1.25-1.3-1.52,0-.31-.62-.22-.77-.43-3.43-1.95-7.61-.93-11.66-.87-1.94.5-3.99.33-5.82-.49-.8-.99-.22-4.08-.22-4.08.86-3.58,1.99-7.08,3.37-10.49.22-.82.32-1.66.31-2.51.33-1.21.45-2.46.34-3.71.38-1.73.94-3.42,1.67-5.04.31-.84.59-1.7.9-2.51.19-1.01.55-1.97,1.08-2.85,1.76,1.11,3.5,1.08,4.33,3.09l.74,4.52c0,.28.22.84.62.49,1.39-.93.96-3.09.96-4.39s-.87-2.51-1.36-3.99c-.41-.46-.74-.98-.99-1.55-.22-1.21-2.85-2.04-2.23-3.5.14-1.24.81-2.37,1.82-3.09.14.08.24.21.28.37l.65-.43v-4.55c1.73,0,4.36.22,6.19.22.49.15.87.53,1.42.59l.43-.59,4.36-.87c-1.86.22-3.09-1.92-4.73-1.92v-.06Z"/>
      <path class="cls-1" d="M34.72,46.92c.03.54-.29,1.05-.8,1.24-.42-.07-.8-.31-1.05-.65-.22-.59.34-1.02.77-1.24s.96,0,1.08.65Z"/>
      <path class="cls-1" d="M31.19,46.92c.33.32.42.82.22,1.24-.37.34-.96.62-1.3.19s-.65-.71-.37-1.14,1.02-.71,1.45-.28Z"/>
      <path class="cls-1" d="M147.5,48.44c.22.59-.25,1.02-.68,1.24s-1.27-.25-1.27-.96c.1-.42.42-.74.84-.84.45-.08.9.15,1.11.56Z"/>
      <path class="cls-1" d="M150.37,48.35c0,.25.53.68,0,.96-.2.11-.38.26-.53.43-.53.18-1.11-.1-1.3-.64,0,0,0,0,0-.01,0-.59.37-.87.8-1.14s.65.15.93.4h.09Z"/>
      <path class="cls-1" d="M17.64,49c-.15.56-.73.89-1.29.74-.06-.02-.11-.04-.16-.06-.18-.21-.32-.43-.43-.68,0-.4,0-.77.59-.93.6-.05,1.15.34,1.3.93Z"/>
      <path class="cls-1" d="M35.83,49.89c0,.46-.53.84-.9,1.05-.52,0-.98-.31-1.21-.77-.03-.46.23-.89.65-1.08.62-.16,1.26.19,1.45.8Z"/>
      <path class="cls-1" d="M32.65,49.52c.23.23.3.57.19.87-.34.28-.8.77-1.36.43s-.71-.46-.59-1.02c.22-.27.49-.5.8-.65.43,0,.65,0,.96.37Z"/>
      <path class="cls-1" d="M158.63,50.17c-.07.44-.33.82-.71,1.05-.41.15-.88.04-1.18-.28-.34,0-.22-.56-.22-.8.24-.36.6-.61,1.02-.71.44.11.82.38,1.08.74Z"/>
      <path class="cls-1" d="M162.1,50.67c-.14.5-.55.88-1.05.99-.31,0-.9-.19-.8-.65-.03-.36.17-.7.49-.87.49-.24,1.08-.04,1.33.45.01.03.02.05.03.08Z"/>
      <path class="cls-1" d="M23.8,51.44c.18.53-.1,1.11-.64,1.3,0,0,0,0-.01,0-.37.22-.74,0-1.02-.28-.32-.26-.44-.7-.28-1.08,0-.49.62-.37.93-.59.43.02.82.27,1.02.65Z"/>
      <path class="cls-1" d="M26.46,51.93c.15.43-.34.59-.43.9-.3.2-.69.2-.99,0-.37-.34-.8-.8-.43-1.3s1.58-.4,1.86.28v.12Z"/>
      <path class="cls-1" d="M155.45,51.66c0,.53-.43.93-.77,1.24-.48.1-.95-.18-1.08-.65,0-.43.24-.82.62-1.02.46-.12.95.05,1.24.43Z"/>
      <path class="cls-1" d="M159.87,52.52c0,.49,0,1.02-.59,1.36-.44.12-.92.04-1.3-.22-.31-.29-.4-.76-.22-1.14.25-.47.77-.74,1.3-.65.37.22.49.49.8.65Z"/>
      <path class="cls-1" d="M21.76,53.67c.22.43-.28.53-.43.74-.34.19-.75.19-1.08,0-.37-.22-.22-.77-.15-1.05.46-.9,1.45-.25,1.67.4v-.09Z"/>
      <path class="cls-1" d="M156.47,54.69c.22,0,0,.37,0,.49-1.36.77-3.03.71-4.33-.15-.68-.46-1.39-.86-2.13-1.21.25-.71,1.24-.65,1.92-.8,1.58.22,2.81,1.67,4.55,1.73v-.06Z"/>
      <path class="cls-1" d="M24.36,54.19c0,.43-.22.62-.34.93s-.65.22-.93,0c-.48-.27-.65-.87-.38-1.35,0,0,0,0,0-.01.37-.4,1-.42,1.4-.04.1.1.19.22.24.35v.12Z"/>
      <path class="cls-1" d="M29.09,54.53c.17.48-.06,1.01-.53,1.21-.4.22-.71,0-1.02-.19s-.77-.8-.28-1.24,1.45-.37,1.82.22Z"/>
      <path class="cls-1" d="M91.51,56.82c0,1.08-1.89,0-1.64,1.3.16,1.09.53,2.14,1.08,3.09.53.71.25,1.86.22,2.72-.51.77-1.23,1.39-2.07,1.76-1.52-.15-3.77.77-4.52-1.14-.43-.8-.72-1.67-.87-2.57.15,0,.37,0,.53-.28s-.4-.56-.37-.93c1.76-.31-.71-1.86.77-1.95,1.24,1.27,3.25.87,4.3,2.26.28.22.46.53.77.68-.19-1.3-.8-2.6-1.02-3.99-.15-.67.09-1.36.62-1.79.93-.71,1.7.31,2.2.87v-.03Z"/>
      <path class="cls-1" d="M33.94,56.48c0,.56-.28.87-.59,1.14s-.77-.31-.99-.59.22-.84.56-1.08c.41-.01.8.18,1.02.53Z"/>
      <path class="cls-1" d="M67.17,57.04c.7,2.06.46,4.32-.65,6.19,0,.43,0,1.14-.49,1.08-1.45-2.01-.37-4.86.22-6.96,0-.56.77-.77.93-.22v-.09Z"/>
      <path class="cls-1" d="M113.38,58.12c.73,1.61.73,3.46,0,5.07l-.43.43c-.63-1.21-1.06-2.52-1.27-3.87.34-.93.55-1.89.65-2.88.77-.19.71.8.93,1.24h.12Z"/>
      <path class="cls-1" d="M38.06,58.68c-.31.65-1.24.8-1.82,1.24-1.42.94-3.16,1.27-4.83.93,1.34-2.05,3.79-3.07,6.19-2.57,0,.22.4,0,.49.4h-.03Z"/>
      <path class="cls-1" d="M15.88,60.63c1.62,1.48,2.88,3.29,3.71,5.32.15.22.71.28.49.71s-.87-.34-1.45-.22c-2.09-1.06-3.37-3.25-3.25-5.6,0-.22.34-.22.56-.22h-.06Z"/>
      <path class="cls-1" d="M111.27,62.3c0,.56,0,1.11-.49,1.27-.52.16-1.07-.13-1.24-.65,0-.4.15-.62.28-.87.4-.34,1.01-.3,1.35.1.04.04.07.09.1.14Z"/>
      <path class="cls-1" d="M134.07,65.2c.05-1.04.18-2.07.37-3.09.18-.35.26-.75.22-1.14,1.3-1.73,3.93-1.21,6-1.02.87.31,1.77.5,2.69.59.4-.26.89-.36,1.36-.28,1.7-.93.59-2.94.68-4.52l-.65-1.64c-.17-.35-.32-.71-.43-1.08-.31-.37-.53-1.08-.87-1.45-1.11-2.09-2.58-3.97-4.33-5.57-3.01-3.42-6.98-5.86-11.38-7.02-4.27-1.45-8.6.43-12.37,1.79-1.06-.33-1.86-1.2-2.1-2.29-.17-1.98.22-3.98,1.11-5.75.38-1.26.88-2.48,1.48-3.65,1.11-2.99,1.84-6.11,2.2-9.28-.06-1.87-1.19-3.55-2.91-4.3-1.06-.38-2.25-.16-3.09.59-.83,1.36-2.06,2.44-3.53,3.09,0,.93,1.05.34,1.42.65,1.18.22,2.54,0,3.5.62-.07,2.06-.83,4.03-2.17,5.6-1.95,2.63-3.6,5.48-4.92,8.48l-.22-.22.28,13.3c1.47,3.14,3.97,5.69,7.08,7.21,1.7,1.39,3.87,3.09,6.19,1.82,1.24-.37,1.36,1.36,1.95,2.07.65,2.01-.8,3.43-.93,5.29l-1.39,3.09c-1.41,3.34-3.28,6.47-5.57,9.28-.8,0-1.3.87-2.1.9-.43.62-1.3.19-1.82.4-1.67.71-4.05.28-5.2,1.86.11.13.26.22.43.25,3.31,0,6.96.28,10.49,0,.45-.16.78-.55.87-1.02-.49-.93.15-1.76.59-2.47.28-1.3,1.14-2.1,1.52-3.37,1.14-2.23,2.41-4.39,3.68-6.62l1.67-2.72c.45-1.08,1.01-2.12,1.67-3.09.39-.45.71-.95.96-1.48,0-.53-.22-.77-.53-1.14.37-.37.96-.28,1.45-.37,1.47.74,2.58,2.03,3.09,3.59l.46,1.42.22.65v1.79l.22,1.67c.11,2.64-.05,5.28-.49,7.89-.93,3.09-4.52,2.85-7.11,3.53-.65.43-1.89.22-1.89,1.33,3.37.41,6.77.49,10.15.22.53-.22.65-.71.9-1.21s.84-1.3.62-2.07,0-1.95-.22-3.09c.09-.34.09-.71,0-1.05.43-1.58.31-3.46.65-5.01l.22-2.04-.15.12Z"/>
      <path class="cls-1" d="M160.77,63.07c-1.41,2.75-3.73,4.94-6.56,6.19-.22,0-.46,0-.56-.15,1.82-1.98,2.81-5.01,5.66-5.72.42-.31.95-.43,1.45-.31Z"/>
      <path class="cls-1" d="M13.22,65.73c-.28.22,0,.71-.53.77-.45.17-.96-.05-1.14-.49-.13-.53.19-1.07.72-1.2,0,0,.02,0,.02,0,.43.22.87.4.96.93h-.03Z"/>
      <path class="cls-1" d="M28.78,66.5c.15.49-.4.49-.65.59-2.19.74-4.61.12-6.19-1.58,0-.22,0-.43.22-.49,2.23.56,4.79,0,6.65,1.48h-.03Z"/>
      <path class="cls-1" d="M16.19,65.79c.07.26.07.54,0,.8-.29.45-.85.65-1.36.49-.31-.15-.56-.4-.71-.71.09-.49.45-.89.93-1.02.38.02.74.17,1.02.43h.12Z"/>
      <path class="cls-1" d="M66.79,66.07c0,.46-.34.8-.65,1.02-.44.13-.9-.05-1.14-.43-.15-.37,0-.93.37-1.02s1.24,0,1.42.43Z"/>
      <path class="cls-1" d="M162.68,66.29c.15.53-.34.8-.71,1.11s-.71,0-1.02-.15-.37-.49-.28-.87c.22-.47.73-.74,1.24-.65.27.17.53.35.77.56Z"/>
      <path class="cls-1" d="M166.24,66.07c.31.46,0,.87-.22,1.24-.18.35-.6.5-.96.34-.34-.34-.77-.49-.84-.99s.49-.77.84-.93.74.34,1.18.34Z"/>
      <path class="cls-1" d="M10.96,67.65c0,.37-.28.59-.37.9s-.56.34-.87.25c-.38-.18-.68-.5-.84-.9.11-.51.49-.93.99-1.08.48.09.88.4,1.08.84Z"/>
      <path class="cls-1" d="M124.67,67.65c.05.22.05.46,0,.68-.34.46-.77.84-1.3.56s-.71-.65-.56-1.14c.33-.5,1.01-.63,1.5-.29.11.08.21.18.29.29l.06-.09Z"/>
      <path class="cls-1" d="M19.65,68.45c0,.37-.28.77-.77.8s-.65-.37-.9-.59,0-.99.43-1.27c.53-.14,1.07.18,1.21.71.03.11.04.23.03.35Z"/>
      <path class="cls-1" d="M14.46,68.55c.09.47-.12.95-.53,1.21-.6.14-1.21-.17-1.45-.74.05-.57.43-1.06.96-1.27.49,0,.74.56,1.02.8Z"/>
      <path class="cls-1" d="M128.23,68.45c.17.52-.08,1.09-.59,1.3-.6.13-1.2-.18-1.45-.74.25-.46.31-1.05.96-1.14.44,0,.85.22,1.08.59Z"/>
      <path class="cls-1" d="M16.99,68.67c.15.37,0,.56-.28.8s-.4.34-.74.22-.59-.37-.59-.74c0-.46.28-.88.71-1.05.48-.01.9.31,1.02.77h-.12Z"/>
      <path class="cls-1" d="M159.71,69.1c-.18.4-.51.72-.93.87-.43,0-.71-.28-1.02-.43s-.15-.71,0-.99c.36-.5,1.06-.61,1.56-.25.26.19.43.48.46.8h-.06Z"/>
      <path class="cls-1" d="M163.86,69.32c-.19.54-.69.91-1.27.93-.49-.22-1.05-.59-.65-1.24s.31-.46.65-.49c.54-.15,1.1.18,1.25.72,0,.03.01.05.02.08Z"/>
      <path class="cls-1" d="M138.15,69.69c.28.71-.37.93-.8,1.27-.37-.08-.72-.23-1.02-.46-.14-.59.18-1.2.74-1.42.44,0,.84.22,1.08.59v.03Z"/>
      <path class="cls-1" d="M123.31,70.49c.28,0,0,.46,0,.65s-.77.74-1.24.43c-.42-.17-.65-.61-.56-1.05.28-.59,1.42-.65,1.67,0l.12-.03Z"/>
      <path class="cls-1" d="M126.34,70.74c.09.36-.09.72-.43.87-.37.37-.8,0-1.18-.15-.14-.26-.14-.58,0-.84.18-.22.43-.38.71-.43.37,0,.8,0,.96.56h-.06Z"/>
      <path class="cls-1" d="M34.72,70.8c.31.31,0,.71,0,1.02-.31.42-.88.54-1.33.28-.56-.22-.49-.93-.4-1.36s.34-.49.77-.49c.41.06.79.26,1.08.56h-.12Z"/>
      <path class="cls-1" d="M143.94,71.02c0,.53-.43.74-.8.87s-.99-.28-1.24-.71.31-.68.31-.68c.74-.34,1.24.22,1.61.65l.12-.12Z"/>
      <path class="cls-1" d="M141.03,71.02c.22.53-.37.8-.59,1.08-.41.17-.88.08-1.21-.22-.28-.19-.28-.49-.28-.84s.49-.59.87-.68c.49-.01.95.24,1.21.65Z"/>
      <path class="cls-1" d="M165.37,71.67c0,.74-.87.37-1.24.59-2.39.94-5.08.76-7.33-.49.15-.71.96-.43,1.39-.71,2.32-1.45,4.7.34,7.02.46l.15.15Z"/>
      <path class="cls-1" d="M17.58,71.02l-.22.37c-2.04,1.39-4.57,1.84-6.96,1.24l-.22-.31c2.12-1.43,4.72-1.96,7.24-1.48v.19h.15Z"/>
      <path class="cls-1" d="M149.44,71.39c0,.41-.19.79-.53,1.02-.55.23-1.19-.03-1.42-.58,0,0,0,0,0-.01-.15-.43.28-.87.71-1.02s1.02,0,1.24.59Z"/>
      <path class="cls-1" d="M27.26,71.61c-.22.43,0,.87-.65,1.08-.57.13-1.15-.17-1.36-.71,0-.59.28-.74.56-1.02s1.11.15,1.45.65Z"/>
      <path class="cls-1" d="M23.43,71.89c.15.37,0,.59-.28.87-.3.26-.72.33-1.08.15-.42-.29-.61-.81-.49-1.3.25-.24.55-.44.87-.59.51.02.95.37,1.08.87h-.09Z"/>
      <path class="cls-1" d="M153.22,73.12c-.05.48-.4.88-.87.99-.35-.04-.67-.23-.87-.53-.16-.35-.08-.77.22-1.02,0-.15.49-.15.71-.28.47.05.86.4.96.87l-.15-.03Z"/>
      <path class="cls-1" d="M19.44,72.54c0,.43-.22.59-.28.93-.25.84-.65,1.62-1.18,2.32-1.05,1.27-2.51,1.27-3.96,1.64l-.22-.43c1.41-1.95,3.28-3.53,5.44-4.58h.19v.12Z"/>
      <path class="cls-1" d="M150.53,73.74c0,.65-.43.74-.8,1.02-.45,0-.87-.25-1.08-.65,0-.62.37-.8.71-1.08.51-.09,1.01.22,1.18.71Z"/>
      <path class="cls-1" d="M25.66,73.74v.25c0,.62-.49.77-.8,1.05-.47,0-.91-.2-1.21-.56-.21-.45-.01-.98.44-1.19.04-.02.08-.03.12-.05.46,0,1.11,0,1.3.49h.15Z"/>
      <path class="cls-1" d="M160.46,75.35c.56,0,.65-.71,1.24-.8.51-.08,1.02.15,1.3.59.22.65-.28.99-.68,1.27s-1.21-.34-1.14.37c.39.24.66.63.74,1.08,0,.22-.46.15-.65,0-1.68-.58-3.07-1.79-3.87-3.37-.22-.49-1.24-.87-.65-1.3,1.49.11,2.85.88,3.71,2.1v.06Z"/>
      <path class="cls-1" d="M165.65,73.59c.23.3.23.72,0,1.02-.28.56-1.08.34-1.58.28s-.53-.56-.43-.99c.2-.31.49-.55.84-.68.45-.08.91.06,1.24.37h-.06Z"/>
      <path class="cls-1" d="M146.04,76.68c.52.65.93,1.38,1.21,2.17,0,.15-.4,0-.49,0-1.82-1.05-4.21-2.2-4.92-4.36-.15-.22-.59-.49-.53-.87,1.4-.04,2.75.51,3.71,1.52.37.56.8.8,1.02,1.42v.12Z"/>
      <path class="cls-1" d="M22.62,74.55c.22.49-.22.87-.49,1.08-.46.12-.95-.05-1.24-.43-.37-.59.31-1.08.74-1.3s.71.37.99.65Z"/>
      <path class="cls-1" d="M152.79,75.78c0,.34-.37.56-.53.77s-.87.22-1.24-.15-.37-.71,0-.99c.59-.77,1.45-.15,1.82.37h-.06Z"/>
      <path class="cls-1" d="M166.24,76.68c.08.58-.24,1.13-.77,1.36-.48.07-.96-.12-1.27-.49-.28-.34,0-.65,0-1.02.34-.4.89-.55,1.39-.4.24.16.46.35.65.56Z"/>
      <path class="cls-1" d="M128.88,84.07c0,.65-1.18.46-1.67.96-1.79.74-3.73,1.02-5.66.84v-.34c2.05-1.68,4.8-2.23,7.33-1.45Z"/>
      <path class="cls-1" d="M50.09,86.39c-.03.45-.36.83-.8.93-.39,0-.74-.22-.93-.56-.22-.65.34-.9.71-1.18.46.05.86.36,1.02.8Z"/>
      <path class="cls-1" d="M127.95,86.98c-.02.54-.33,1.02-.8,1.27-.43.04-.85-.09-1.18-.37-.28-.22,0-.62,0-.9.23-.59.89-.88,1.48-.65.3.12.54.35.65.65h-.15Z"/>
      <path class="cls-1" d="M138.71,87.23c-1.34,1.06-2.94,1.71-4.64,1.89h-2.94l-.25-.22c2.15-1.86,5.06-2.58,7.83-1.95v.34-.06Z"/>
      <path class="cls-1" d="M35.31,88.53c.05.47-.26.9-.71,1.02-.44.14-.92-.08-1.11-.49-.2-.46-.01-1,.43-1.24.59-.37,1.18.28,1.39.71Z"/>
      <path class="cls-1" d="M38,89.05c0,.28,0,.43-.22.71s-.74.28-1.02,0c-.34-.16-.48-.57-.32-.91,0,0,0-.01.01-.02,0-.31.46-.28.65-.49s.74.34.9.71Z"/>
      <path class="cls-1" d="M17.33,94.56c-.56.65-1.42-.15-2.01-.49-1.89-1.08-1.82-3.09-3.71-4.45.22-.65.68,0,1.08,0,.35.23.72.43,1.11.59,1.86,1.05,2.29,2.78,3.53,4.42v-.06Z"/>
      <path class="cls-1" d="M174.72,73.59c-.8-1.47-2.38-2.34-4.05-2.23-1.36.12-2.55.98-3.09,2.23-.38,1.15.05,2.41,1.05,3.09.36.22.83.11,1.05-.25.28-.71-.46-.71-.59-1.27-.2-.69.03-1.43.59-1.89.56-.56,1.48-.28,2.1-.28.69.35,1.27.9,1.64,1.58.31.93.31,1.94,0,2.88-.63,1.38-1.86,2.39-3.34,2.72-4.49.65-53.67.43-53.67.43-5.78.56-12.37-1.08-17.35,1.95-2.1,1.28-3.56,3.39-3.99,5.82-1.5,1.33-2.91,2.77-4.21,4.3l-.09-.53c.25-1.3.87-2.44,1.11-3.74.84-1.08.84-2.57,1.42-3.77,1.78-3.44,4.22-6.5,7.18-9,1.33-1.79,3.71-1.48,5.78-1.48,2.35,1.03,4.94,1.4,7.49,1.08.12-.08.19-.22.19-.37-.77-.71-2.01-.99-2.88-1.67-2.17-1.05-4.21.31-6.46.15,0,0-.22-.15-.19-.34,2.15-1.42,4.45-2.58,6.87-3.46,1.9-.91,3.86-1.69,5.88-2.32.8,0,1.58-.71,2.32-.22l2.88-.77s.22.22.43.15c2.74-.39,5.52-.39,8.26,0l.37.31,2.6.65c.96,0,1.39,1.27,2.41,1.3.56-.74-.59-1.08-.87-1.55,1.19-.27,2.43-.16,3.56.31l-.53.59c-.34.62.15,1.05.65,1.27s.65-.15.9-.28c.71-.49,0-.99.19-1.42,3.94.64,7.79,1.74,11.48,3.28,1.05.31,2.01,1.08,3.09,1.02-1.25-.94-2.64-1.67-4.11-2.17-.93-.56-2.23-.59-2.91-1.36,0-.28.53-.15.68-.37,1.89-.42,3.57-1.52,4.7-3.09,0-.31.71-.22.65-.65s-1.3.15-1.95,0c-2.26.43-3.09,3.09-5.51,3.59l-8.29-2.01c-1.38-.13-2.74-.42-4.05-.87l-3.09-.28h-5.47s-.22-.19,0-.34c1.92-.49,3.62-1.64,5.54-2.1l14.23-6.37c1.5-1.36,2.87-2.85,4.11-4.45.05-.43-.19-.85-.59-1.02-.36-.21-.83-.12-1.08.22-.65.46,0,1.08,0,1.67-.7.86-1.55,1.58-2.51,2.13-.22,0-14.88,6.68-14.88,6.68-2.12,1.02-4.32,1.84-6.59,2.44l-3.09.49c-.23.6-.72,1.06-1.33,1.24-.8.33-1.63.56-2.47.71-7.33,2.29-14.1,6.08-19.89,11.14.33-.71.52-1.48.56-2.26.02-.85-.19-1.68-.62-2.41,0-.28-.53-1.18-.37-1.48l-.8.53c-.63,1.45-.79,3.07-.43,4.61,0,.99.96,2.13.22,3.09-2.35,3.27-4.29,6.81-5.78,10.55-.65,0-.96-.71-1.24-1.3,1.91-2.29,3.23-5.02,3.84-7.95.37-.28,0-.99.49-1.3,0-.87.46-1.73,0-2.44.34-1.21-1.61-2.29-.37-3.09l-1.02.49c-2.32,3.09,1.21,7.61-1.42,10.55v.22c-.57.99-1.3,1.88-2.17,2.63-1.3-.56-1.79-2.01-2.54-3.09-1.13-1.44-1.32-3.41-.49-5.04.49-1.58-.31-2.94-.49-4.36l-.53-.31c-1.41,1.81-1.71,4.25-.77,6.34.56.99.62,2.35,1.42,3.09.59,1.44,1.37,2.79,2.32,4.02.22.56-.31.65-.59.93-.59-.37-.49-1.24-1.02-1.61-1.79-3.66-4.12-7.01-6.93-9.96,0-.49-.59-.93-.31-1.48,1-1.13,1.26-2.73.68-4.11,0-.28-.43-.62-.37-.87l-.71-.56c0,1.89-1.14,3.59-.59,5.6h0c-5.61-4.21-11.63-7.85-17.97-10.86l-.49,1.39c2.01.86,3.95,1.9,5.78,3.09,1.87.81,3.67,1.77,5.38,2.88,7.04,4.23,12.48,10.68,15.47,18.34,0,.59.59,1.24.22,1.86-1.23-1.52-2.61-2.91-4.11-4.14-.21-2.6-1.69-4.93-3.96-6.22-.8-1.21-2.54-1.3-3.9-1.7h-19.64c-15.99-.22-30.56.49-46.4.22-2.23-.22-4.92-.99-5.57-3.31-.46-.98-.46-2.11,0-3.09.61-.92,1.64-1.48,2.75-1.48.8.23,1.47.79,1.82,1.55,0,.68-.59,1.36-.87,1.95s.28.65.65.49c.72-.34,1.24-.99,1.42-1.76,0-.37.19-.9-.19-1.18-.42-1.12-1.37-1.95-2.54-2.23-1.34-.16-2.68.3-3.65,1.24-1.13,1.24-1.46,3.01-.87,4.58,1.04,2.38,3.24,4.03,5.82,4.36l52.58.22c5.36-.26,10.74-.11,16.08.43,2.07.53,3.71,2.08,4.36,4.11h-.37c-4.64-2.79-10.11-3.88-15.47-3.09-2.06.09-4.1.51-6.03,1.24-.97.15-1.96-.17-2.66-.87-2.32-1.51-5.21-1.86-7.83-.96v.37c2.63-.22,4.21,2.07,6.59,2.35.53,0,.96-.49,1.45,0-2.41,1.26-4.91,2.32-7.49,3.19-.8-.15-1.24-.93-1.89-1.36-1.02-1.14-2.91-.65-4.3-.77-.49,0-.93-.22-1.27,0,.56.83,1.38,1.46,2.32,1.79,1.36.62,3.09,0,4.18.77-.35.3-.73.55-1.14.74-2.54.99-4.64,3.28-7.45,3.09-2.92.39-5.86-.58-7.98-2.63-.99-2.07-3.16-3.3-5.44-3.09-.19,0-.4,0-.34.4,1.21.68,2.1,2.1,3.31,2.94,1.21.84,2.2,0,2.91,1.02,1.05.74,2.24,1.25,3.5,1.52.91.36,1.85.61,2.81.77l-.37.22c-5.23,1.47-10.67,2-16.08,1.58-1.64,0-3.09-.56-4.83-.49.37.35.81.62,1.3.77-.45.25-.94.39-1.45.43-.7.1-1.38.28-2.04.53-.8.02-1.6.21-2.32.56-.87,1.02-1.92,1.86-3.09,2.51,0,.22,0,.53.22.53,1.02-.43,2.32,0,3.34-.53,1.79-.19,2.81-2.13,4.24-3.09,1.67-.96,3.66-1.2,5.51-.65,1.08.28,0,.71.22,1.42s.8.8,1.39.65c.1-.12.23-.21.37-.28.28-.41.28-.95,0-1.36.74-.49,1.79,0,2.6-.28,2.04,0,4.08-.49,6.19-.56.34,0,.71-.37,1.02,0s-.68.49-.49,1.08c.18.45.6.76,1.08.8.56-.22,1.05-.59.84-1.3s-.56-.43-.84-.59c1.14-.56,2.44-.71,3.59-1.27.78-.16,1.54-.41,2.26-.74.71,0,1.3-.71,1.95-.43-.27.91-.66,1.78-1.14,2.6-1.19,3.04-1.19,6.42,0,9.47h.34c-.9-2.93-.74-6.09.46-8.91.77-4.61,5.51-5.97,8.91-7.73l.19.22c-1.27,2.33-1.98,4.93-2.07,7.58,0,.49-.22.96,0,1.3.89-.63,1.59-1.5,2.01-2.51.37-2.44-1.02-5.51,1.45-7.3,4.24-2.17,8.86-3.52,13.61-3.96.19,0,.56,0,.59.22-1.05,1.18-2.63,2.32-3.09,3.8-1.52,2.85-1.84,6.19-.9,9.28.46,1.67-.99,2.6-1.7,3.9-.31.46-.4,1.27-.74,1.79h1.08c1.03-.93,1.68-2.21,1.82-3.59.12.52.51.94,1.02,1.08.4-.59-.31-1.02-.37-1.64.87-.46,1.24.62,1.95.84,1.07.39,2.18.64,3.31.74l.37-.37c-1.41-1.61-3.5-2.46-5.63-2.29-.93-1.92-1.26-4.07-.96-6.19.19-1.07.57-2.09,1.11-3.03.38-.78.89-1.48,1.52-2.07.95-.91,2.12-1.55,3.4-1.86h.31v.15c-1.48,1.14-1.64,2.72-2.51,4.14-1.03,1.32-1.26,3.1-.59,4.64.31.71,0,1.79.9,2.29.55-1.04.93-2.16,1.14-3.31-.15-1.79-1.24-3.5-.22-5.23.56-1.2,1.63-2.07,2.91-2.38,2.88.07,5.7.9,8.17,2.38.53.37,1.45.71,1.55,1.45-.01,2.43-1.99,4.38-4.41,4.37-.89,0-1.76-.28-2.49-.78-.81-.9-1.13-2.13-.87-3.31.53-.76,1.48-1.11,2.38-.87.53.28,1.02.8,1.73.49.27-.2.36-.56.22-.87-.62-.34-.84-1.14-1.64-1.27-1.07-.29-2.22-.06-3.09.62-1.08.94-1.56,2.41-1.24,3.8.38,1.69,1.67,3.02,3.34,3.46,2.48.69,5.13-.22,6.65-2.29.53-.69.93-1.48,1.18-2.32,2.6,1.71,4.56,4.23,5.57,7.18.11.9.11,1.82,0,2.72h1.89c-.11-.44-.05-.9.15-1.3.84-3.5,2.79-6.64,5.57-8.94.93-.53.71.71.93,1.11.9,2.07,2.72,3.61,4.92,4.14,2.14.52,4.39-.21,5.82-1.89.71-1.3,1.58-3.09.37-4.58-.74-.95-1.89-1.48-3.09-1.42-1.31.07-2.49.84-3.09,2.01,0,.43,0,.93.34,1.14s.65,0,.8-.28c0-.8.8-1.18,1.45-1.61.59-.23,1.26-.11,1.73.31.54.57.81,1.35.74,2.13-.13,1.09-.79,2.05-1.76,2.57-1.71.71-3.66.53-5.2-.49-.59-.75-1.1-1.55-1.52-2.41,0-.87-.43-1.61,0-2.51,2.34-1.47,4.98-2.39,7.73-2.69,1.13.28,2.13.91,2.88,1.79,2.47,2.54-.56,6.19,1.18,9,.65,0,.65-.96.93-1.52.44-1.92.28-3.93-.46-5.75-.51-1.14-1.2-2.18-2.04-3.09.21-.05.44-.05.65,0,1.24.75,2.35,1.7,3.28,2.81,1.65,2.66,2.38,5.79,2.1,8.91-.43,1.64-2.17,2.41-3.5,3.09-.62.45-1.13,1.05-1.48,1.73.65.4,1.58,0,2.23-.28s1.61-1.67,2.32-2.26v.31c0,.62-.28,1.42.25,1.58.24-.9.4-1.82.49-2.75.56.67.94,1.47,1.11,2.32.49.99,1.3,2.29,2.6,2.44.31-.46,0-.96-.15-1.39,0-1.36-1.3-2.07-2.07-3.09-1.89-2.6-1.02-6.68-2.47-9.62-.66-1.54-1.65-2.91-2.91-4.02l.22-.22c2.48.15,4.93.58,7.3,1.3,3.09,1.48,7.27,1.14,8.69,5.01.56,2.17,1.62,4.19,3.09,5.88h.15c.34-.63.34-1.38,0-2.01-.31-2.72-2.69-3.37-3.93-5.66l.15-.22c1.34.35,2.66.78,3.96,1.27,4.32,1.46,7.39,5.3,7.86,9.84.03,3.2-.64,6.37-1.98,9.28-.15.43-.93.93-.43,1.3.59-.43.71-1.14,1.02-1.64,1.96-3.28,2.6-7.18,1.79-10.92,0-.71-.87-1.27-.49-1.95.25.25.58.41.93.46.31-.22.8-.22,1.02-.59s.25-.71,0-.99c-.42-.41-1.02-.55-1.58-.37-.32.34-.54.76-.65,1.21-.49-1.06-1.14-2.03-1.95-2.88v-.19c2.41.84,4.64,2.01,7.11,2.66.56.38,1.21.6,1.89.62,2.18.7,4.4,1.26,6.65,1.67,1.61-.15,3.09.62,4.58.22h0c-.62-.77-1.89,0-2.6-.62-3.65-.4-7.23-1.29-10.64-2.66,0-.15.28,0,.43,0,.56-.01,1.01-.48,1-1.04-.01-.56-.48-1.01-1.04-1-.11,0-.22.02-.33.06-.34.19-.77.56-.8.93.07.47.37.86.8,1.05h-.49c-1.67-.74-3.31-1.45-4.92-2.23-.59,0-1.08-.59-1.67-.71-1.24-.59-2.47-1.18-3.71-1.67-3.56-1.61-7.23-2.98-10.98-4.08l-2.35-.9-4.05-1.08c-4.89-1.44-10.14-1-14.72,1.24-.65-.22-1.02.8-1.36.15,1.42-2.72,4.34-4.31,7.39-4.05,21.65-.22,41.97-.4,63.29-.71,2.47.17,4.84-1.01,6.19-3.09.92-1.44,1.12-3.22.53-4.83ZM88.88,93.54c-.32.58-.53,1.22-.62,1.89h-.22c.19-.84-.65-1.33-.43-2.2-.31-.71-.57-1.43-.8-2.17-.46-.87.43-1.27.8-1.86.77.34,1.05,1.02,1.58,1.7s-.37,1.61-.31,2.51v.12Z"/>
      <path class="cls-1" d="M147.43,90.1c0,.15.34.22.22.46-2.06,1.59-4.61,2.4-7.21,2.29-.22.11-.46.18-.71.19-.15,0-.22-.28,0-.4,1.98-2.17,4.95-3.14,7.83-2.54h-.12Z"/>
      <path class="cls-1" d="M138.74,90.97c.22.74-.25,1.21-.87,1.45-.52-.06-.96-.39-1.18-.87,0-.43.22-.65.37-.93.4-.4,1.04-.4,1.44,0,.1.1.18.21.23.34Z"/>
      <path class="cls-1" d="M36.11,91.06c.15.4.04.86-.28,1.14-.25.25-.61.36-.96.28-.37,0-.59-.49-.71-.8.02-.46.29-.86.71-1.05.43,0,.93,0,1.24.43Z"/>
      <path class="cls-1" d="M26.46,94.62v.37c-1.24.26-2.53-.03-3.53-.8-.66-1.16-1.65-2.11-2.85-2.72,0-.19-.34-.4,0-.49,2.69,0,4.3,2.17,6.37,3.65Z"/>
      <path class="cls-1" d="M155.66,91.03c-1.24,1.82-2.32,4.11-4.55,4.95-.37,0-.68.53-1.02,0,.91-2.25,2.62-4.09,4.79-5.17.25-.06.52-.06.77,0v.22Z"/>
      <path class="cls-1" d="M39.23,91.68c0,.59-.37.71-.74,1.02s-.65-.28-.93-.59.28-.77.56-1.05c.46-.05.91.2,1.11.62Z"/>
      <path class="cls-1" d="M162.47,92.15c-.49.71-.28,1.76-.77,2.51-1.08,1.27-1.98,2.66-3.71,3.09-.28-.53.37-1.08.65-1.58.63-1.78,1.9-3.27,3.56-4.18l.28.31v-.15Z"/>
      <path class="cls-1" d="M9.73,92.49c.23.37.23.84,0,1.21-.36.29-.84.37-1.27.22-.46-.26-.64-.82-.43-1.3.34-.49,1.3-.77,1.7,0v-.12Z"/>
      <path class="cls-1" d="M6.63,93.14c0,.28.22.49,0,.77-.15.31-.42.54-.74.65-.53.08-1.04-.21-1.24-.71-.1-.46.12-.92.53-1.14.48-.17,1.02,0,1.3.43h.15Z"/>
      <path class="cls-1" d="M13,93.48c0,.43.22,1.18-.43,1.3s-1.18-.22-1.61-.65c-.01-.46.24-.88.65-1.08.51-.12,1.04.05,1.39.43Z"/>
      <path class="cls-1" d="M21.85,94.19c0,.37,0,.93-.37,1.02s-.74,0-1.02,0-.71-.62-.37-.99c.2-.25.45-.46.74-.59.34,0,.8,0,1.02.43v.12Z"/>
      <path class="cls-1" d="M167.63,94.56c0,.37-.37.87-.8.87s-.96,0-1.24-.59.28-.93.71-1.08,1.24.22,1.33.8Z"/>
      <path class="cls-1" d="M157.67,94.84c0,.43-.43.74-.65.93-.43.37-1.07.32-1.44-.11-.37-.43-.32-1.07.11-1.44.16-.14.37-.22.58-.24.6-.04,1.17.31,1.39.87Z"/>
      <path class="cls-1" d="M164.45,94.71c0,.37-.17.71-.46.93-.44.18-.94.1-1.3-.22-.49-.43,0-.8.22-1.14s1.39-.22,1.55.43Z"/>
      <path class="cls-1" d="M8.3,95.64c.17.55-.11,1.15-.65,1.36-.51.01-.98-.3-1.18-.77-.05-.41.16-.8.53-.99.5-.13,1.03.08,1.3.53v-.12Z"/>
      <path class="cls-1" d="M155.07,96.23c.13.6-.2,1.21-.77,1.42-.43,0-.71,0-1.02-.37s-.49-.87,0-1.14c.31-.51.97-.68,1.49-.37.15.09.28.22.37.37l-.06.09Z"/>
      <path class="cls-1" d="M37.35,96.85c.22.59-.43.71-.59,1.02s-.65,0-.8,0-.59-.65-.43-1.14.37-.43.71-.53.8.37,1.11.71v-.06Z"/>
      <path class="cls-1" d="M166.67,97.22c0,.37-.22.56-.28.8-.36.26-.81.35-1.24.25-.49-.28-.49-.71-.49-1.21s.4-.49.77-.62c.54-.04,1.04.27,1.24.77Z"/>
      <path class="cls-1" d="M163.33,97.37c.22.65-.37.99-.8,1.14s-.56,0-.62.22c1.27.78,2.4,1.75,3.37,2.88v.43c-1.99.09-3.93-.65-5.35-2.04-.37-.28-1.02-.28-1.45-.65.68-.71,1.98-.43,3.09-.49.68-.77-.84-1.3,0-1.95.34,0,.56-.4.99-.28.34.16.62.42.8.74h-.03Z"/>
      <path class="cls-1" d="M141.25,97.44c0,.28-.22.59-.28.87-.3.33-.78.42-1.18.22-.28-.37-.71-.71-.56-1.24.3-.54.98-.72,1.52-.42.23.13.4.33.49.58Z"/>
      <path class="cls-1" d="M20.52,99.35c-.19.46-.4.8-.93.87-.42,0-.8-.26-.96-.65,0-.4.22-.62.25-.87.62-.49,1.67-.19,1.64.65Z"/>
      <path class="cls-1" d="M24.88,98.64c0,.74-.8,1.18-1.08,1.95-.67,1.89-2.32,3.27-4.3,3.59-.25-.49.68-1.08.9-1.58,1.05-1.67,2.52-3.04,4.27-3.96h.22Z"/>
      <path class="cls-1" d="M139.95,99.38c0,.62-.49,1.05-.93,1.27s-.87-.22-1.14-.43-.15-.87,0-1.3,1.58,0,2.01.46h.06Z"/>
      <path class="cls-1" d="M143.29,99.79c-.04.55-.43,1.02-.96,1.18,0-.15-.4,0-.56,0-.39-.18-.66-.56-.71-.99.28-.28.4-.71.77-.74s1.3,0,1.45.65v-.09Z"/>
      <path class="cls-1" d="M33.26,99.72c-.01.52-.34.98-.84,1.14-.44.01-.84-.25-1.02-.65,0-.49.37-.84.65-1.08s.8.25,1.21.59Z"/>
      <path class="cls-1" d="M37.04,99.94c-.13.48-.53.84-1.02.93-.37,0-.8-.22-.96-.65s.37-.84.74-1.08,1.14.22,1.24.8Z"/>
      <path class="cls-1" d="M154.89,103.75c.28.22.77.49.65.87-.87.4-1.55-.59-2.35-.77-1.27-1.2-2.24-2.68-2.81-4.33.46-.49,1.02,0,1.45.28,1.34,1.05,2.4,2.41,3.09,3.96h-.03Z"/>
      <path class="cls-1" d="M156.9,99.94c.17.38.17.82,0,1.21-.34.53-1.05.43-1.52.31s-.77-.74-.43-1.24.65-.56,1.02-.71.65.28,1.02.43h-.09Z"/>
      <path class="cls-1" d="M41.96,101.43c0,.43.15,1.08-.4,1.36-.54.14-1.09-.15-1.27-.68-.28-.65.31-.74.65-1.08s.68,0,1.02.4Z"/>
      <path class="cls-1" d="M143.13,104.89c.8,1.14,1.28,2.48,1.39,3.87,0,.37.28.74,0,1.02h-.19c-1.98-1.72-3.35-4.05-3.9-6.62-.2-.11-.29-.34-.22-.56.53-.49.9.49,1.45.65l1.52,1.64h-.06Z"/>
      <path class="cls-1" d="M48.98,103.03h0c-2.15,1.79-5.15,2.17-7.67.96,0,0,0-.43.28-.46,1.49-.65,3.11-.97,4.73-.93l2.6.43h.06Z"/>
      <path class="cls-1" d="M36.67,103.31c-1.86,1.14-3.53,3.37-5.78,3.93-.43,0-.71.74-1.24.43,1.22-2.82,3.95-4.69,7.02-4.79,0,0,0,.43,0,.43Z"/>
      <path class="cls-1" d="M139.95,105.76c0,.43,0,1.05-.43,1.14-.29.27-.73.27-1.02,0-.49-.22-.49-.71-.49-1.08s.53-.43.8-.59.87,0,1.14.53Z"/>
      <path class="cls-1" d="M135.46,106.03c-.43.72-1.13,1.23-1.95,1.42-1.74.33-3.54.11-5.13-.65,0-.46.62-.28.87-.56,1.79-.53,3.67-.62,5.51-.28h.71v.06Z"/>
      <path class="cls-1" d="M36.67,107.61c-.19.22-.22.71-.65.87-.37.12-.78.04-1.08-.22,0-.34-.49-.59-.22-.99s.53-.46.87-.59c.53.03.97.41,1.08.93Z"/>
      <path class="cls-1" d="M39.85,108.11c-.19.31-.34.8-.77,1.02-.4.08-.81-.06-1.08-.37-.2-.32-.26-.72-.15-1.08,0-.28.49-.34.74-.49s1.05.49,1.27.93Z"/>
      <path class="cls-1" d="M138.93,108.63c0,.39-.15.76-.4,1.05-.28.36-.79.45-1.18.22-.37,0-.49-.49-.65-.77s.22-.71.37-1.08c.54-.39,1.29-.28,1.69.26.07.1.13.21.17.33Z"/>
      <path class="cls-1" d="M141.31,108.54c0,.28.22.53,0,.74s-.53.99-1.18.71-.49-.31-.65-.43,0-1.36.65-1.45.8.25,1.08.43h.09Z"/>
      <path class="cls-1" d="M37.9,110.12c.1.55-.11,1.11-.56,1.45-.59,0-1.33,0-1.55-.59-.16-.61.11-1.25.65-1.58.59-.13,1.19.16,1.45.71Z"/>
      <path class="cls-1" d="M40.97,109.9c.1,1.65-.63,3.24-1.95,4.24-.87,0-1.7.96-2.57.43v-.28c1.42-1.55,2.93-3.02,4.52-4.39Z"/>
      <path class="cls-1" d="M130.45,111.14c.22.34-.19.59-.34.87s-.93.22-1.3,0-.43-.71-.25-1.08.43-.49.68-.62c.5.05.95.34,1.21.77v.06Z"/>
      <path class="cls-1" d="M46.32,113.8c.74,1.24.31,2.94.74,4.3-.9,0-1.3-.93-1.89-1.48-.85-1.79-1.37-3.72-1.55-5.69.11-.08.26-.08.37,0,.76.69,1.44,1.46,2.04,2.29,0,.37.34.37.28.71v-.12Z"/>
      <path class="cls-1" d="M133.14,111.57c0,.43-.49.56-.77.8-.38-.04-.74-.2-1.02-.46-.15-.56.28-.71.56-.99.45-.2.98.01,1.18.47.03.06.04.12.06.18Z"/>
      <path class="cls-1" d="M139.58,116.43s0,.46-.34.37h-.12c-1.81-1.12-2.97-3.04-3.09-5.17h.31c1.69,1.09,2.82,2.87,3.09,4.86l.15-.06Z"/>
      <path class="cls-1" d="M135.53,114.66c0,.41-.18.79-.49,1.05-.59.15-1.52,0-1.61-.71s.53-.8.8-1.08c.56-.12,1.12.2,1.3.74Z"/>
      <path class="cls-1" d="M131.97,115.81c-.77,2.01-2.81,3.09-4.24,4.58-.25-.15,0-.59,0-.8.58-2.17,2.1-3.98,4.14-4.92.87,0,0,.71.19,1.14h-.09Z"/>
      <path class="cls-1" d="M136.02,117.45c0,.49-.46.71-.74.99-.46-.03-.89-.25-1.18-.62,0-.53.37-.68.68-.96.5-.12,1.02.12,1.24.59Z"/>
      <path class="cls-1" d="M95.81,18.71c.74.02,1.33.62,1.33,1.36,0,.73-.6,1.33-1.33,1.33h-15.99c-.73,0-1.33-.6-1.33-1.33h0c0-.74.59-1.34,1.33-1.36h15.99ZM84.52,21c1.55,0,0-1.89-.77-1.89h-1.55c-1.58,0,0,1.89.74,1.89h1.58ZM91.08,21c1.55,0,0-1.89-.77-1.89h-1.55c-1.58,0,0,1.89.74,1.89h1.58ZM95.81,19.15h-.59c-1.58,0-.25,1.89.59,1.89s1.11-1.89,0-1.89Z"/>
      <path class="cls-1" d="M94.42,37.09l3.09,1.18,3.09-1.18-1.18,4.52,2.38-.49-.8,2.72.8,2.63-2.23-.71.9,4.86-3.09-1.18-3.09,1.18,1.52-4.86-2.41.68.65-2.72-.65-2.63,2.32.4-1.14-4.52-.15.12ZM98.9,45.22c.68,0,.74-.96.74-1.76,0-1.86-1.45,0-2.2-1.76-.56,1.48-2.07,0-2.07,1.7,0,1.08,0,1.82,1.08,1.82h2.44ZM95.81,43.55c0,.71.96.22,1.67.22s1.64.49,1.64-.22-.96-.68-1.64-.68-1.67-.22-1.67.68Z"/>
      <polygon class="cls-1" points="87.27 43.71 87.27 43.15 86.75 43.06 87.15 42.62 86.9 42.16 87.43 42.22 87.74 41.67 88.04 42.22 88.6 42.16 88.35 42.62 88.73 43.06 88.23 43.15 88.23 43.71 87.74 43.37 87.27 43.71 87.27 43.71"/>
      <polygon class="cls-1" points="84.89 46.77 84.89 46.21 84.36 46.09 84.77 45.69 84.52 45.22 85.04 45.28 85.38 44.73 85.69 45.28 86.22 45.22 85.97 45.69 86.37 46.09 85.85 46.21 85.85 46.77 85.38 46.4 84.89 46.77 84.89 46.77"/>
      <polygon class="cls-1" points="88.91 46.37 88.91 45.81 88.42 45.72 88.82 45.28 88.57 44.82 89.1 44.88 89.41 44.33 89.72 44.88 90.24 44.82 89.99 45.28 90.4 45.72 89.9 45.81 89.9 46.37 89.41 46.03 88.91 46.37 88.91 46.37"/>
      <polygon class="cls-1" points="89.41 48.66 89.41 48.35 89.1 48.28 89.34 48.07 89.19 47.79 89.5 47.82 89.65 47.51 89.84 47.82 90.15 47.79 89.99 48.07 90.24 48.28 89.93 48.35 89.93 48.66 89.65 48.47 89.41 48.66 89.41 48.66"/>
      <polygon class="cls-1" points="85.66 51.29 85.66 50.3 84.77 50.14 85.45 49.43 85.04 48.63 85.94 48.72 86.47 47.76 87.02 48.72 87.92 48.63 87.49 49.43 88.2 50.14 87.3 50.3 87.3 51.29 86.47 50.67 85.66 51.29 85.66 51.29"/>
      <polygon class="cls-1" points="87.55 0 89.47 4.67 94.26 3.25 91.82 7.64 95.93 10.55 90.98 11.38 91.29 16.42 87.55 13.05 83.84 16.42 84.12 11.38 79.17 10.55 83.28 7.64 80.84 3.25 85.66 4.67 87.55 0 87.55 0"/>
      <path class="cls-1" d="M70.14,104.86c-.56.22-.8.37-.65.96l.68,2.88c.17.62.11,1.28-.19,1.86-.51.6-1.21,1.01-1.98,1.18-.75.23-1.54.23-2.29,0-.63-.23-1.07-.79-1.14-1.45l-.71-3.09c-.15-.77-.43-.71-1.05-.62v-.22l3.62-.87v.22c-.71.19-1.02.28-.84,1.08l.68,3.09c.04.84.76,1.48,1.59,1.43.13,0,.26-.03.38-.07.97-.1,1.67-.97,1.57-1.94-.02-.16-.06-.32-.12-.48l-.65-2.72c-.15-.56-.34-.84-1.27-.65v-.22l2.35-.56v.22-.03Z"/>
      <path class="cls-1" d="M75.49,105.45c-.47-.9-1.48-1.39-2.47-1.18-.56,0-1.08.53-.96,1.11s.37.62,1.36.8l1.73.31c.74.12,1.35.66,1.55,1.39.15.8-.28,2.04-2.26,2.47-.64.06-1.28.06-1.92,0-.22,0-.25.22-.25.37h-.31l-.49-2.23h.31c.4,1.06,1.52,1.67,2.63,1.42,1.3-.28,1.14-1.18,1.11-1.3,0-.62-.68-.71-1.42-.84h-.8c-1.98-.34-2.17-1.11-2.26-1.52s0-1.86,1.98-2.32c.59-.06,1.18-.06,1.76,0,.25,0,.25-.22.28-.4h.31l.43,1.95h-.31v-.06Z"/>
      <path class="cls-1" d="M82.63,109l-3.93.4v-.25c.77,0,1.05,0,.96-.93l-.46-4.86c-.74,0-1.89.25-1.95,1.76h-.34v-1.86l6.53-.62v1.86h-.31c-.37-1.45-1.52-1.39-2.26-1.36l.46,4.86c0,.77.34.77,1.14.74v.22l.15.03Z"/>
      <path class="cls-1" d="M91.79,109h-2.17l-2.23-2.94h-.31v1.79c0,.74.25.77.96.9v.22h-3.71v-.25c.74,0,.96,0,.99-.84v-4.08c0-.77-.31-.8-.96-.87v-.22h3.53c.77,0,3.09,0,3.09,1.67s-1.14,1.42-1.73,1.55l2.13,2.69c.11.14.29.21.46.19v.22l-.06-.03ZM87.02,105.73c1.42,0,2.01,0,2.04-1.36.11-.64-.32-1.25-.96-1.36-.12-.02-.25-.02-.37,0-.59,0-.62,0-.68.37v2.35h-.03Z"/>
      <path class="cls-1" d="M98.9,109.96l-3.53-.46v-.22c.68,0,.87,0,.93-.25-.06-.45-.18-.89-.37-1.3l-2.44-.31c-.26.35-.48.74-.65,1.14,0,.34.49.43.87.49v.22l-2.23-.28v-.22c.62,0,.8-.31,1.21-.93l3.09-4.73h.31l1.82,5.13c.37,1.05.49,1.36,1.02,1.42v.25l-.03.03ZM95.81,107.36l-.8-2.35-1.3,2.07,2.1.28Z"/>
      <path class="cls-1" d="M105.43,111.26l-6.19-1.18v-.22c.62,0,.93,0,1.02-.46l.8-4.39c0-.62-.31-.71-.8-.84v-.22l3.8.68v.22c-.77,0-1.08,0-1.24.65l-.84,4.3c0,.43,0,.56.87.68,1.2.35,2.48-.18,3.09-1.27h.31l-.8,1.98-.03.06Z"/>
      <path class="cls-1" d="M109.57,112.19l-3.77-.8v-.22c.59,0,1.02,0,1.11-.43l.93-4.39c0-.59-.4-.71-.9-.84v-.25l3.77.8v.22c-.49,0-1.02-.19-1.14.43l-.9,4.39c0,.56.31.68.9.84v.25Z"/>
      <path class="cls-1" d="M117.24,113.15l-3.56-.34v-.25c.68,0,.87,0,.9-.28-.01-.43-.08-.86-.22-1.27l-2.47-.25c-.25.35-.45.73-.59,1.14,0,.34.46.43.84.46v.25l-2.23-.25v-.22c.62,0,.8-.31,1.21-.96l3.09-4.79h.15l1.95,5.1c.4,1.02.53,1.36,1.05,1.39v.22l-.12.03ZM114.15,110.64l-.9-2.35-1.24,2.13,2.13.22Z"/>
      <path class="cls-1" d="M89.07,38.57c0-2.2-1.24,0-1.92-2.01-.53,1.58-2.01.25-2.01,1.98-.06.47.13.94.49,1.24v.65c-.02.15.09.29.24.31.02,0,.04,0,.07,0h2.35c.17,0,.31-.14.31-.31h0v-.71c.32-.29.49-.71.46-1.14ZM87.15,39.01c-.65,0-1.52.46-1.52-.31s.74-.87,1.39-.87,1.64-.22,1.64.87-.87.31-1.52.31Z"/>
      <path class="cls-1" d="M108.4,65.82c.49-.07.83-.52.76-1.01s-.52-.83-1.01-.76c-.44.06-.77.44-.77.88.03.53.49.93,1.02.9,0,0,0,0,0,0Z"/>
      <path class="cls-1" d="M103.6,32.94c-.18.3-.34.63-.46.96-.07.26.09.53.36.6.26.07.53-.09.6-.36.02-.08.02-.16,0-.25l-.49-.96Z"/>
      <path class="cls-1" d="M71.06,32.94c-.2.3-.36.62-.49.96,0,.27.22.5.49.5s.5-.22.5-.49h0s-.49-.96-.49-.96Z"/>
      <path class="cls-1" d="M79.14,32.94c-.18.3-.34.63-.46.96-.07.26.09.53.36.6.26.07.53-.09.6-.36.02-.08.02-.16,0-.25l-.49-.96Z"/>
      <path class="cls-1" d="M87.3,32.94c-.18.3-.34.63-.46.96-.07.26.09.53.36.6.26.07.53-.09.6-.36.02-.08.02-.16,0-.25l-.49-.96Z"/>
      <path class="cls-1" d="M95.47,32.94c-.2.3-.36.62-.49.96-.07.26.09.53.36.6.26.07.53-.09.6-.36.02-.08.02-.16,0-.25l-.46-.96Z"/>
      <path class="cls-1" d="M71.06,44.14c.2.3.36.62.49.96,0,.27-.22.5-.49.5-.27,0-.5-.22-.5-.49h0s.49-.96.49-.96Z"/>
      <path class="cls-1" d="M71.06,55.03c.19.29.36.61.49.93,0,.27-.22.5-.49.5-.27,0-.5-.22-.5-.49h0s.49-.93.49-.93Z"/>
      <path class="cls-1" d="M72.3,63.63c.2.3.36.62.49.96.07.26-.09.53-.36.6s-.53-.09-.6-.36c-.02-.08-.02-.16,0-.25l.46-.96Z"/>
      <path class="cls-1" d="M79.17,68.2c.18.3.34.63.46.96.07.26-.09.53-.36.6s-.53-.09-.6-.36c-.02-.08-.02-.16,0-.25l.49-.96Z"/>
      <path class="cls-1" d="M104.04,44.14c-.2.3-.36.62-.49.96-.07.26.09.53.36.6.26.07.53-.09.6-.36.02-.08.02-.16,0-.25l-.46-.96Z"/>
      <path class="cls-1" d="M104.04,55.03c-.19.29-.36.61-.49.93-.07.26.09.53.36.6.26.07.53-.09.6-.36.02-.08.02-.16,0-.25l-.46-.93Z"/>
      <path class="cls-1" d="M102.71,63.63c-.18.3-.34.63-.46.96-.07.26.09.53.36.6.26.07.53-.09.6-.36.02-.08.02-.16,0-.25l-.49-.96Z"/>
      <path class="cls-1" d="M95.81,68.2c-.18.3-.34.63-.46.96-.07.26.09.53.36.6.26.07.53-.09.6-.36.02-.08.02-.16,0-.25l-.49-.96Z"/>
      <path class="cls-1" d="M87.55,73.06c-.18.3-.34.63-.46.96-.07.26.09.53.36.6s.53-.09.6-.36c.02-.08.02-.16,0-.25l-.49-.96Z"/>
      <path class="cls-1" d="M100.82,56.82c0,.15.37.22.68,0l.31-.87s-.34-.4-.59-.37c-.87.22-1.79.31-2.29,1.14.03.56.33,1.06.8,1.36.31,0,.37.19.56.34.07.17-.02.37-.19.44-.05.02-.1.03-.15.02-.62-.62-1.7.22-2.17-.56.22-.77.62-1.64,0-2.38,0,0,.31-.31,0-.46-.28-.71-1.05-.15-1.52-.15-.73-.05-1.44.3-1.82.93.04.3.19.57.4.77.22,0,.31,0,.37.22l-.53.31c.12.17.19.36.22.56-.37,0-.74-.34-.9-.62s0-1.11-.49-1.24l-.46.15c-.14.27-.21.57-.19.87.02.31.08.61.19.9.74.54,1.4,1.18,1.95,1.92-.46.93-.46,2.2-1.55,2.72-.25.2-.37.52-.31.84l.28.22c.65-.37,1.95-.46,1.82-1.61.24-.51.58-.97.99-1.36.48-.08.95.16,1.18.59-.15.73-.68,1.32-1.39,1.55v.4c0,.15.77.22,1.08.15.9-.56,1.24-1.58,2.01-1.92,0,.53-1.02.68-.31,1.21.46,0,1.08,0,1.39-.59-.37-.87,1.24-1.27.25-2.04,0-.77.84-1.08.77-1.92s-1.3-.84-1.55-1.61c.34-.19.75-.19,1.08,0l.06.09Z"/>
      <path class="cls-1" d="M63.36,66.23c.49-.07.83-.52.76-1.01s-.52-.83-1.01-.76c-.44.06-.77.44-.77.88.03.53.49.93,1.02.9,0,0,0,0,0,0Z"/>
      <path class="cls-1" d="M10.47,97.13c.53,0,.96-.43.96-.96s-.43-.96-.96-.96h0c-.53,0-.96.43-.96.96s.43.96.96.96h0Z"/>
      <path class="cls-1" d="M106.33,31.64h-37.64v28.77c-.17,2.47,1.02,4.84,3.09,6.19l14.45,9.28c.34.38.82.59,1.33.59.43,0,.85-.15,1.18-.43l14.69-9.28c2.08-1.35,3.26-3.72,3.09-6.19v-28.77l-.19-.15ZM105.24,60.78c0,1.96-.9,3.81-2.44,5.01l-14.17,9.03h0c-.3.26-.68.41-1.08.4-.41,0-.8-.14-1.11-.4l-14.17-9.03c-1.52-1.22-2.42-3.06-2.44-5.01v-28.12h35.42v28.12Z"/>
      <path class="cls-1" d="M92.72,73.59l.46-.22-.46.22Z"/>
      <path class="cls-1" d="M64.2,112.87l-3.56.4v-.22c.68,0,.87,0,.84-.46-.16-.42-.38-.81-.65-1.18l-2.44.31c-.17.4-.29.81-.37,1.24,0,.34.59.31.96.28v.25l-2.23.25v-.22c.59,0,.71-.49.96-1.21l1.86-5.32h.31l3.09,4.55c.62.93.84,1.21,1.36,1.14v.22l-.12-.03ZM60.61,111.08l-1.36-2.07-.77,2.35,2.13-.28Z"/>
      <path class="cls-1" d="M126.49,99.38c-.64-1.62-1.98-2.86-3.65-3.37-1.67-.49-3.47-.02-4.7,1.21-1.95,1.58-.62,4.18-.56,6.19,0,.43,0,.77-.37.99-7.83-.71-15.13-2.69-22.89-3.5-1.79-.31-3.59-.22-5.29-.59l-2.17-.22c-6.67.02-13.32.76-19.83,2.23-1.33.43-2.85.53-4.21,1.02-.96,0-1.76.56-2.69.28l-1.79.4c-.19.04-.39.04-.59,0-.87-2.23,1.73-3.59.93-5.75-.7-1.42-2.16-2.29-3.74-2.23-1.76-.15-3.44.75-4.3,2.29-1.24,2.72.31,5.54.8,8.2,0,.9.87,1.86,0,2.57-1.77-1.33-4.04-1.79-6.19-1.24-.65.31-1.86,0-2.17.65,2.5,1,5.22,1.33,7.89.96.24-.16.56-.16.8,0,.22,1.42-.28,3.31.59,4.58,1.06,1.16,2.57,1.81,4.14,1.79,4.74-.41,9.42-1.34,13.95-2.78.71,0,1.24-.43,1.98-.43,2.59-.57,5.23-.88,7.89-.93-1.06,1.47-1.83,3.13-2.26,4.89-.65,1.45,1.14,1.67,1.67,2.51-1.51.68-2.99,1.45-4.42,2.29-3.25.25-6.46.78-9.62,1.58,0,.68,1.14.46,1.24,1.18s-.65.56-1.02.84,0,.37.34.43c.31-.4,1.02,0,1.33-.49,1.08,0,2.01-.34,3.09-.37.96-.24,1.89-.62,2.75-1.11,1.14-.31,1.82-1.08,3.09-1.39,1.27-.31,3.09-.56,4.58-.65v.31c-1.24,2.01-2.54,4.08-3.8,6-.16.28-.07.64.21.8.05.03.1.05.16.06.72.17,1.48.05,2.1-.34,1.14-1.88,2.17-3.82,3.09-5.82.56-1.66,1.64-3.1,3.09-4.08.22,0,.53-.43.74,0-.98,1.18-1.84,2.46-2.57,3.8-.66,1.6-.35,3.44.8,4.73.65.53,1.61.37,2.47.43,2.1-1.08,4.79.65,6.43-1.42.96,0,1.11.99,1.67,1.52s1.89,1.21,2.81.56c0-.59-.71-1.14-1.05-1.7-.65-1.14-1.45-2.07-2.04-3.09-.35-.64-.64-1.31-.87-2.01.93.48,1.9.86,2.91,1.14,1.05.2,2.09.49,3.09.87.76.85,1.67,1.55,2.69,2.07,1.36.65,2.85.74,4.27,1.3.53,0,1.33.49,1.73,0-.22-.26-.49-.46-.8-.59-.19-.71.96-.34,1.33-.87-.12-.24-.35-.4-.62-.43-.77-.4-2.69-.56-3.09-.84-.65-.14-1.28-.34-1.89-.59-3.25,0-5.01-2.94-7.61-4.02.59-.56,1.52-.99,1.89-1.79.47-.9.47-1.98,0-2.88-.46-1.7-2.63-1.48-3.87-2.41l.15-.15c1.97-.02,3.92.24,5.82.77,5.2.68,9.99,2.66,15.47,2.75,3.09,0,6.68.19,8.14-2.72.28-1.67.62-3.37.87-5.04.65-2.72,2.44-5.23,2.17-8.23l-.53-.09ZM68.19,124.13l-.74-.71c.37-.49,1.18-.22,1.76-.53,1.46-.6,3.04-.83,4.61-.68-1.7,1.07-3.63,1.73-5.63,1.92ZM102,123.33c1.85.7,3.79,1.16,5.75,1.36,0,.74-1.48,0-1.33,1.08-1.76-.4-3.42-1.19-4.86-2.29,0,0,.22-.22.43-.15ZM51.24,100.22c.05-1.05.52-2.03,1.3-2.72,1.36-.66,2.96-.6,4.27.15.4.25.7.62.87,1.05.2.91-.13,1.85-.84,2.44h-.53c-.06-.83.04-1.66.31-2.44,0-.68-.59-.71-1.02-.99-.85-.16-1.72.04-2.41.56-.65.6-.93,1.52-.71,2.38.37.59,0,1.39.28,2.07v.22c-.86-.64-1.36-1.65-1.36-2.72h-.15ZM53.77,101.77c.8.59,1.95.34,2.91.49.21.63.11,1.32-.28,1.86-.9-.22-2.1,0-2.57-.99,0-.37-.19-.93,0-1.36h-.06ZM53.62,99.94c.15-.43,0-1.08.59-1.21s.96,0,1.02.34c-.03.64-.12,1.27-.28,1.89-.74,0-1.11-.37-1.33-1.02ZM78.92,117.39c-.2-1.81.44-3.61,1.73-4.89.74-.3,1.58-.3,2.32,0-1.39.37-3.09.68-3.5,2.47,0,.71,0,1.11.15,1.7s1.95.59,2.69,1.42c-.02.29-.2.54-.46.65-1.02-.42-2-.92-2.94-1.48v.12ZM77,121.16c1.27-.56,2.63-1.7,4.08-1.21-1.22.79-2.63,1.2-4.08,1.21ZM82.11,121.69c-.75,1.76-1.63,3.47-2.63,5.1,0,.28-.56.34-.87.4,0-.77.74-1.36,1.08-2.01.83-1.54,1.75-3.03,2.75-4.45.31.31-.34.53-.34.96ZM83.47,118.59v.22h0v-.28h.25c-.08-.03-.17-.03-.25,0v.06ZM82.97,117.14c-.87-.15-1.73-.36-2.57-.65-.56-.56,0-1.14,0-1.76.83-1.27,2.54-1.63,3.81-.79.04.03.08.05.12.08-.13,1.15-.6,2.23-1.36,3.09v.03ZM84.18,117.14c.17-.8.46-1.58.87-2.29-.09.82-.39,1.61-.87,2.29ZM84.77,112.72c-.71-.15-1.08-.96-1.82-.96.67-.17,1.37-.17,2.04,0,.28.37-.15.71-.22,1.02v-.06ZM85.42,114.36h0v-.56h0v.59-.03ZM85.42,116.86c0-.22,0-.49.15-.77s.53.22.65.4c-.17.27-.49.41-.8.37ZM86.22,113.49c.14-.71.41-1.4.8-2.01.49-.05.99.03,1.45.22,0,1.08,1.45,2.57,0,3.46-.49.25-1.18.71-1.73.25-.62-.43-.84-1.24-.53-1.92ZM90.15,111.97c0-.49.49,0,.71-.34h1.67c-.87,0-1.95,1.89-2.38.22v.12ZM92.87,112.69c-.65.22-1.14.96-1.79,1.11.36-.66,1.04-1.08,1.79-1.11ZM90.58,119.37v.37l-1.24-.99c.54-.08,1.07.17,1.36.62h-.12ZM89.13,117.67c.14-.09.32-.09.46,0h-.46ZM88.54,116.89c.22-.34.49-.8.87-.8h0c-.27.28-.6.5-.96.65l.09.15ZM87.3,116.89h-.22l.31-.31c.19,0,0,.22,0,.31h-.09ZM87.46,118.96c.71-.74,1.36.43,1.64,1.05.8,1.18,2.91,2.26,2.1,3.9-1.05.93-2.66,0-3.8.77-.59,0-1.61,0-1.92-.49.5-1.8,1.16-3.55,1.98-5.23ZM85.94,120.02l.28-.43c-.47,1.35-1.07,2.66-1.79,3.9-.31-1.3,1.05-2.32,1.52-3.46ZM88.32,126.17c-1.02,0-2.6.65-3.56-.22,0-.43-.43-.65-.37-1.08.87-.34,1.61.68,2.41,0,1.26-.09,2.52-.09,3.77,0,.62.19,1.52-.96,1.64.19-.43,1.79-2.6.53-3.9,1.08v.03ZM91.42,118.35v-.19h0v.19ZM91.76,121.75c0,.56.59.77.28,1.27-.26-.37-.36-.83-.28-1.27ZM93.27,125.03h-.28c-.28-.22-.15-.8,0-1.14.31.28.59.68.37,1.05l-.09.09ZM95.96,126.33c0,.15-.34.15-.43,0-1.38-1.97-2.51-4.1-3.37-6.34h.22c1.3,2.13,2.32,4.45,3.62,6.53l-.03-.19ZM97.97,121.32c-.04.07-.04.15,0,.22-1.43-.05-2.8-.6-3.87-1.55v-.28c1.42.31,2.77.9,3.96,1.73l-.09-.12ZM96.55,114.11c.65,0,.71.87.77,1.39-.01,1.18-.75,2.24-1.86,2.66-.65.35-1.4.42-2.1.22,1.35.08,2.62-.63,3.25-1.82v-2.44h-.06ZM95.38,113.86c.25.77.74,1.48.46,2.41-.28.93-1.61,1.02-2.57,1.24-.45.05-.89-.08-1.24-.37.02-.21-.06-.41-.22-.56.15-.68-1.27-1.39-.28-2.01.99-.62,2.91-2.66,3.84-.71ZM122.81,109.9c-.43.56,0,1.42-.62,1.92,0,.96-.8,1.45-1.52,1.82-6.4,1.42-12.74-.74-18.93-1.82-9.14-2.13-18.63-2.27-27.84-.43-4.11.75-8.18,1.71-12.19,2.88-2.5.54-5.08.54-7.58,0-1.92-.93-1.11-3.43-1.7-5.17-.08-1.25-.22-2.5-.43-3.74-.19-.45-.27-.94-.22-1.42.8,0,1.61.71,2.47.93,4.32.38,8.67-.08,12.81-1.36,4.08-.91,8.21-1.55,12.37-1.92,4.83-.26,9.67-.09,14.48.49,1.48,0,2.78.43,4.24.56,3.09.37,5.85,1.18,8.94,1.42.53.12,1.07.2,1.61.25,4.86.77,10.3,2.13,14.94,0-.22,1.91-.57,3.8-1.05,5.66l.22-.06ZM121.3,103.28c0,.87-.77.65-1.21.96h-1.3c-.13-.5-.13-1.02,0-1.52.91.06,1.8.25,2.66.56h-.15ZM120.68,101.92c.62-.62,0-4.02,1.52-1.79,0,.43,0,1.08-.37,1.39s-.71.68-1.14.4ZM125.1,101.43c-.41.97-1.28,1.67-2.32,1.86,0-1.3,1.24-2.23.8-3.71-.83-.99-2.15-1.42-3.4-1.08-.49.34-.28.87-.43,1.36l-.22,1.79c-1.08,0-1.14-.96-1.45-1.73-.03-1.18.62-2.27,1.67-2.81.98-.47,2.12-.47,3.09,0,.74.09,1.4.51,1.79,1.14.8.77.59,2.13.43,3.09l.03.09Z"/>
      <path class="cls-1" d="M212.27,57.16h-8.41l-.99,2.32c-.29.59-.46,1.23-.49,1.89-.05.61.27,1.19.8,1.48.74.28,1.53.43,2.32.43v.65h-7.92v-.65c.81-.1,1.56-.47,2.13-1.05.83-1.11,1.51-2.33,2.01-3.62l8.54-19.05h.34l8.6,19.52c.46,1.28,1.14,2.46,2.01,3.5.47.4,1.06.63,1.67.65v.65h-11.54v-.65h.46c.68.06,1.35-.08,1.95-.4.27-.18.42-.48.4-.8.03-.22.03-.43,0-.65,0,0-.22-.56-.56-1.3l-1.24-3.09-.09.19ZM211.65,55.86l-3.53-8.2-3.65,8.2h7.18Z"/>
      <path class="cls-1" d="M237.45,47.51v12.84c-.08.8.04,1.61.34,2.35.38.38.89.59,1.42.59v.65h-6.68v-2.2c-.65.82-1.45,1.51-2.35,2.04-.81.44-1.71.66-2.63.65-.9,0-1.77-.3-2.47-.87-.67-.5-1.18-1.19-1.45-1.98-.3-1.31-.43-2.65-.37-3.99v-6.53c.1-.78-.02-1.57-.34-2.29-.37-.39-.88-.61-1.42-.62v-.65h6.68v11.23c-.08.75-.08,1.51,0,2.26.1.3.29.57.53.77.25.18.56.27.87.25.4,0,.8-.1,1.14-.31.66-.52,1.22-1.15,1.67-1.86v-8.78c.08-.78-.04-1.57-.34-2.29-.38-.38-.89-.6-1.42-.62v-.65h6.84Z"/>
      <path class="cls-1" d="M250.69,47.05l.28,5.6h-.49c-.49-1.29-1.26-2.45-2.26-3.4-.63-.55-1.43-.86-2.26-.9-.46-.01-.91.17-1.24.49-.32.27-.5.67-.49,1.08,0,.34.11.67.34.93.94.93,1.98,1.76,3.09,2.47,1.33.8,2.48,1.85,3.4,3.09.56.8.85,1.75.84,2.72-.02.94-.26,1.86-.71,2.69-.42.85-1.09,1.55-1.92,2.01-.84.47-1.79.72-2.75.71-1.06-.09-2.11-.34-3.09-.74-.22-.12-.46-.19-.71-.22-.37,0-.71.31-.96.9h-.56l-.28-5.91h.62c.39,1.33,1.13,2.54,2.13,3.5.72.67,1.65,1.07,2.63,1.14.51.02,1-.17,1.36-.53.36-.31.56-.76.56-1.24,0-.53-.18-1.05-.53-1.45-.71-.71-1.5-1.35-2.35-1.89-1.27-.8-2.45-1.74-3.5-2.81-.72-.87-1.13-1.96-1.14-3.09,0-1.26.46-2.49,1.3-3.43.96-1.06,2.35-1.63,3.77-1.55.91,0,1.8.22,2.6.65.23.16.5.26.77.28.16.05.33.05.49,0,.24-.23.45-.49.62-.77l.43-.34Z"/>
      <path class="cls-1" d="M259.38,41.51v6h3.9v1.73h-3.9v10.15c-.07.61-.07,1.22,0,1.82.09.27.25.5.46.68.18.14.39.22.62.25.77,0,1.48-.59,2.17-1.73l.53.37c-.56,2.03-2.38,3.47-4.49,3.53-.96.03-1.9-.28-2.66-.87-.65-.49-1.13-1.17-1.36-1.95-.17-1.02-.23-2.06-.19-3.09v-9.16h-2.13v-.59c1.38-.96,2.64-2.07,3.77-3.31,1.04-1.17,1.95-2.46,2.69-3.84h.59Z"/>
      <path class="cls-1" d="M271.29,47.51v3.71c.73-1.29,1.71-2.43,2.88-3.34.67-.54,1.49-.84,2.35-.87.59-.02,1.16.2,1.58.62.41.47.62,1.08.59,1.7.05.66-.16,1.32-.59,1.82-.33.41-.83.65-1.36.65-.59.02-1.17-.19-1.61-.59l-.8-.68c-.13-.03-.27-.03-.4,0-.36,0-.71.14-.99.37-.5.46-.88,1.05-1.08,1.7-.38,1.22-.57,2.49-.56,3.77v4.83c-.07.42-.07.85,0,1.27.12.3.34.55.62.71.45.16.92.25,1.39.25v.65h-8.72v-.65c.55.02,1.07-.2,1.45-.59.34-.83.46-1.74.37-2.63v-9.22c.08-.6.08-1.2,0-1.79-.08-.3-.27-.56-.53-.74-.37-.18-.77-.28-1.18-.31v-.65h6.59Z"/>
      <path class="cls-1" d="M287.59,61.49c-1.42,1.5-3.33,2.45-5.38,2.66-.87.03-1.71-.31-2.32-.93-.61-.6-.95-1.43-.93-2.29.02-1.31.6-2.54,1.61-3.37,2.15-1.65,4.51-3.01,7.02-4.02v-1.61c.06-.78-.01-1.56-.22-2.32-.15-.36-.41-.67-.74-.87-.38-.25-.82-.38-1.27-.37-.67-.02-1.33.16-1.89.53-.25.17-.41.44-.43.74.05.35.23.67.49.9.39.39.62.91.65,1.45,0,.57-.23,1.11-.65,1.48-.45.42-1.06.63-1.67.59-.68.02-1.34-.21-1.86-.65-.47-.39-.74-.97-.74-1.58.03-.9.39-1.76,1.02-2.41.75-.83,1.71-1.44,2.78-1.76,1.2-.41,2.45-.61,3.71-.62,1.31-.07,2.6.29,3.68,1.02.81.51,1.43,1.25,1.79,2.13.2,1.11.28,2.24.25,3.37v6.37c-.03.47-.03.95,0,1.42.05.17.14.32.28.43.13.04.27.04.4,0,.31,0,.62-.22.93-.65l.53.43c-.48.74-1.1,1.38-1.82,1.89-.64.4-1.38.61-2.13.59-.79.05-1.56-.18-2.2-.65-.56-.53-.9-1.24-.96-2.01l.06.09ZM287.59,60.22v-5.51c-1.21.67-2.26,1.59-3.09,2.69-.43.54-.67,1.2-.68,1.89-.01.54.2,1.05.59,1.42.3.35.75.53,1.21.49.77-.09,1.49-.44,2.04-.99h-.06Z"/>
      <path class="cls-1" d="M301.94,40.12v20.42c-.07.77.07,1.53.4,2.23.44.38,1,.56,1.58.53v.65h-8.85v-.65c.6.03,1.18-.2,1.61-.62.3-.67.42-1.41.34-2.13v-17.01c.09-.75-.05-1.5-.4-2.17-.41-.4-.97-.62-1.55-.59v-.65h6.87Z"/>
      <path class="cls-1" d="M309.46,39.56c.72-.01,1.42.28,1.92.8,1.15.97,1.3,2.69.33,3.84-.97,1.15-2.69,1.3-3.84.33-.12-.1-.23-.21-.33-.33-1.04-1.07-1.04-2.77,0-3.84.5-.52,1.2-.81,1.92-.8ZM311.9,47.51v13.02c-.07.77.07,1.53.4,2.23.44.38,1,.56,1.58.53v.65h-8.85v-.65c.6.03,1.18-.2,1.61-.62.33-.66.46-1.4.37-2.13v-9.59c.09-.77-.07-1.55-.43-2.23-.42-.38-.98-.58-1.55-.56v-.65h6.87Z"/>
      <path class="cls-1" d="M323.47,61.49c-1.42,1.49-3.33,2.44-5.38,2.66-.88.04-1.74-.3-2.35-.93-.61-.6-.95-1.43-.93-2.29.03-1.3.61-2.53,1.61-3.37,2.16-1.65,4.53-3,7.05-4.02v-1.61c.06-.78-.01-1.56-.22-2.32-.15-.36-.41-.67-.74-.87-.38-.25-.82-.38-1.27-.37-.67-.03-1.33.15-1.89.53-.27.15-.44.43-.46.74.06.34.24.66.49.9.4.38.65.9.68,1.45,0,.57-.23,1.11-.65,1.48-.46.41-1.06.62-1.67.59-.68.02-1.34-.21-1.86-.65-.47-.39-.74-.97-.74-1.58.03-.9.38-1.75.99-2.41.77-.82,1.74-1.43,2.81-1.76,1.19-.41,2.45-.62,3.71-.62,1.31-.07,2.6.29,3.68,1.02.8.51,1.42,1.25,1.76,2.13.23,1.11.32,2.24.25,3.37v6.37c-.05.47-.05.95,0,1.42.05.17.14.32.28.43.13.05.27.05.4,0,.31,0,.59-.22.93-.65l.53.43c-.48.74-1.1,1.38-1.82,1.89-.64.4-1.38.61-2.13.59-.79.05-1.56-.18-2.2-.65-.56-.53-.9-1.24-.96-2.01l.09.09ZM323.47,60.22v-5.51c-1.21.67-2.26,1.59-3.09,2.69-.43.54-.67,1.2-.68,1.89,0,.53.19,1.04.56,1.42.32.34.77.52,1.24.49.77-.09,1.49-.44,2.04-.99h-.06Z"/>
      <path class="cls-1" d="M337.64,47.51v2.13c.7-.79,1.52-1.46,2.44-1.98.75-.43,1.61-.66,2.47-.65.97-.03,1.91.29,2.66.9.69.56,1.18,1.33,1.39,2.2.24,1.26.33,2.55.28,3.84v6.4c-.08.8.04,1.61.34,2.35.39.38.91.6,1.45.59v.65h-8.32v-.65c.54-.02,1.04-.31,1.33-.77.28-.68.39-1.43.31-2.17v-7.3c.08-.84.08-1.69,0-2.54-.1-.32-.29-.6-.56-.8-.23-.21-.53-.32-.84-.31-.99,0-1.95.71-2.81,2.17v8.78c-.08.79.04,1.59.34,2.32.32.38.8.61,1.3.62v.65h-8.54v-.65c.56,0,1.1-.24,1.48-.65.28-.73.38-1.51.31-2.29v-9.28c.09-.78-.04-1.58-.37-2.29-.37-.39-.88-.61-1.42-.62v-.65h6.74Z"/>
      <path class="cls-1" d="M380.97,39.56v8.38h-.59c-.63-2.09-1.88-3.94-3.59-5.29-1.46-1.17-3.27-1.8-5.13-1.79-1.61-.06-3.19.48-4.42,1.52-1.26,1.09-2.15,2.55-2.54,4.18-.47,1.8-.71,3.65-.71,5.51-.01,2.06.3,4.1.93,6.06.4,1.53,1.32,2.88,2.6,3.8,1.27.82,2.76,1.24,4.27,1.21.59,0,1.18-.06,1.76-.19.63-.14,1.25-.32,1.86-.56v-4.95c.04-.6-.02-1.21-.19-1.79-.26-.32-.62-.54-1.02-.62-.44-.25-.95-.36-1.45-.34h-.62v-.65h11.57v.65c-.64,0-1.27.13-1.86.37-.37.19-.66.51-.8.9-.08.53-.08,1.08,0,1.61v4.95c-1.52.69-3.1,1.2-4.73,1.55-1.69.35-3.41.53-5.13.53-1.92.05-3.83-.26-5.63-.93-1.43-.59-2.76-1.4-3.93-2.41-1.1-.95-2.01-2.1-2.66-3.4-.85-1.68-1.27-3.53-1.24-5.41-.07-3.42,1.3-6.71,3.77-9.06,2.52-2.49,5.96-3.83,9.5-3.71,1.04,0,2.07.09,3.09.28.85.21,1.69.47,2.51.8.66.29,1.34.51,2.04.65.33,0,.65-.11.9-.34.42-.4.72-.92.87-1.48h.59Z"/>
      <path class="cls-1" d="M392.38,47.02c1.4,0,2.77.38,3.96,1.11,1.22.73,2.2,1.81,2.81,3.09.64,1.4.97,2.92.96,4.45.08,2.1-.55,4.16-1.79,5.85-1.37,1.88-3.59,2.94-5.91,2.85-2.21.11-4.33-.86-5.69-2.6-1.33-1.73-2.04-3.85-2.01-6.03-.05-2.23.67-4.42,2.04-6.19,1.34-1.73,3.44-2.71,5.63-2.63v.09ZM392.38,48.28c-.59,0-1.15.24-1.55.68-.55.78-.84,1.71-.84,2.66-.17,1.84-.24,3.69-.22,5.54,0,1.17.08,2.34.25,3.5.08.7.37,1.36.84,1.89.37.41.9.65,1.45.65.47.03.94-.13,1.3-.43.48-.44.8-1.03.93-1.67.29-2.24.4-4.49.34-6.74.05-1.37-.06-2.74-.34-4.08-.15-.63-.5-1.19-.99-1.61-.33-.26-.75-.4-1.18-.37h0Z"/>
      <path class="cls-1" d="M407.85,64.31l-5.54-12.74c-.38-1.03-.9-2.01-1.55-2.91-.33-.32-.75-.54-1.21-.62v-.65h8.66v.65c-.4-.06-.8.06-1.11.31-.27.22-.43.55-.43.9.13.85.39,1.67.77,2.44l2.72,6.19,2.13-5.32c.47-.98.78-2.02.93-3.09.02-.34-.13-.66-.4-.87-.39-.29-.87-.43-1.36-.4v-.65h5.35v.65c-.47.07-.91.28-1.27.59-.61.85-1.1,1.79-1.45,2.78l-5.41,12.74h-.84Z"/>
      <path class="cls-1" d="M429.87,55.03h-9c.01,1.87.63,3.68,1.76,5.17.68.92,1.76,1.46,2.91,1.45.68,0,1.34-.19,1.92-.56.73-.6,1.35-1.32,1.82-2.13l.59.37c-.63,1.52-1.64,2.85-2.94,3.87-1.1.76-2.41,1.16-3.74,1.14-2.21.11-4.3-.96-5.51-2.81-1.06-1.68-1.59-3.64-1.52-5.63-.13-2.38.65-4.71,2.2-6.53,1.3-1.54,3.21-2.43,5.23-2.44,1.67,0,3.26.76,4.3,2.07,1.38,1.76,2.09,3.95,1.98,6.19v-.15ZM425.57,53.85c.04-1.3-.06-2.59-.31-3.87-.16-.62-.49-1.18-.96-1.61-.29-.21-.63-.32-.99-.31-.62.02-1.18.36-1.48.9-.75,1.31-1.1,2.8-1.02,4.3v.59h4.76Z"/>
      <path class="cls-1" d="M437.58,47.51v3.71c.73-1.29,1.71-2.43,2.88-3.34.67-.53,1.49-.84,2.35-.87.59-.02,1.16.2,1.58.62.42.46.63,1.08.59,1.7.05.66-.16,1.32-.59,1.82-.33.41-.83.65-1.36.65-.59.01-1.17-.2-1.61-.59l-.8-.68c-.13-.03-.27-.03-.4,0-.36,0-.71.14-.99.37-.5.46-.88,1.05-1.08,1.7-.38,1.22-.57,2.49-.56,3.77v4.83c-.07.42-.07.85,0,1.27.12.3.34.55.62.71.45.16.92.25,1.39.25v.65h-8.88v-.65c.55.02,1.08-.19,1.45-.59.34-.83.46-1.74.37-2.63v-9.22c.08-.6.08-1.2,0-1.79-.08-.3-.27-.56-.53-.74-.37-.18-.77-.28-1.18-.31v-.65h6.74Z"/>
      <path class="cls-1" d="M452.7,47.51v2.13c.69-.79,1.5-1.46,2.41-1.98.76-.43,1.63-.65,2.51-.65.97-.03,1.91.29,2.66.9.67.58,1.15,1.34,1.39,2.2.24,1.26.33,2.55.28,3.84v6.4c-.08.8.04,1.61.34,2.35.37.39.89.6,1.42.59v.65h-8.29v-.65c.54-.03,1.04-.32,1.33-.77.25-.69.35-1.43.28-2.17v-7.3c.05-.85,0-1.7-.15-2.54-.07-.32-.26-.61-.53-.8-.23-.21-.53-.32-.84-.31-1.02,0-1.95.71-2.81,2.17v8.78c-.08.79.04,1.59.34,2.32.3.39.77.62,1.27.62v.65h-8.29v-.65c.56,0,1.1-.24,1.48-.65.26-.73.35-1.51.28-2.29v-9.28c.1-.78-.02-1.57-.34-2.29-.37-.39-.89-.61-1.42-.62v-.65h6.68Z"/>
      <path class="cls-1" d="M471.73,47.51v2.17c.7-.82,1.53-1.51,2.47-2.04.78-.41,1.65-.62,2.54-.62,1.98-.11,3.78,1.18,4.3,3.09.76-.91,1.67-1.69,2.69-2.29.82-.46,1.75-.7,2.69-.71.97-.05,1.93.24,2.72.8.65.5,1.14,1.19,1.39,1.98.33,1.25.46,2.54.4,3.84v6.71c-.08.8.04,1.61.34,2.35.38.37.89.58,1.42.59v.65h-8.48v-.65c.59,0,1.14-.29,1.48-.77.28-.69.39-1.43.31-2.17v-7.15c.04-.93-.02-1.87-.19-2.78-.06-.36-.26-.68-.56-.9-.25-.19-.55-.29-.87-.28-.55.02-1.08.21-1.52.56-.62.45-1.15,1.01-1.58,1.64v8.82c-.08.76.03,1.52.31,2.23.36.49.94.76,1.55.71v.65h-8.51v-.65c.39,0,.77-.12,1.08-.34.24-.18.43-.43.53-.71.07-.63.07-1.26,0-1.89v-7.05c.08-.93.08-1.86,0-2.78-.11-.35-.33-.67-.62-.9-.24-.21-.55-.32-.87-.31-.46,0-.91.13-1.3.37-.67.52-1.26,1.15-1.73,1.86v8.82c-.06.78.04,1.56.31,2.29.36.42.9.66,1.45.65v.65h-8.44v-.65c.56,0,1.08-.24,1.45-.65.29-.73.4-1.51.31-2.29v-9.28c.08-.78-.04-1.57-.34-2.29-.38-.38-.89-.6-1.42-.62v-.65h6.65Z"/>
      <path class="cls-1" d="M507.2,55.03h-9c0,1.86.61,3.68,1.73,5.17.7.92,1.79,1.46,2.94,1.45.67,0,1.33-.19,1.89-.56.75-.58,1.38-1.31,1.86-2.13l.59.37c-.64,1.51-1.65,2.84-2.94,3.87-1.1.76-2.41,1.16-3.74,1.14-2.22.12-4.33-.95-5.54-2.81-1.04-1.69-1.55-3.65-1.48-5.63-.13-2.38.65-4.71,2.2-6.53,1.3-1.54,3.21-2.43,5.23-2.44,1.67,0,3.25.77,4.3,2.07,1.38,1.76,2.09,3.95,1.98,6.19v-.15ZM502.9,53.85c.04-1.3-.06-2.59-.31-3.87-.16-.62-.49-1.18-.96-1.61-.29-.21-.64-.32-.99-.31-.62,0-1.19.35-1.48.9-.75,1.31-1.1,2.8-1.02,4.3v.59h4.76Z"/>
      <path class="cls-1" d="M514.63,47.51v2.13c.68-.8,1.5-1.47,2.41-1.98.76-.43,1.63-.65,2.51-.65.96-.03,1.89.29,2.63.9.69.57,1.19,1.33,1.42,2.2.24,1.26.33,2.55.28,3.84v6.4c-.08.8.04,1.61.34,2.35.37.39.89.6,1.42.59v.65h-8.29v-.65c.54-.03,1.04-.32,1.33-.77.25-.69.35-1.43.28-2.17v-7.3c.03-.85-.02-1.7-.15-2.54-.07-.33-.27-.62-.56-.8-.22-.2-.51-.31-.8-.31-1.02,0-1.95.71-2.81,2.17v8.78c-.08.79.04,1.59.34,2.32.3.39.77.62,1.27.62v.65h-8.29v-.65c.56,0,1.08-.24,1.45-.65.29-.73.4-1.51.31-2.29v-9.28c.08-.78-.04-1.57-.34-2.29-.38-.38-.89-.6-1.42-.62v-.65h6.68Z"/>
      <path class="cls-1" d="M532.63,41.51v6h3.9v1.73h-3.9v10.15c-.07.61-.07,1.22,0,1.82.09.27.25.5.46.68.18.14.39.23.62.25.74,0,1.48-.59,2.17-1.73l.53.37c-.55,2.02-2.36,3.45-4.45,3.53-.96.04-1.9-.27-2.66-.87-.65-.5-1.13-1.18-1.39-1.95-.13-1.03-.18-2.06-.15-3.09v-9.16h-2.13v-.59c1.37-.96,2.63-2.07,3.74-3.31,1.06-1.16,1.98-2.45,2.72-3.84h.56Z"/>
      <rect class="cls-1" x="197.58" y="79.71" width="402.02" height="2.97"/>
      <path class="cls-1" d="M218.95,96.48v7.52h-.62c-.34-1.75-1.25-3.34-2.6-4.52-1.22-1.02-2.77-1.57-4.36-1.55-1.33,0-2.62.39-3.71,1.14-1.11.77-1.97,1.84-2.47,3.09-.73,1.72-1.11,3.57-1.11,5.44-.02,1.79.23,3.57.74,5.29.41,1.38,1.23,2.6,2.35,3.5,1.17.85,2.6,1.28,4.05,1.21,1.29.01,2.57-.3,3.71-.9,1.39-.8,2.62-1.85,3.62-3.09v1.86c-1.08,1.16-2.37,2.09-3.8,2.75-1.46.58-3.03.87-4.61.84-2.14.04-4.26-.43-6.19-1.36-1.7-.88-3.11-2.24-4.05-3.9-.95-1.69-1.45-3.6-1.45-5.54,0-2.07.55-4.1,1.61-5.88,1.04-1.81,2.56-3.3,4.39-4.3,1.77-1.03,3.77-1.58,5.82-1.61,1.66.03,3.29.37,4.83.99.59.29,1.21.49,1.86.59.33,0,.64-.13.87-.37.3-.33.47-.76.49-1.21h.65Z"/>
      <path class="cls-1" d="M224.15,96.48c1.35-.02,2.46,1.06,2.47,2.41,0,.02,0,.04,0,.06,0,.65-.25,1.27-.71,1.73-.47.46-1.1.72-1.76.71-1.35,0-2.44-1.09-2.44-2.44h0c0-.66.25-1.29.71-1.76.46-.46,1.08-.71,1.73-.71ZM226.4,103.68v11.82c-.08.7.04,1.41.34,2.04.4.35.92.52,1.45.49v.56h-8.07v-.56c.56.02,1.09-.19,1.48-.59.28-.61.39-1.28.31-1.95v-8.69c.08-.69-.05-1.39-.37-2.01-.39-.36-.9-.55-1.42-.53v-.59h6.28Z"/>
      <path class="cls-1" d="M235.59,119.06l-5.04-11.44c-.35-.94-.82-1.83-1.39-2.66-.3-.3-.69-.5-1.11-.56v-.59h7.95v.59c-.33-.08-.68-.03-.99.12-.25.2-.4.51-.4.84.12.78.36,1.53.71,2.23l2.44,5.6,1.98-4.86c.44-.92.72-1.9.84-2.91.01-.31-.12-.61-.37-.8-.36-.26-.79-.39-1.24-.37v-.59h4.86v.59c-.43.05-.83.24-1.14.53-.55.78-1,1.64-1.33,2.54l-5.01,11.75h-.74Z"/>
      <path class="cls-1" d="M248.8,96.48c.66-.01,1.3.25,1.76.71.46.47.72,1.1.71,1.76,0,.66-.26,1.28-.74,1.73-.96.94-2.5.94-3.46,0-.46-.46-.71-1.08-.71-1.73,0-.66.25-1.29.71-1.76.46-.46,1.08-.72,1.73-.71ZM251.03,103.68v11.82c-.08.7.05,1.41.37,2.04.4.35.92.52,1.45.49v.56h-8.07v-.56c.56.02,1.09-.19,1.48-.59.28-.61.39-1.28.31-1.95v-8.69c.08-.69-.05-1.39-.37-2.01-.39-.36-.9-.55-1.42-.53v-.59h6.25Z"/>
      <path class="cls-1" d="M259.75,96.97v18.56c-.08.7.05,1.41.37,2.04.4.35.92.52,1.45.49v.56h-8.01v-.56c.56.02,1.09-.19,1.48-.59.28-.61.39-1.28.31-1.95v-15.47c.08-.68-.05-1.37-.37-1.98-.39-.36-.9-.55-1.42-.53v-.59h6.19Z"/>
      <path class="cls-1" d="M281.96,112.44h-7.64l-.9,2.1c-.27.55-.43,1.15-.46,1.76-.03.55.26,1.07.74,1.33.67.25,1.39.37,2.1.37v.59h-7.18v-.59c.73-.08,1.41-.42,1.92-.96.76-.94,1.38-1.98,1.86-3.09l7.73-17.26h.28l7.83,17.72c.44,1.12,1.06,2.17,1.82,3.09.43.35.96.55,1.52.56v.59h-10.45v-.59h.43c.61.06,1.22-.05,1.76-.34.25-.16.39-.45.37-.74.03-.19.03-.39,0-.59,0,0-.19-.49-.49-1.18l-1.14-2.72-.09-.06ZM281.4,111.26l-3.09-7.45-3.31,7.45h6.4Z"/>
      <path class="cls-1" d="M295.57,119.06l-4.89-11.44c-.36-.94-.84-1.84-1.42-2.66-.29-.3-.67-.49-1.08-.56v-.59h7.92v.59c-.36-.04-.73.06-1.02.28-.23.21-.37.52-.37.84.1.78.33,1.53.68,2.23l2.47,5.6,1.95-4.86c.44-.92.72-1.9.84-2.91.03-.31-.1-.61-.34-.8-.37-.26-.82-.39-1.27-.37v-.59h4.89v.59c-.43.05-.83.23-1.14.53-.57.78-1.02,1.63-1.36,2.54l-5.1,11.6h-.74Z"/>
      <path class="cls-1" d="M308.96,96.48c1.35-.02,2.46,1.06,2.47,2.41,0,.02,0,.04,0,.06,0,.66-.26,1.28-.74,1.73-.46.46-1.08.71-1.73.71-.66,0-1.29-.25-1.76-.71-.46-.46-.71-1.08-.71-1.73-.02-1.35,1.06-2.46,2.41-2.47.02,0,.04,0,.06,0ZM311.19,103.68v11.82c-.08.7.05,1.41.37,2.04.39.35.9.52,1.42.49v.56h-8.04v-.56c.55.02,1.08-.19,1.45-.59.3-.6.42-1.28.34-1.95v-8.69c.08-.69-.05-1.39-.37-2.01-.39-.35-.9-.54-1.42-.53v-.59h6.25Z"/>
      <path class="cls-1" d="M322.05,116.4c-1.29,1.36-3.02,2.22-4.89,2.41-1.57.14-2.95-1.02-3.08-2.59-.01-.12-.01-.24,0-.35.01-1.19.54-2.32,1.45-3.09,1.96-1.48,4.12-2.7,6.4-3.62v-1.55c.05-.71-.02-1.42-.19-2.1-.14-.33-.38-.6-.68-.77-.34-.22-.74-.34-1.14-.34-.61-.02-1.21.14-1.73.46-.25.14-.4.4-.4.68.05.31.2.59.43.8.35.36.57.83.62,1.33,0,.52-.2,1.01-.59,1.36-.42.36-.96.55-1.52.53-.62.02-1.23-.19-1.7-.59-.41-.36-.64-.88-.65-1.42,0-.82.32-1.61.9-2.2.69-.75,1.56-1.31,2.54-1.61,1.08-.37,2.22-.56,3.37-.56,1.19-.06,2.37.25,3.37.9.72.47,1.28,1.15,1.61,1.95.2,1.02.27,2.06.22,3.09v5.78c-.05.43-.05.87,0,1.3.03.14.11.27.22.37.12.04.25.04.37,0,.28,0,.56-.19.87-.59l.46.37c-.43.69-1,1.28-1.67,1.73-.58.35-1.24.53-1.92.53-.71.05-1.41-.16-1.98-.59-.53-.47-.85-1.12-.9-1.82l.22.19ZM322.05,115.25v-5.01c-1.11.62-2.09,1.45-2.88,2.44-.38.5-.59,1.11-.62,1.73,0,.48.19.95.53,1.3.3.29.7.45,1.11.43.7-.08,1.36-.39,1.86-.9Z"/>
      <path class="cls-1" d="M334.63,98.33v5.44h3.53v1.58h-3.53v9.28c-.05.56-.05,1.11,0,1.67.09.24.24.45.43.62.17.12.36.19.56.22.71,0,1.36-.53,1.98-1.58l.46.34c-.56,1.84-2.25,3.09-4.18,3.09-.87.03-1.72-.24-2.41-.77-.59-.44-1.04-1.06-1.27-1.76-.09-.98-.09-1.96,0-2.94v-8.26h-1.95v-.56c1.26-.89,2.42-1.93,3.43-3.09.87-1.02,1.64-2.11,2.29-3.28h.65Z"/>
      <path class="cls-1" d="M343.26,96.48c1.35-.02,2.46,1.06,2.47,2.41,0,.02,0,.04,0,.06,0,.66-.26,1.28-.74,1.73-.96.94-2.5.94-3.46,0-.46-.46-.71-1.08-.71-1.73,0-.66.25-1.29.71-1.76.46-.46,1.08-.72,1.73-.71ZM345.52,103.68v11.82c-.08.7.04,1.41.34,2.04.4.35.92.52,1.45.49v.56h-8.07v-.56c.56.03,1.1-.19,1.48-.59.28-.61.39-1.28.31-1.95v-8.69c.08-.69-.05-1.39-.37-2.01-.39-.36-.9-.55-1.42-.53v-.59h6.28Z"/>
      <path class="cls-1" d="M354.77,103.25c1.27,0,2.52.34,3.62.99,1.12.68,2.01,1.68,2.54,2.88.59,1.27.89,2.65.87,4.05.07,1.89-.5,3.76-1.61,5.29-1.22,1.72-3.24,2.7-5.35,2.6-2.01.11-3.95-.77-5.2-2.35-2.44-3.29-2.44-7.79,0-11.07,1.22-1.57,3.12-2.45,5.1-2.38h.03ZM354.77,104.36c-.54,0-1.05.24-1.39.65-.51.7-.78,1.55-.77,2.41-.12,1.22-.19,2.89-.19,5.01,0,1.04.09,2.07.25,3.09.04.65.3,1.26.74,1.73.33.38.8.59,1.3.59.44.02.87-.13,1.21-.4.43-.4.72-.93.8-1.52.29-2.05.41-4.12.34-6.19.06-1.25-.05-2.49-.31-3.71-.14-.57-.45-1.09-.9-1.48-.31-.24-.69-.36-1.08-.34v.15Z"/>
      <path class="cls-1" d="M368.88,103.68v1.95c.63-.73,1.39-1.35,2.23-1.82.69-.37,1.47-.56,2.26-.56.87-.02,1.73.26,2.41.8.62.52,1.06,1.23,1.27,2.01.21,1.15.29,2.32.25,3.5v5.78c-.08.74.03,1.48.31,2.17.35.34.81.53,1.3.53v.56h-7.55v-.56c.5-.03.96-.29,1.24-.71.22-.64.3-1.31.25-1.98v-6.62c.08-.77.08-1.55,0-2.32-.08-.3-.25-.56-.49-.74-.2-.18-.47-.28-.74-.28-.93,0-1.76.68-2.57,1.98v7.98c-.06.73.05,1.45.31,2.13.3.33.73.53,1.18.56v.56h-7.55v-.56c.51-.01.99-.24,1.33-.62.26-.66.36-1.37.28-2.07v-8.41c.08-.72-.02-1.44-.31-2.1-.35-.34-.81-.54-1.3-.56v-.59h5.91Z"/>
      <path class="cls-1" d="M401.76,96.48l.19,7.21h-.65c-.25-1.67-1.06-3.21-2.29-4.36-1.04-1.02-2.44-1.61-3.9-1.64-.94-.05-1.87.26-2.6.87-.59.5-.93,1.24-.93,2.01-.02.45.1.89.34,1.27.4.58.9,1.09,1.48,1.48,1.12.68,2.28,1.3,3.46,1.86,1.94.81,3.7,2.01,5.17,3.53.84,1.09,1.3,2.43,1.3,3.8,0,1.79-.76,3.49-2.1,4.67-1.46,1.32-3.38,2.02-5.35,1.95-.66,0-1.31-.06-1.95-.22-.78-.19-1.55-.45-2.29-.77-.39-.18-.81-.29-1.24-.31-.32,0-.64.12-.9.31-.33.24-.59.58-.74.96h-.59v-8.17h.59c.31,2.01,1.25,3.86,2.69,5.29,1.17,1.12,2.71,1.76,4.33,1.79,1.04.04,2.06-.31,2.85-.99.65-.57,1.03-1.39,1.05-2.26,0-.52-.15-1.03-.4-1.48-.32-.53-.74-.99-1.24-1.36-.92-.65-1.91-1.21-2.94-1.67-1.48-.7-2.9-1.53-4.24-2.47-.81-.62-1.48-1.4-1.98-2.29-.47-.85-.72-1.81-.71-2.78-.01-1.67.68-3.27,1.92-4.39,1.28-1.22,3-1.88,4.76-1.82.7,0,1.39.09,2.07.25.62.19,1.22.44,1.79.74.47.25.98.42,1.52.49.24,0,.48-.08.65-.25.25-.37.41-.79.46-1.24h.4Z"/>
      <path class="cls-1" d="M412.8,116.4c-1.28,1.37-3.02,2.23-4.89,2.41-.79,0-1.56-.29-2.13-.84-.55-.56-.86-1.32-.84-2.1.01-1.19.54-2.32,1.45-3.09,1.96-1.48,4.12-2.7,6.4-3.62v-1.55c.05-.71-.02-1.42-.19-2.1-.14-.33-.38-.6-.68-.77-.34-.22-.74-.34-1.14-.34-.6-.03-1.2.13-1.7.46-.26.13-.42.39-.43.68.05.32.22.6.46.8.35.36.56.83.59,1.33,0,.52-.2,1.01-.59,1.36-.42.36-.96.55-1.52.53-.61.02-1.21-.19-1.67-.59-.45-.31-.75-.81-.8-1.36.02-.82.34-1.6.9-2.2.69-.75,1.56-1.31,2.54-1.61,1.1-.37,2.25-.56,3.4-.56,1.18-.05,2.35.26,3.34.9.73.46,1.29,1.15,1.61,1.95.2,1.02.27,2.06.22,3.09v5.78c-.05.43-.05.87,0,1.3.03.14.11.27.22.37.12.04.25.04.37,0,.28,0,.56-.19.87-.59l.46.37c-.42.68-.98,1.27-1.64,1.73-.59.35-1.26.53-1.95.53-.71.04-1.41-.17-1.98-.59-.52-.47-.84-1.13-.9-1.82l.22.12ZM412.8,115.25v-5.01c-1.1.63-2.08,1.46-2.88,2.44-.38.5-.59,1.11-.62,1.73,0,.48.19.95.53,1.3.3.29.7.45,1.11.43.7-.08,1.36-.39,1.86-.9h0Z"/>
      <path class="cls-1" d="M426.35,105.26v10.33c-.08.65.03,1.3.31,1.89.51.46,1.21.67,1.89.56v.56h-8.78v-.56c.47.02.95-.05,1.39-.22.27-.13.49-.35.62-.62.13-.53.18-1.07.15-1.61v-10.33h-2.17v-1.58h2.17v-1.86c0-1.47.64-2.86,1.76-3.8,1.28-1.07,2.91-1.63,4.58-1.55,1.02-.07,2.04.19,2.91.74.56.36.92.97.96,1.64-.02.48-.23.92-.59,1.24-.45.36-1.01.55-1.58.53-.48.02-.95-.13-1.33-.43-.28-.24-.45-.59-.46-.96-.02-.2-.02-.39,0-.59.01-.18.01-.35,0-.53.01-.18-.06-.36-.19-.49-.17-.15-.39-.22-.62-.22-.31,0-.6.14-.8.37-.22.37-.32.81-.28,1.24v4.67h2.2v1.58h-2.13Z"/>
      <path class="cls-1" d="M442.25,110.71h-8.17c0,1.7.55,3.35,1.58,4.7.62.83,1.59,1.32,2.63,1.33.62,0,1.22-.18,1.73-.53.68-.55,1.25-1.2,1.7-1.95l.53.34c-.58,1.39-1.51,2.6-2.69,3.53-2.77,1.82-6.47,1.14-8.41-1.55-.95-1.53-1.42-3.31-1.36-5.1-.11-2.15.61-4.27,2.01-5.91,1.17-1.41,2.9-2.22,4.73-2.23,1.52,0,2.96.68,3.93,1.86,1.23,1.57,1.86,3.52,1.79,5.51ZM438.32,109.65c.05-1.18-.04-2.37-.28-3.53-.12-.57-.43-1.07-.87-1.45-.24-.22-.57-.33-.9-.31-.57.01-1.09.33-1.36.84-.68,1.18-1.01,2.54-.93,3.9v.56h4.33Z"/>
      <path class="cls-1" d="M449.02,98.33v5.44h3.56v1.58h-3.56v9.28c-.08.55-.08,1.12,0,1.67.07.25.22.47.43.62.16.12.35.2.56.22.68,0,1.33-.53,1.95-1.58l.49.34c-.56,1.85-2.27,3.11-4.21,3.09-.87.03-1.72-.24-2.41-.77-.59-.44-1.02-1.06-1.24-1.76-.15-.97-.21-1.96-.15-2.94v-8.26h-1.95v-.56c1.25-.89,2.4-1.93,3.4-3.09.96-1,1.81-2.1,2.54-3.28h.59Z"/>
      <path class="cls-1" d="M461.33,119.21l-4.79-11.04c-.42-1.09-.96-2.12-1.61-3.09-.34-.38-.78-.65-1.27-.8v-.59h7.95v.59c-.39-.01-.78.09-1.11.31-.2.16-.31.4-.31.65.12.84.39,1.66.77,2.41l2.57,5.82,1.73-4.52c.49-1.06.81-2.19.96-3.34.01-.35-.14-.7-.4-.93-.4-.29-.9-.43-1.39-.4v-.59h5.01v.59c-.46.04-.89.25-1.21.59-.65,1.03-1.17,2.15-1.55,3.31l-4.24,11.04c-.61,1.79-1.42,3.5-2.41,5.1-.66.85-1.68,1.35-2.75,1.33-.79.04-1.56-.23-2.17-.74-.51-.47-.8-1.13-.8-1.82-.02-.57.18-1.12.56-1.55.36-.38.87-.6,1.39-.59.48-.03.96.15,1.3.49.36.45.53,1.01.49,1.58-.07.26-.07.54,0,.8.12.05.25.05.37,0,.32-.04.61-.21.8-.46.68-.93,1.19-1.98,1.48-3.09l.46-1.24.15.19Z"/>
      <path class="cls-1" d="M484.01,112.44h-7.73l-.9,2.1c-.27.55-.43,1.15-.46,1.76-.03.55.26,1.07.74,1.33.67.25,1.39.37,2.1.37v.59h-7.18v-.59c.73-.08,1.41-.42,1.92-.96.76-.94,1.38-1.98,1.86-3.09l7.73-17.26h.31l7.79,17.72c.44,1.12,1.06,2.17,1.82,3.09.44.35.98.55,1.55.56v.59h-10.49v-.59h.43c.61.06,1.22-.05,1.76-.34.25-.16.39-.45.37-.74.03-.19.03-.39,0-.59,0,0-.19-.49-.49-1.18l-1.14-2.72v-.06ZM483.48,111.26l-3.25-7.45-3.31,7.45h6.56Z"/>
      <path class="cls-1" d="M506.93,103.68v11.69c-.08.73.03,1.46.31,2.13.35.34.81.53,1.3.53v.56h-6.19v-1.98c-.58.75-1.31,1.39-2.13,1.86-.74.4-1.57.61-2.41.59-.81.01-1.6-.26-2.23-.77-.62-.46-1.08-1.1-1.33-1.82-.28-1.19-.39-2.4-.34-3.62v-5.91c.08-.72-.02-1.44-.31-2.1-.34-.35-.81-.55-1.3-.56v-.59h6.19v10.11c-.08.68-.08,1.36,0,2.04.09.28.27.53.49.71.22.17.5.25.77.25.36,0,.72-.11,1.02-.31.6-.47,1.13-1.03,1.55-1.67v-7.89c.08-.72-.04-1.45-.34-2.1-.33-.35-.79-.55-1.27-.56v-.59h6.22Z"/>
      <path class="cls-1" d="M515.34,98.33v5.44h3.53v1.58h-3.53v9.28c-.05.56-.05,1.11,0,1.67.09.24.24.45.43.62.24.06.48.05.71-.03.71,0,1.36-.53,1.98-1.58l.46.34c-.56,1.84-2.25,3.09-4.18,3.09-.87.03-1.72-.24-2.41-.77-.6-.43-1.03-1.05-1.24-1.76-.17-.97-.23-1.96-.19-2.94v-8.01h-1.95v-.56c1.27-.88,2.42-1.92,3.43-3.09.95-1.07,1.78-2.25,2.47-3.5l.46.22Z"/>
      <path class="cls-1" d="M525.92,96.97v8.63c.66-.72,1.42-1.33,2.26-1.82.66-.34,1.39-.52,2.13-.53.87-.03,1.71.25,2.38.8.63.46,1.09,1.11,1.33,1.86.27,1.2.39,2.42.34,3.65v5.82c-.08.73.03,1.46.31,2.13.34.34.79.53,1.27.53v.56h-7.55v-.56c.48-.03.92-.27,1.21-.65.25-.64.34-1.33.28-2.01v-6.65c.05-.78,0-1.56-.15-2.32-.08-.3-.25-.56-.49-.74-.2-.18-.47-.28-.74-.28-.45,0-.89.17-1.24.46-.54.41-.99.93-1.33,1.52v8.01c-.06.67.03,1.34.25,1.98.28.41.74.66,1.24.68v.56h-7.55v-.56c.51-.01.99-.24,1.33-.62.26-.65.36-1.35.28-2.04v-15.16c.08-.72-.04-1.45-.34-2.1-.33-.35-.79-.55-1.27-.56v-.59h6.06Z"/>
      <path class="cls-1" d="M543.61,103.25c1.26,0,2.5.34,3.59.99,1.13.68,2.02,1.68,2.57,2.88.58,1.27.87,2.65.87,4.05.06,1.89-.51,3.75-1.61,5.29-1.25,1.71-3.27,2.68-5.38,2.6-2.01.11-3.95-.77-5.2-2.35-1.2-1.57-1.83-3.5-1.79-5.47-.04-2.02.61-3.99,1.82-5.6,1.23-1.58,3.14-2.46,5.13-2.38ZM543.61,104.36c-.55,0-1.07.23-1.42.65-.49.71-.76,1.55-.77,2.41,0,1.21-.15,2.88-.15,5.01,0,1.04.07,2.07.22,3.09.06.64.32,1.25.74,1.73.34.38.82.6,1.33.59.43.02.85-.12,1.18-.4.43-.4.72-.93.84-1.52.28-2.05.38-4.12.31-6.19.06-1.25-.05-2.49-.31-3.71-.13-.57-.43-1.09-.87-1.48-.31-.23-.69-.35-1.08-.34v.15Z"/>
      <path class="cls-1" d="M557.31,103.68v3.4c.66-1.19,1.54-2.24,2.6-3.09.62-.48,1.38-.75,2.17-.77.52-.03,1.03.18,1.39.56.39.42.59.98.56,1.55.03.6-.16,1.19-.53,1.67-.31.37-.76.58-1.24.59-.55,0-1.07-.2-1.48-.56l-.71-.62h-.37c-.33,0-.64.14-.87.37-.49.4-.85.94-1.02,1.55-.33,1.1-.5,2.25-.49,3.4v4.33c-.06.39-.06.79,0,1.18.11.27.3.48.56.62.4.16.83.25,1.27.25v.56h-8.04v-.56c.49,0,.95-.18,1.3-.53.33-.76.46-1.59.37-2.41v-8.32c.03-.54-.02-1.08-.15-1.61-.06-.26-.22-.49-.43-.65-.33-.18-.7-.29-1.08-.31v-.59h6.22Z"/>
      <path class="cls-1" d="M569.07,96.48c1.35-.02,2.46,1.06,2.47,2.41,0,.02,0,.04,0,.06,0,.66-.26,1.28-.74,1.73-.96.94-2.5.94-3.46,0-.47-.45-.73-1.08-.71-1.73-.02-1.35,1.06-2.46,2.41-2.47.01,0,.02,0,.03,0ZM571.3,103.68v11.82c-.08.7.05,1.41.37,2.04.4.35.92.52,1.45.49v.56h-8.07v-.56c.55.01,1.09-.2,1.48-.59.27-.61.38-1.28.31-1.95v-8.69c.08-.69-.05-1.39-.37-2.01-.39-.36-.9-.55-1.42-.53v-.59h6.25Z"/>
      <path class="cls-1" d="M579.58,98.33v5.44h3.56v1.58h-3.56v9.28c-.06.56-.06,1.12,0,1.67.08.25.23.46.43.62.16.12.35.2.56.22.68,0,1.33-.53,1.95-1.58l.49.34c-.56,1.85-2.27,3.11-4.21,3.09-.87.03-1.72-.25-2.41-.77-.59-.44-1.02-1.06-1.24-1.76-.09-.98-.09-1.96,0-2.94v-8.26h-1.95v-.56c1.25-.89,2.4-1.93,3.4-3.09.97-1.06,1.8-2.23,2.47-3.5l.49.22Z"/>
      <path class="cls-1" d="M591.93,119.21l-4.83-11.04c-.42-1.09-.96-2.12-1.61-3.09-.34-.38-.78-.65-1.27-.8v-.59h7.95v.59c-.39-.01-.78.09-1.11.31-.2.16-.31.4-.31.65.14.84.41,1.66.8,2.41l2.54,5.82,1.73-4.52c.5-1.05.82-2.18.96-3.34.03-.36-.12-.7-.4-.93-.39-.29-.87-.43-1.36-.4v-.59h4.98v.59c-.46.04-.89.25-1.21.59-.65,1.03-1.17,2.15-1.55,3.31l-4.24,11.04c-.57,1.78-1.34,3.49-2.29,5.1-.65.86-1.67,1.36-2.75,1.33-.78.03-1.54-.23-2.13-.74-.53-.46-.84-1.12-.84-1.82-.02-.57.18-1.12.56-1.55.37-.39.89-.6,1.42-.59.47-.03.94.15,1.27.49.36.45.53,1.01.49,1.58,0,.28.04.55.15.8.12.05.25.05.37,0,.32-.04.61-.21.8-.46.69-.93,1.2-1.98,1.52-3.09l.46-1.24-.12.19Z"/>
    </g>
  </g>
</svg>