<?xml version="1.0" encoding="UTF-8"?>
<svg id="Layer_2" data-name="Layer 2" xmlns="http://www.w3.org/2000/svg" viewBox="0 0 600 141.29">
  <defs>
    <style>
      .cls-1 {
        fill: #fff;
      }
    </style>
  </defs>
  <g id="Layer_1-2" data-name="Layer 1">
    <g>
      <path class="cls-1" d="M338.24,78.86c-1.03-6.58-3.2-12.8-6.12-18.76-2.51-5.13-6.12-9.4-10.53-13.04-5.13-4.25-10.86-7.38-17.23-9.36-5.69-1.77-11.57-2.32-17.49-2.63-2.88-.15-5.75-.1-8.63-.11-3.36,0-6.64.48-9.89,1.2-4.37.98-8.52,2.57-12.51,4.58-3.23,1.63-6.34,3.47-9.19,5.7-1.65,1.3-3.2,2.71-4.68,4.19-.14.14-.23.39-.58.32v-12.68c0-.22-.01-.45,0-.67.02-.33-.12-.46-.45-.45-.55.02-1.1.02-1.65.03-5.76.07-11.51-.19-17.27.19-.96.06-1.11-.08-1.11-1.09,0-1.35.1-2.69.29-4.03.4-2.88,1.98-4.84,4.72-5.8,2.41-.85,4.91-1.14,7.45-.9,2.83.26,5.64.71,8.38,1.5.48.14.6-.07.62-.43.03-.45.03-.9.02-1.35-.03-6.67-.07-13.35.04-20.02.02-1.19.12-2.37.17-3.56.04-1.04-.27-1.39-1.28-1.53-.68-.1-1.35-.12-2.03-.13-3.04,0-6.08-.03-9.12-.04-.99.13-1.99.04-2.98.05-2.41.02-4.82.01-7.23,0-.42,0-.84.06-1.25-.06-1.94.01-3.88.05-5.82.03-1.65-.02-3.29.11-4.93.33-6.85.93-12.64,3.89-17.39,8.87-3.19,3.35-5.4,7.23-6.6,11.69-.63,2.36-.98,4.77-1.18,7.2-.15.12-.2.24-.03.38-.16,2.5-.33,4.99-.21,7.5.06,1.18,0,1.19-1.25,1.18-4.56-.01-9.12-.02-13.68-.02-.77,0-.78,0-.78.79,0,2.21,0,4.43,0,6.64,0,.3.1.63-.12.92-.33-.06-.48-.34-.68-.53-.68-.64-1.34-1.3-2.08-1.87-2.88-2.2-6.14-3.64-9.55-4.79-3.13-1.06-6.35-1.71-9.61-2.21-3.32-.51-6.67-.92-10.02-1-5.04-.12-10.08-.22-15.13-.16-5.52.07-10.96.69-16.37,1.71-5.04.94-9.83,2.66-14.36,5.06-4.3,2.28-7.86,5.37-10.68,9.32-.3.42-.58.85-1.01,1.15-.07-.13-.14-.26-.2-.39.17-1.04.28-2.09.27-3.15-.03-2.46.02-4.93.01-7.4,0-1.37-.05-2.74-.08-4.14-6.61.2-13.13-.15-19.63.21-.29-.24-.64-.1-.96-.17-.23-.35-.17-.74-.17-1.12-.01-8.31-.02-16.62-.02-24.93,0-1.32.06-2.63.07-3.95,0-.71-.07-.79-.78-.73-1.2.1-2.39,0-3.59-.01-11.22-.15-22.45-.03-33.67-.05-1.06,0-1.23.19-1.23,1.25,0,2.02-.01,4.04,0,6.06.06,6.93-.15,13.86.13,20.79.02.51-.01,1.03-.06,1.54-.11,1.24-.19,1.3-1.48,1.27-.06,0-.13,0-.19,0-4.95-.16-9.89-.14-14.84.01-.55.02-.77.25-.78.72,0,.64.05,1.28.05,1.92.01,6.29.02,12.58.02,18.87,0,.58-.08,1.15-.07,1.73,0,.64.17.77.8.75.42-.01.84-.04,1.26-.02,4.62.25,9.25.11,13.87.14.1,0,.19,0,.29,0,.93.05,1,.11,1.01,1.01,0,.71-.02,1.41-.02,2.12,0,13.93,0,27.85,0,41.78,0,1.83.08,3.66.22,5.48.05.67.09,1.34.14,2.01-.17.13-.14.26.02.38.26,3.04.78,6.02,1.75,8.93,1.23,3.69,3.16,6.94,6.06,9.58,4.22,3.84,9.31,5.8,14.91,6.5,3.5.43,7.02.5,10.54.54,5.08.06,10.14-.29,15.2-.61,2.48-.16,4.97-.28,7.46-.27.52.23,1.03.23,1.55-.01.45-.03.9-.05,1.35-.1.78-.08.8-.09.83-.85.05-1.44.08-2.89-.03-4.33-.02-.25-.07-.54.23-.68.31-.15.55-.01.77.22,1.28,1.35,2.86,2.3,4.46,3.21,5.06,2.88,10.57,4.22,16.34,4.66,2.94.23,5.88.16,8.83.14,3.3-.02,6.58-.41,9.82-1.04,2.87-.56,5.57-1.63,8.25-2.73,4.06-1.67,7.56-4.15,10.57-7.32.26-.27.48-.61.88-.69.05.06.12.11.13.16.02.32.04.64.04.96-.04,2.52.33,4.99,1.06,7.4.25.83.26.83,1.12.83,12.88,0,25.75,0,38.63,0h.86c-1.39-2.03-2.29-4.11-3-6.27-1.49-4.53-1.89-9.24-1.99-13.95-.13-6.09-.02-12.19-.03-18.29-.02-8.44.09-16.88-.08-25.32-.08-4.14.01-8.28-.4-12.4-.1-.98-.08-1,.98-1.01,2.36-.02,4.72,0,7.08,0,.84,0,.88.05.87.88-.03,1.48-.1,2.95-.1,4.43.02,20.47.01,40.95.02,61.42,0,3.27.04,6.55.03,9.82,0,.5.11.71.63.68.39-.02.78.01,1.16.01,11.94,0,23.88,0,35.82,0q1.64,0,1.64-1.6c0-23.68,0-47.37,0-71.05,0-1.28-.03-2.57-.03-3.85,0-.66.04-.69.7-.76.77-.08,1.54-.16,2.32-.15,2.78.05,5.56.09,8.34.13.35,0,.7,0,.97.11.1.22,0,.32-.06.43-1.03,2.18-2.08,4.34-2.99,6.57-1.22,2.98-2.11,6.05-2.66,9.22-.38,2.22-.48,4.46-.65,6.7-.46,6.29.07,12.5,1.39,18.65.61,2.86,1.75,5.56,2.94,8.23,4.45,9.95,11.69,17.38,21.14,22.72,5.34,3.02,11.17,4.83,17.2,6,3.57.69,7.17.97,10.79,1.15.12.16.25.18.38.01,2.23-.01,4.46,0,6.69-.05,4.05-.08,8.06-.58,12.02-1.41,2.22-.46,4.35-1.2,6.49-1.93,6.62-2.27,12.75-5.37,18.02-10.08,4.91-4.38,8.82-9.43,11.47-15.44.36-.82.68-1.66.88-2.54.12-.51.02-.64-.49-.7-.26-.03-.52-.02-.78-.01-1.23.02-2.46.07-3.69.07-3.33,0-6.66-.02-9.99-.02-5.14,0-10.28-.01-15.43,0-1.81,0-3.62-.02-5.43.1-.52.03-.9.16-1.18.66-.76,1.32-1.92,2.25-3.21,3-4.74,2.76-9.85,3.97-15.35,3.3-4.42-.54-8.25-2.32-11.27-5.61-3.36-3.66-4.77-8.14-5.45-12.92-.06-.4.09-.6.47-.68.51-.1,1.03-.08,1.55-.08,20.93,0,41.86,0,62.79.02,3.01,0,6.02,0,9.02.02.36,0,.55-.09.55-.47,0-.19.03-.39.03-.58-.16-4.07-.03-8.15-.51-12.2-.19-1.59-.32-3.19-.57-4.78ZM136.55,103.53c-.23,3.45-1.44,6.57-3.56,9.3-1.43,1.84-3.32,3.15-5.49,4.01-2.96,1.16-6.03,1.74-9.21,1.22-2.91-.48-5.49-1.74-7.52-3.88-3.57-3.76-2.76-9.25.69-11.96,1.26-.99,2.63-1.73,4.13-2.27,2.86-1.03,5.84-1.62,8.8-2.3,3.25-.75,6.41-1.76,9.52-2.93.63-.24,1.23-.55,1.85-.83.64-.28.8-.18.8.49,0,1.57,0,3.14,0,4.72h0c0,1.48.08,2.96-.02,4.43ZM132.6,73.76c-2.5,1.21-5.17,1.84-7.88,2.27-3.16.5-6.31,1.06-9.48,1.45-3.17.39-6.35.78-9.51,1.28-6.04.95-12.03,2.09-17.72,4.41-3.2,1.31-6.3,2.8-9.04,4.96-5.79,4.57-9.26,10.43-10.14,17.75-.12,1.02-.25,2.04-.36,3.06-.09.8-.09.83-.94.85-1.27.03-2.51-.25-3.74-.51-.6-.13-1.19-.31-1.76-.52-2.28-.85-3.9-2.34-4.66-4.68-.46-1.44-.73-2.91-.81-4.43-.32-6.06-.03-12.13-.15-17.33,0-7.12,0-13.38,0-19.63,0-1.29,0-1.28,1.28-1.28,5.08,0,10.16.01,15.24.02.1,0,.19,0,.29,0,.67.03.72.07.63.74-.21,1.56-.42,3.11-.64,4.67-.02.13-.05.25-.06.38-.05.7.06.85.77.92.29.03.58.02.87.02,10.42-.01,20.83-.02,31.25-.03.81,0,1.62.06,2.42.04.9-.02.95-.1,1.13-.97.36-1.78.9-3.47,2.08-4.91,1.01-1.22,2.27-2.1,3.69-2.75,3.22-1.47,6.62-1.92,10.12-1.65,2.48.19,4.84.8,7.01,2.04,2.88,1.66,4.13,4.25,4.11,7.46-.02,2.91-1.32,5.07-4.02,6.38ZM301.27,76.59c-1.16,0-2.33,0-3.49,0-4.72,0-9.44,0-14.16,0h0c-5.79.01-11.57.01-17.36,0-.98,0-1.24-.31-.95-1.24.99-3.26,2.13-6.45,4.25-9.21,1.09-1.43,2.39-2.6,3.99-3.44,2.17-1.15,4.4-2.18,6.86-2.54,3.22-.47,6.44-.51,9.62.33,1.26.33,2.39.94,3.51,1.59,4.4,2.59,7.05,6.39,8.08,11.34.17.82.32,1.63.35,2.47.02.5-.2.69-.68.68Z"/>
      <path class="cls-1" d="M385.23,98.58c.8-1.03,1.34-2.18,1.81-3.38.96-2.47,1.13-5.05,1.19-7.53.02-2.73-.22-4.47-1.07-6.93-1.44-4.18-4.14-7.25-8.25-9.07-2.67-1.18-5.46-1.5-8.34-1.36-6.31.3-12.56,4.32-14.45,11.4-1.11,4.14-1,8.27.31,12.32,2.02,6.22,6.43,9.7,12.87,10.78,1.42.24,2.84.04,4.26-.02,1.96-.08,3.86-.45,5.63-1.28.66-.31,1-.12,1.41.27,1.14,1.09,2.3,2.16,3.42,3.28.31.31.53.4.88.1,1.11-.94,2.09-2,3.05-3.08.25-.28.26-.55-.02-.84-.41-.41-.78-.86-1.2-1.26-.56-.53-1.15-1.03-1.72-1.55-.56-.51-.57-.65-.17-1.31.12-.19.25-.37.39-.55ZM379.44,94.32c-.25.6-.47.67-1.02.27-.47-.34-.91-.72-1.32-1.13-.66-.66-1.29-1.35-1.96-2.06-1.14,1.21-2.17,2.31-3.21,3.41-.36.38-.34.74,0,1.1.7.75,1.41,1.5,2.12,2.24-.02.14-.04.27-.06.41-1.26.11-2.51.1-3.76-.14-2.72-.52-4.72-1.96-5.95-4.45-.59-1.2-.92-2.45-1.06-3.77-.28-2.75-.09-5.44.89-8.05.98-2.58,2.73-4.42,5.4-5.26,4.18-1.32,8.47.67,10.11,4.71,1.72,4.25,1.59,8.51-.19,12.73Z"/>
      <path class="cls-1" d="M547,96.21c-.05-3.34-.05-6.67-.06-10.01,0-2.37-1.03-4.13-3.13-5.25-1.23-.65-2.55-1.08-3.95-1.25-2.49-.31-4.98-.26-7.45.06-2.24.29-4.21,1.19-5.78,2.86-1.16,1.24-1.57,2.76-1.66,4.4-.02.4.09.67.6.63,1.71-.11,3.42,0,5.14.12.87.06.86.01,1.12-.82.31-.99.91-1.79,1.84-2.26,1.59-.8,3.26-.79,4.88-.12,1.12.46,1.49,1.45,1.48,2.59-.02,1.04-.71,1.52-1.59,1.81-.18.06-.37.12-.55.19-1.6.56-3.29.67-4.94.94-1.79.3-3.56.61-5.23,1.36-1,.45-1.77,1.15-2.41,2.02-1.51,2.03-1.57,6.26.36,8.6.33.4.7.76,1.14,1.03,1.19.73,2.44,1.27,3.85,1.48,1.56.23,3.1.21,4.63-.09,1.7-.33,3.42-.68,4.69-2.03.03-.03.12-.02.19-.02.07.05.14.11.21.16.06.18.12.37.19.55.34.93.5,1.02,1.47,1.01,1.55-.01,3.1,0,4.66,0,.28,0,.58.1.83-.11,0-.16.03-.33,0-.48-.48-2.44-.49-4.91-.53-7.38ZM536.66,99.83c-1.05.3-2.08.41-3.15.2-.7-.14-1.26-.48-1.73-.99-1.01-1.09-1.03-2.55-.05-3.66.55-.62,1.25-1,2.05-1.21,1.34-.36,2.71-.58,4.09-.76.68-.09,1.33-.23,2.03-.49.05.07.08.09.08.12.61,2.47-.19,5.91-3.31,6.79Z"/>
      <path class="cls-1" d="M454.45,79.59c-1.41-.18-2.84-.1-4.26.05-.9.1-1.79.23-2.64.57-2.59,1.04-4.56,2.76-5.77,5.28-.84,1.74-1.56,3.52-1.78,5.45-.23,2.05.18,4,.81,5.95,1.13,3.48,3.43,5.82,6.88,7.03,2.42.85,4.93,1.02,7.46.59,2.4-.4,4.49-1.42,6.12-3.25,1.02-1.14,1.78-2.43,2.14-3.93.1-.42-.06-.61-.43-.69-.22-.05-.45-.06-.67-.06-1.2,0-2.39.02-3.59.01-.57,0-.98.17-1.28.69-.4.69-1.02,1.14-1.71,1.52-1.02.56-2.11.78-3.26.78-3.57,0-4.87-1.83-5.58-4.87-.11-.45.07-.73.55-.84.38-.09.77-.1,1.16-.1,2.39,0,4.79,0,7.18,0h0c2.52-.01,5.04-.02,7.57-.01.68,0,.97-.26.98-1,.02-3.32-.73-6.43-2.76-9.13-1.77-2.36-4.19-3.69-7.11-4.06ZM456.59,89.39c-1.49,0-2.97,0-4.46,0h0c-1.52,0-3.04,0-4.56,0-.72,0-.82-.13-.59-.8,1.12-3.16,3.38-4.42,6.65-3.79.85.16,1.52.7,2.09,1.33.65.72,1.15,1.55,1.44,2.48.22.71.17.78-.56.78Z"/>
      <path class="cls-1" d="M430.07,79.63c-.99-.18-2-.12-3-.1-6.9.13-11.62,5.33-11.75,11.81-.02.8-.03,1.6,0,2.4.22,4.4,2.26,7.72,6.25,9.68,2.86,1.4,5.93,1.63,9.08,1.02,3.34-.65,5.73-2.52,7.29-5.48.27-.51.48-1.05.55-1.63.05-.36-.1-.56-.42-.64-.25-.06-.51-.1-.77-.1-1.13,0-2.26.02-3.39,0-.6,0-1.05.15-1.35.72-.29.55-.77.94-1.29,1.27-1.58,1-3.32,1.22-5.12.9-1.67-.29-2.88-1.23-3.52-2.83-.14-.36-.3-.71-.42-1.07-.48-1.5-.29-1.78,1.28-1.79,2.39-.01,4.78,0,7.18,0h0c2.33,0,4.65,0,6.98.01,1.19,0,1.22,0,1.39-1.17.01-.1.02-.19.03-.29.2-2.38-.17-4.68-1.24-6.82-1.61-3.21-4.15-5.26-7.76-5.9ZM431.57,89.39c-1.49,0-2.97,0-4.46,0h0c-1.46,0-2.91,0-4.36,0-.83,0-.92-.12-.61-.91,1.04-2.73,2.87-4.19,6.25-3.76,1.05.13,1.86.72,2.53,1.49.6.68,1.05,1.47,1.31,2.33.21.7.09.85-.65.85Z"/>
      <path class="cls-1" d="M413.62,80.81c.02-.49-.12-.68-.65-.67-1.84.03-3.69.01-5.53.01-.03,0-.06,0-.1,0-.64.04-.71.1-.74.74-.02.48,0,.96,0,1.44,0,2.85,0,5.71.03,8.56.01,1.55-.18,3.07-.46,4.59-.53,2.96-2.54,3.81-4.78,3.84-1.76.02-3.01-.95-3.53-2.61-.13-.4-.17-.81-.21-1.23-.15-1.6-.12-3.2-.12-4.81,0-3.24.02-6.48.01-9.72,0-.8-.03-.8-.81-.81-1.75,0-3.49,0-5.24,0-.8,0-.81.01-.81.78.01,2.95-.01,5.9.07,8.85.05,1.83,0,3.65-.13,5.48-.07,1-.04,1.99.06,2.98.21,2.28,1.89,5.33,4.9,6.1,2.84.73,5.63.61,8.35-.53.7-.3,1.28-.75,1.63-1.44.19-.38.47-.65.94-.88.18.59.1,1.13.11,1.66.02.83.24,1.06,1.05.97,1.32-.14,2.64-.11,3.97-.01.48.04.97.03,1.44-.1.39-.1.55-.3.45-.69-.18-.66-.11-1.34-.12-2.01-.02-2.08-.05-4.17-.04-6.25.02-2.82-.13-5.65.08-8.47.15-1.92.09-3.85.15-5.77Z"/>
      <path class="cls-1" d="M488.79,88.46c-.04-1.46-.25-2.87-.67-4.26-.56-1.87-1.65-3.32-3.57-4.03-1.7-.63-3.49-.85-5.24-.73-2.58.19-4.88,1.2-6.48,3.38-.13,0-.26-.01-.39-.02.01-.61.03-1.22.04-1.83,0-.66,0-.68-.68-.77-.32-.05-.64-.05-.97-.06-1.16,0-2.33,0-3.49,0-1.37,0-1.4.01-1.36,1.4.09,3.08.22,6.15.04,9.23-.15,2.6.21,5.19.15,7.79-.03,1.47-.11,2.95-.15,4.42-.03,1.15,0,1.17,1.19,1.18,1.52.01,3.04,0,4.56,0,1.08,0,1.01.11,1.01-.96,0-3.53,0-7.06,0-10.58,0-1.49.23-2.93.61-4.37.54-2.04,1.86-3.13,3.95-3.42,1.99-.27,3.59.66,4.21,2.56.39,1.2.55,2.44.55,3.69,0,4.01,0,8.02,0,12.03,0,1.15-.1,1.07,1.12,1.06,1.52,0,3.04-.01,4.56-.01.99,0,1.09-.08,1.1-1.09,0-.77-.05-1.54-.08-2.31-.19-4.1.11-8.21,0-12.31Z"/>
      <path class="cls-1" d="M572.56,99.45c.02-3.95.04-7.89.05-11.84,0-.42.02-.84-.03-1.25-.39-3.01-1.86-5.21-4.81-6.29-1.42-.52-2.9-.65-4.39-.6-2.03.07-3.88.62-5.31,2.18-.28.3-.63.54-.96.81l-.24-.04c-.29-.54-.22-1.13-.22-1.7,0-.48-.19-.59-.63-.59-1.68.02-3.36,0-5.05,0-1.05,0-1.11.05-1.09,1.09.03,1.28.15,2.56.15,3.84-.03,5.97.12,11.93-.12,17.9-.05,1.15.04,1.21,1.18,1.21,1.59,0,3.17,0,4.75-.01.78,0,.79,0,.79-.79,0-2.5-.02-5.01,0-7.51.03-2.41.1-4.82.63-7.18.53-2.36,1.72-3.66,4.17-3.85,2.1-.16,3.66.89,4.14,2.93.26,1.1.38,2.21.38,3.34,0,4.07,0,8.15,0,12.22,0,.83,0,.84.86.84,1.62,0,3.23-.03,4.85-.04.96,0,1.08-.1,1.01-1.04-.08-1.22-.13-2.43-.12-3.65Z"/>
      <path class="cls-1" d="M510.69,91.48c-.99-.64-2.07-1.05-3.19-1.35-2.22-.58-4.44-1.15-6.65-1.73-.79-.21-1.54-.49-2.13-1.09-.84-.86-.78-1.81.17-2.55.26-.2.55-.33.86-.43,1.37-.42,2.74-.38,4.1.05.84.27,1.51.72,1.65,1.69.1.68.6.96,1.2,1.09.28.06.58.04.87.05,1.29.06,2.58-.18,3.88-.04.82.09,1.15-.31.92-1.1-.35-1.2-.81-2.37-1.55-3.4-.24-.34-.53-.65-.86-.91-1.11-.85-2.32-1.51-3.69-1.85-2.98-.73-5.96-.59-8.95-.06-.47.08-.94.23-1.39.4-2.95,1.11-4.51,3.36-4.51,6.47,0,.32,0,.64,0,.96-.02,2.02.87,3.5,2.69,4.42,1.13.57,2.32.99,3.54,1.29,1.91.47,3.84.89,5.71,1.5.62.2,1.23.41,1.78.75,1.61.98,1.62,2.73.03,3.72-.16.1-.34.19-.52.27-1.94.81-3.82.75-5.67-.32-.9-.52-1.51-1.13-1.55-2.24-.03-.75-.39-.95-1.19-.91-.68.03-1.36.06-1.88.09-.94,0-1.71-.02-2.49,0-.92.03-1.27.5-1.07,1.36.06.28.14.56.2.84.64,2.57,2.27,4.24,4.71,5.22,2.83,1.14,5.76,1.38,8.76,1.03,1.64-.19,3.27-.5,4.73-1.31,1.44-.8,2.68-1.82,3.3-3.39.81-2.04.92-4.11.1-6.19-.39-.99-1.02-1.76-1.92-2.34Z"/>
      <path class="cls-1" d="M522.22,83.2c.12-3.88.04-7.76.1-11.64,0-.65-.01-.66-.73-.66-1.45,0-2.91-.02-4.36,0-2.12.02-1.92-.33-1.91,1.88.03,4.9-.02,9.81.21,14.43-.19,2.71-.12,5.15-.04,7.58.09,2.79-.16,5.57-.16,8.36,0,.96.1,1.04,1.06,1.01,1.49-.04,2.97-.07,4.46-.12.29,0,.59-.01.87-.08.4-.1.73-.25.51-.79-.16-.39-.13-.82-.13-1.24.01-2.82.02-5.64.04-8.46.02-3.43-.02-6.86.09-10.29Z"/>
      <path class="cls-1" d="M599.47,95.56c.02-5.81,0-11.61.02-17.42,0-1.06.06-2.11.22-3.17.16-1.04.42-2.08.21-3.15-.14,0-.27-.01-.41-.02-.11-.61-.54-.87-1.1-.88-1.81-.02-3.62-.01-5.43-.02-.27,0-.42.11-.44.39,0,.16-.03.32-.03.48-.04,3.34,0,6.67.2,10,.01.19.15.43-.13.6-.11-.08-.21-.15-.3-.23-2.2-2.1-4.86-2.8-7.84-2.58-3.77.28-6.52,2.03-8.17,5.44-.9,1.85-1.3,3.81-1.39,5.85-.12,2.92.2,5.76,1.62,8.39.88,1.65,2.06,3.03,3.7,3.97,3.42,1.96,6.92,2.03,10.48.38.56-.26,1.05-.62,1.41-1.14.15-.22.26-.54.63-.53.13.36.2.73.22,1.12.06,1.12.19,1.22,1.36,1.19,1.13-.03,2.26-.08,3.39-.04.61.02,1.15-.05,1.62-.45.21.04.45-.15.64.06-.06-.76-.14-1.53-.18-2.29-.1-1.99-.3-3.96-.29-5.96ZM591.6,97.34c-1.49,2.16-4.1,2.88-6.5,1.82-.82-.36-1.51-.9-1.96-1.66-1.96-3.3-2.23-6.7-.43-10.16,1.01-1.93,2.71-2.81,4.86-2.7,2.23.12,3.73,1.36,4.55,3.36.59,1.43.85,2.95.83,4.51,0,1.73-.35,3.37-1.35,4.83Z"/>
    </g>
  </g>
</svg>