<?xml version="1.0" encoding="UTF-8"?>
<svg id="Layer_2" data-name="Layer 2" xmlns="http://www.w3.org/2000/svg" viewBox="0 0 600 223.21">
  <defs>
    <style>
      .cls-1 {
        fill: #252525;
      }
    </style>
  </defs>
  <g id="Layer_1-2" data-name="Layer 1">
    <g>
      <g>
        <path class="cls-1" d="M129.78,30.22c3.25.1,11.93.61,21.64,3.19,9.64,2.53,17.6,6.52,20.52,8.08-1.29,2.23-20.91,36.21-22.11,38.3-1.78-.88-5.37-2.51-9.85-3.7-4.44-1.18-8.26-1.53-10.2-1.64V30.22Z"/>
        <path class="cls-1" d="M177.67,44.91c2.76,1.71,10.02,6.48,17.15,13.58,7.08,7.01,11.98,14.45,13.73,17.26-2.23,1.29-36.21,20.91-38.3,22.11-1.1-1.65-3.4-4.86-6.68-8.13-3.26-3.24-6.38-5.46-8.01-6.52,1.21-2.1,20.83-36.08,22.11-38.3Z"/>
        <path class="cls-1" d="M83.14,155.7c1.1,1.65,3.4,4.86,6.68,8.13,3.26,3.24,6.38,5.46,8.01,6.52-1.21,2.1-20.83,36.08-22.11,38.3-2.76-1.71-10.02-6.48-17.15-13.58-7.08-7.01-11.98-14.45-13.73-17.26,2.23-1.29,36.21-20.91,38.3-22.11Z"/>
        <path class="cls-1" d="M74.45,129.91c.13,1.98.52,5.91,1.72,10.38,1.2,4.44,2.8,7.92,3.68,9.66-2.1,1.21-36.08,20.83-38.3,22.11-1.54-2.86-5.43-10.62-8.06-20.34-2.62-9.6-3.15-18.5-3.26-21.81h44.22Z"/>
        <path class="cls-1" d="M33.4,101.59c2.54-9.64,6.52-17.6,8.08-20.52,2.23,1.29,36.21,20.91,38.3,22.11-.88,1.78-2.51,5.37-3.7,9.85-1.18,4.44-1.53,8.26-1.64,10.2H30.21c.1-3.25.61-11.93,3.19-21.64Z"/>
        <path class="cls-1" d="M57.88,58.76c7.01-7.08,14.45-11.98,17.26-13.73,1.29,2.23,20.91,36.22,22.11,38.3-1.65,1.1-4.86,3.4-8.13,6.68-3.24,3.26-5.46,6.38-6.52,8.01-2.1-1.21-36.08-20.83-38.3-22.11,1.71-2.76,6.48-10.02,13.58-17.15Z"/>
        <path class="cls-1" d="M58.58,44.77c0,7.95-6.45,14.4-14.4,14.4s-14.4-6.45-14.4-14.4,6.45-14.4,14.4-14.4,14.4,6.45,14.4,14.4Z"/>
        <path class="cls-1" d="M28.8,96.77c0,7.95-6.45,14.4-14.4,14.4S0,104.72,0,96.77s6.45-14.4,14.4-14.4,14.4,6.45,14.4,14.4Z"/>
        <path class="cls-1" d="M28.92,156.73c0,7.95-6.45,14.4-14.4,14.4S.12,164.69.12,156.73s6.45-14.4,14.4-14.4,14.4,6.45,14.4,14.4Z"/>
        <path class="cls-1" d="M59.03,208.81c0,7.95-6.45,14.4-14.4,14.4s-14.4-6.45-14.4-14.4,6.45-14.4,14.4-14.4,14.4,6.45,14.4,14.4Z"/>
        <path class="cls-1" d="M171,14.4c0,7.95-6.45,14.4-14.4,14.4s-14.4-6.45-14.4-14.4,6.45-14.4,14.4-14.4,14.4,6.45,14.4,14.4Z"/>
        <circle class="cls-1" cx="208.77" cy="44.64" r="14.4"/>
        <g>
          <path class="cls-1" d="M124.52,119.16h6.35v33.58h-6.35v-33.58Z"/>
          <path class="cls-1" d="M137.37,127.9h6.23v2.55c1.41-1.19,2.69-2.02,3.84-2.49,1.15-.47,2.32-.7,3.52-.7,2.46,0,4.55.86,6.27,2.58,1.44,1.46,2.17,3.62,2.17,6.48v16.41h-6.16v-10.88c0-2.96-.13-4.93-.4-5.9-.27-.97-.73-1.71-1.39-2.22s-1.48-.76-2.45-.76c-1.26,0-2.34.42-3.25,1.27-.9.84-1.53,2.01-1.88,3.5-.18.78-.27,2.46-.27,5.04v9.96h-6.23v-24.84Z"/>
          <path class="cls-1" d="M183.76,118.31h6.23v34.42h-6.23v-2.63c-1.22,1.16-2.44,1.99-3.66,2.5-1.22.51-2.55.77-3.98.77-3.21,0-5.98-1.24-8.32-3.73-2.34-2.49-3.51-5.58-3.51-9.28s1.13-6.98,3.4-9.43c2.26-2.45,5.02-3.67,8.25-3.67,1.49,0,2.89.28,4.19.84s2.52,1.41,3.63,2.53v-12.33ZM177.21,133.01c-1.93,0-3.53.68-4.8,2.04-1.27,1.36-1.91,3.11-1.91,5.24s.65,3.91,1.94,5.3c1.3,1.39,2.89,2.08,4.79,2.08s3.58-.68,4.87-2.04c1.29-1.36,1.93-3.15,1.93-5.35s-.64-3.91-1.93-5.25c-1.29-1.34-2.92-2.01-4.89-2.01Z"/>
          <path class="cls-1" d="M221.17,142.12h-20.02c.29,1.77,1.06,3.17,2.32,4.21,1.26,1.04,2.86,1.56,4.81,1.56,2.33,0,4.33-.81,6-2.44l5.25,2.47c-1.31,1.86-2.88,3.23-4.7,4.12-1.83.89-3.99,1.34-6.51,1.34-3.9,0-7.07-1.23-9.52-3.69-2.45-2.46-3.67-5.54-3.67-9.23s1.22-6.94,3.66-9.44c2.44-2.5,5.5-3.75,9.19-3.75,3.91,0,7.09,1.25,9.54,3.75,2.45,2.5,3.68,5.81,3.68,9.92l-.02,1.19ZM214.94,137.21c-.41-1.39-1.22-2.51-2.44-3.38-1.21-.87-2.62-1.3-4.22-1.3-1.74,0-3.26.49-4.57,1.46-.82.61-1.59,1.68-2.29,3.22h13.51Z"/>
          <path class="cls-1" d="M232.4,127.9v2.74c1.13-1.13,2.34-1.97,3.65-2.53s2.71-.84,4.2-.84c3.24,0,6,1.22,8.26,3.67,2.27,2.45,3.4,5.59,3.4,9.43s-1.17,6.79-3.52,9.28c-2.34,2.49-5.12,3.73-8.33,3.73-1.43,0-2.76-.26-3.99-.77-1.23-.51-2.46-1.34-3.67-2.5v11.71h-6.19v-33.92h6.19ZM238.95,133.01c-1.96,0-3.59.67-4.88,2.01-1.29,1.34-1.94,3.09-1.94,5.25s.65,3.99,1.94,5.35c1.29,1.36,2.92,2.04,4.88,2.04s3.5-.69,4.81-2.08c1.3-1.38,1.95-3.15,1.95-5.3s-.64-3.88-1.92-5.24c-1.28-1.36-2.89-2.04-4.84-2.04Z"/>
          <path class="cls-1" d="M281.96,142.12h-20.02c.29,1.77,1.06,3.17,2.32,4.21,1.26,1.04,2.86,1.56,4.81,1.56,2.33,0,4.33-.81,6-2.44l5.25,2.47c-1.31,1.86-2.88,3.23-4.7,4.12-1.83.89-3.99,1.34-6.51,1.34-3.9,0-7.07-1.23-9.52-3.69-2.45-2.46-3.67-5.54-3.67-9.23s1.22-6.94,3.66-9.44c2.44-2.5,5.5-3.75,9.19-3.75,3.91,0,7.09,1.25,9.54,3.75,2.45,2.5,3.68,5.81,3.68,9.92l-.02,1.19ZM275.73,137.21c-.41-1.39-1.22-2.51-2.44-3.38-1.21-.87-2.62-1.3-4.22-1.3-1.74,0-3.26.49-4.57,1.46-.82.61-1.59,1.68-2.29,3.22h13.51Z"/>
          <path class="cls-1" d="M287,127.9h6.23v2.55c1.41-1.19,2.69-2.02,3.84-2.49,1.15-.47,2.32-.7,3.52-.7,2.46,0,4.55.86,6.27,2.58,1.44,1.46,2.17,3.62,2.17,6.48v16.41h-6.16v-10.88c0-2.96-.13-4.93-.4-5.9-.27-.97-.73-1.71-1.39-2.22-.66-.51-1.48-.76-2.45-.76-1.26,0-2.34.42-3.25,1.27s-1.53,2.01-1.88,3.5c-.18.78-.27,2.46-.27,5.04v9.96h-6.23v-24.84Z"/>
          <path class="cls-1" d="M333.39,118.31h6.23v34.42h-6.23v-2.63c-1.22,1.16-2.44,1.99-3.66,2.5-1.22.51-2.55.77-3.98.77-3.21,0-5.98-1.24-8.32-3.73-2.34-2.49-3.51-5.58-3.51-9.28s1.13-6.98,3.4-9.43c2.26-2.45,5.02-3.67,8.25-3.67,1.49,0,2.89.28,4.19.84s2.52,1.41,3.63,2.53v-12.33ZM326.83,133.01c-1.93,0-3.53.68-4.8,2.04-1.27,1.36-1.91,3.11-1.91,5.24s.65,3.91,1.94,5.3c1.3,1.39,2.89,2.08,4.79,2.08s3.58-.68,4.87-2.04c1.29-1.36,1.93-3.15,1.93-5.35s-.64-3.91-1.93-5.25c-1.29-1.34-2.92-2.01-4.89-2.01Z"/>
          <path class="cls-1" d="M370.8,142.12h-20.02c.29,1.77,1.06,3.17,2.32,4.21,1.26,1.04,2.86,1.56,4.81,1.56,2.33,0,4.33-.81,6-2.44l5.25,2.47c-1.31,1.86-2.88,3.23-4.7,4.12-1.83.89-3.99,1.34-6.51,1.34-3.9,0-7.07-1.23-9.52-3.69-2.45-2.46-3.67-5.54-3.67-9.23s1.22-6.94,3.66-9.44c2.44-2.5,5.5-3.75,9.19-3.75,3.91,0,7.09,1.25,9.54,3.75,2.45,2.5,3.67,5.81,3.67,9.92l-.02,1.19ZM364.57,137.21c-.41-1.39-1.22-2.51-2.44-3.38-1.21-.87-2.62-1.3-4.22-1.3-1.74,0-3.26.49-4.57,1.46-.82.61-1.59,1.68-2.29,3.22h13.51Z"/>
          <path class="cls-1" d="M375.84,127.9h6.23v2.55c1.41-1.19,2.69-2.02,3.84-2.49,1.15-.47,2.32-.7,3.52-.7,2.46,0,4.55.86,6.27,2.58,1.44,1.46,2.17,3.62,2.17,6.48v16.41h-6.16v-10.88c0-2.96-.13-4.93-.4-5.9-.27-.97-.73-1.71-1.39-2.22s-1.48-.76-2.45-.76c-1.26,0-2.34.42-3.25,1.27-.9.84-1.53,2.01-1.88,3.5-.18.78-.27,2.46-.27,5.04v9.96h-6.23v-24.84Z"/>
          <path class="cls-1" d="M404.65,118.74h6.23v9.15h3.7v5.36h-3.7v19.47h-6.23v-19.47h-3.2v-5.36h3.2v-9.15Z"/>
          <path class="cls-1" d="M449.3,123.72l-4.73,4.18c-1.66-2.31-3.35-3.47-5.08-3.47-.84,0-1.52.22-2.06.67s-.8.96-.8,1.52.19,1.1.57,1.6c.52.67,2.08,2.11,4.69,4.31,2.44,2.04,3.92,3.33,4.44,3.86,1.3,1.31,2.21,2.56,2.76,3.75.54,1.19.81,2.5.81,3.92,0,2.75-.95,5.03-2.86,6.82-1.9,1.8-4.39,2.69-7.45,2.69-2.39,0-4.48-.59-6.25-1.76-1.77-1.17-3.29-3.01-4.56-5.52l5.37-3.24c1.62,2.97,3.48,4.45,5.58,4.45,1.1,0,2.02-.32,2.77-.96.75-.64,1.12-1.38,1.12-2.21,0-.76-.28-1.52-.85-2.28-.56-.76-1.81-1.93-3.73-3.49-3.66-2.98-6.02-5.28-7.09-6.91-1.07-1.62-1.6-3.24-1.6-4.85,0-2.33.89-4.33,2.66-5.99,1.77-1.67,3.97-2.5,6.57-2.5,1.68,0,3.27.39,4.79,1.16,1.52.78,3.16,2.19,4.92,4.25Z"/>
          <path class="cls-1" d="M479.61,132.92l-5.19,2.85c-.97-1.02-1.94-1.73-2.89-2.12-.95-.4-2.07-.59-3.35-.59-2.33,0-4.22.7-5.66,2.08-1.44,1.39-2.16,3.17-2.16,5.34s.69,3.84,2.08,5.17c1.39,1.34,3.21,2.01,5.46,2.01,2.79,0,4.96-.95,6.51-2.85l4.91,3.36c-2.66,3.46-6.42,5.2-11.28,5.2-4.37,0-7.79-1.29-10.26-3.88-2.47-2.59-3.71-5.61-3.71-9.08,0-2.4.6-4.62,1.8-6.64,1.2-2.02,2.88-3.61,5.03-4.77,2.15-1.16,4.56-1.73,7.22-1.73,2.47,0,4.68.49,6.64,1.47,1.96.98,3.57,2.38,4.82,4.19Z"/>
          <path class="cls-1" d="M485.25,118.31h6.19v12.1c1.22-1.05,2.44-1.84,3.67-2.36,1.23-.52,2.48-.79,3.74-.79,2.47,0,4.54.85,6.23,2.56,1.45,1.48,2.17,3.64,2.17,6.51v16.41h-6.14v-10.89c0-2.88-.14-4.82-.41-5.84s-.74-1.78-1.4-2.28c-.66-.5-1.48-.75-2.45-.75-1.26,0-2.35.42-3.25,1.26s-1.53,1.98-1.88,3.42c-.18.75-.27,2.45-.27,5.11v9.97h-6.19v-34.42Z"/>
          <path class="cls-1" d="M524.95,127.26c2.34,0,4.55.59,6.61,1.76,2.06,1.17,3.67,2.76,4.83,4.77,1.16,2.01,1.74,4.18,1.74,6.51s-.58,4.54-1.75,6.57c-1.16,2.04-2.75,3.63-4.76,4.78-2.01,1.15-4.22,1.72-6.64,1.72-3.56,0-6.6-1.27-9.12-3.8-2.52-2.53-3.78-5.61-3.78-9.23,0-3.88,1.42-7.11,4.27-9.7,2.5-2.25,5.36-3.38,8.61-3.38ZM525.05,133.13c-1.94,0-3.55.67-4.84,2.02-1.29,1.35-1.93,3.07-1.93,5.17s.64,3.91,1.91,5.25c1.27,1.34,2.88,2.01,4.84,2.01s3.57-.68,4.87-2.03c1.3-1.35,1.94-3.1,1.94-5.23s-.64-3.86-1.91-5.19c-1.27-1.33-2.9-2-4.88-2Z"/>
          <path class="cls-1" d="M554.87,127.26c2.34,0,4.55.59,6.61,1.76,2.06,1.17,3.67,2.76,4.83,4.77,1.16,2.01,1.74,4.18,1.74,6.51s-.58,4.54-1.75,6.57c-1.16,2.04-2.75,3.63-4.76,4.78-2.01,1.15-4.22,1.72-6.64,1.72-3.56,0-6.6-1.27-9.12-3.8-2.52-2.53-3.78-5.61-3.78-9.23,0-3.88,1.42-7.11,4.27-9.7,2.5-2.25,5.36-3.38,8.61-3.38ZM554.97,133.13c-1.94,0-3.55.67-4.84,2.02s-1.93,3.07-1.93,5.17.64,3.91,1.91,5.25c1.27,1.34,2.88,2.01,4.84,2.01s3.57-.68,4.87-2.03c1.3-1.35,1.94-3.1,1.94-5.23s-.64-3.86-1.91-5.19c-1.27-1.33-2.9-2-4.88-2Z"/>
          <path class="cls-1" d="M572.45,118.31h6.23v34.42h-6.23v-34.42Z"/>
          <path class="cls-1" d="M599.54,131.37l-3.86,3.86c-1.57-1.55-2.99-2.33-4.27-2.33-.7,0-1.25.15-1.64.45-.4.3-.59.67-.59,1.11,0,.33.13.64.38.92.25.28.87.67,1.86,1.15l2.28,1.14c2.4,1.19,4.06,2.4,4.95,3.63.9,1.23,1.35,2.68,1.35,4.34,0,2.21-.81,4.05-2.43,5.52-1.62,1.48-3.79,2.21-6.52,2.21-3.62,0-6.51-1.42-8.67-4.25l3.83-4.18c.73.85,1.59,1.54,2.57,2.07.98.53,1.85.79,2.61.79.82,0,1.48-.2,1.99-.59.5-.4.75-.85.75-1.37,0-.96-.91-1.89-2.72-2.81l-2.1-1.05c-4.02-2.02-6.03-4.56-6.03-7.6,0-1.96.76-3.64,2.27-5.03,1.51-1.39,3.45-2.09,5.81-2.09,1.61,0,3.13.35,4.55,1.06,1.42.71,2.63,1.72,3.62,3.05Z"/>
          <path class="cls-1" d="M153.79,197.04l5.84,7.55h-7.57l-2.97-3.82c-2.45,1.34-5.19,2.02-8.21,2.02-5.04,0-9.23-1.74-12.57-5.22-3.34-3.48-5.01-7.62-5.01-12.43,0-3.21.78-6.16,2.33-8.85,1.55-2.69,3.69-4.82,6.41-6.4,2.72-1.58,5.64-2.37,8.76-2.37,4.77,0,8.86,1.72,12.28,5.16,3.42,3.44,5.13,7.63,5.13,12.58,0,4.55-1.48,8.48-4.43,11.78ZM149.79,191.87c1.35-2.01,2.03-4.23,2.03-6.66,0-3.18-1.07-5.88-3.22-8.1-2.15-2.22-4.74-3.33-7.79-3.33s-5.77,1.08-7.88,3.24c-2.12,2.16-3.18,4.91-3.18,8.24,0,3.71,1.33,6.65,4,8.81,2.09,1.69,4.46,2.53,7.11,2.53,1.52,0,2.96-.3,4.3-.89l-6.01-7.74h7.63l3.02,3.9Z"/>
          <path class="cls-1" d="M163.53,177.11h6.3v11.96c0,2.33.16,3.94.48,4.85.32.91.84,1.61,1.54,2.11.71.5,1.58.75,2.62.75s1.92-.25,2.64-.74c.72-.49,1.26-1.22,1.61-2.18.26-.72.39-2.24.39-4.59v-12.17h6.23v10.52c0,4.34-.34,7.3-1.03,8.9-.84,1.95-2.07,3.44-3.7,4.49-1.63,1.04-3.7,1.56-6.21,1.56-2.72,0-4.93-.61-6.61-1.83-1.68-1.22-2.86-2.91-3.55-5.09-.49-1.51-.73-4.25-.73-8.22v-10.34Z"/>
          <path class="cls-1" d="M216.49,191.33h-20.02c.29,1.77,1.06,3.17,2.32,4.21,1.26,1.04,2.86,1.56,4.81,1.56,2.33,0,4.33-.81,6-2.44l5.25,2.47c-1.31,1.86-2.88,3.23-4.7,4.12-1.83.89-3.99,1.34-6.51,1.34-3.9,0-7.07-1.23-9.52-3.69-2.45-2.46-3.67-5.54-3.67-9.23s1.22-6.94,3.66-9.44c2.44-2.5,5.5-3.75,9.19-3.75,3.91,0,7.09,1.25,9.54,3.75,2.45,2.5,3.68,5.81,3.68,9.92l-.02,1.19ZM210.26,186.42c-.41-1.39-1.22-2.51-2.44-3.38-1.21-.87-2.62-1.3-4.22-1.3-1.74,0-3.26.49-4.57,1.46-.82.61-1.59,1.68-2.29,3.22h13.51Z"/>
          <path class="cls-1" d="M246.42,191.33h-20.02c.29,1.77,1.06,3.17,2.32,4.21,1.26,1.04,2.86,1.56,4.81,1.56,2.33,0,4.33-.81,6-2.44l5.25,2.47c-1.31,1.86-2.88,3.23-4.7,4.12-1.83.89-3.99,1.34-6.51,1.34-3.9,0-7.07-1.23-9.52-3.69-2.45-2.46-3.67-5.54-3.67-9.23s1.22-6.94,3.66-9.44c2.44-2.5,5.5-3.75,9.19-3.75,3.91,0,7.09,1.25,9.54,3.75,2.45,2.5,3.68,5.81,3.68,9.92l-.02,1.19ZM240.19,186.42c-.41-1.39-1.22-2.51-2.44-3.38-1.21-.87-2.62-1.3-4.22-1.3-1.74,0-3.26.49-4.57,1.46-.82.61-1.59,1.68-2.29,3.22h13.51Z"/>
          <path class="cls-1" d="M251.46,177.11h6.23v2.55c1.41-1.19,2.69-2.02,3.84-2.49,1.15-.47,2.32-.7,3.52-.7,2.46,0,4.55.86,6.27,2.58,1.44,1.46,2.17,3.62,2.17,6.48v16.41h-6.16v-10.88c0-2.96-.13-4.93-.4-5.9-.27-.97-.73-1.71-1.39-2.22s-1.48-.76-2.45-.76c-1.26,0-2.34.42-3.25,1.27-.9.84-1.53,2.01-1.88,3.5-.18.78-.27,2.46-.27,5.04v9.96h-6.23v-24.84Z"/>
          <path class="cls-1" d="M294.72,180.58l-3.86,3.86c-1.57-1.55-2.99-2.33-4.27-2.33-.7,0-1.25.15-1.64.45-.4.3-.59.67-.59,1.11,0,.33.13.64.38.92.25.28.87.67,1.86,1.15l2.28,1.14c2.4,1.19,4.06,2.4,4.95,3.63.9,1.23,1.35,2.68,1.35,4.34,0,2.21-.81,4.05-2.43,5.52-1.62,1.48-3.79,2.21-6.52,2.21-3.62,0-6.51-1.42-8.67-4.25l3.83-4.18c.73.85,1.59,1.54,2.57,2.07.98.53,1.85.79,2.61.79.82,0,1.48-.2,1.99-.59.5-.4.75-.85.75-1.37,0-.96-.91-1.89-2.72-2.81l-2.1-1.05c-4.02-2.02-6.03-4.56-6.03-7.6,0-1.96.76-3.64,2.27-5.03,1.51-1.39,3.45-2.09,5.81-2.09,1.61,0,3.13.35,4.55,1.06,1.42.71,2.63,1.72,3.62,3.05Z"/>
          <path class="cls-1" d="M299.4,167.52h6.23v34.42h-6.23v-34.42Z"/>
          <path class="cls-1" d="M329.62,177.11h6.23v24.84h-6.23v-2.63c-1.22,1.16-2.44,1.99-3.66,2.5-1.22.51-2.55.77-3.98.77-3.21,0-5.98-1.24-8.32-3.73-2.34-2.49-3.51-5.58-3.51-9.28s1.13-6.98,3.4-9.43c2.26-2.45,5.02-3.67,8.25-3.67,1.49,0,2.89.28,4.19.85,1.31.56,2.52,1.41,3.63,2.53v-2.74ZM323.07,182.22c-1.93,0-3.53.68-4.8,2.04-1.27,1.36-1.91,3.11-1.91,5.24s.65,3.91,1.94,5.3c1.3,1.39,2.89,2.08,4.79,2.08s3.58-.68,4.87-2.04c1.29-1.36,1.93-3.15,1.93-5.35s-.64-3.91-1.93-5.25c-1.29-1.34-2.92-2.01-4.89-2.01Z"/>
          <path class="cls-1" d="M342.15,177.11h6.23v2.55c1.41-1.19,2.69-2.02,3.84-2.49,1.15-.47,2.32-.7,3.52-.7,2.46,0,4.55.86,6.27,2.58,1.44,1.46,2.17,3.62,2.17,6.48v16.41h-6.16v-10.88c0-2.96-.13-4.93-.4-5.9-.27-.97-.73-1.71-1.39-2.22s-1.48-.76-2.45-.76c-1.26,0-2.34.42-3.25,1.27-.9.84-1.53,2.01-1.88,3.5-.18.78-.27,2.46-.27,5.04v9.96h-6.23v-24.84Z"/>
          <path class="cls-1" d="M388.53,167.52h6.23v34.42h-6.23v-2.63c-1.22,1.16-2.44,1.99-3.66,2.5-1.22.51-2.55.77-3.98.77-3.21,0-5.98-1.24-8.32-3.73-2.34-2.49-3.51-5.58-3.51-9.28s1.13-6.98,3.4-9.43c2.26-2.45,5.02-3.67,8.25-3.67,1.49,0,2.89.28,4.19.85,1.31.56,2.52,1.41,3.63,2.53v-12.33ZM381.98,182.22c-1.93,0-3.53.68-4.8,2.04-1.27,1.36-1.91,3.11-1.91,5.24s.65,3.91,1.94,5.3c1.3,1.39,2.89,2.08,4.79,2.08s3.58-.68,4.87-2.04c1.29-1.36,1.93-3.15,1.93-5.35s-.64-3.91-1.93-5.25c-1.29-1.34-2.92-2.01-4.89-2.01Z"/>
        </g>
      </g>
      <path class="cls-1" d="M120.12,33.03v38.69c-2.2.25-5.14.72-8.31,1.58-3.12.84-5.82,1.89-7.79,2.76l-19.34-33.5c3.7-1.82,9.87-4.54,17.17-6.51,7.24-1.98,14.08-2.73,18.27-3.01M122.88,30.14c-3.3.11-12.17.64-21.75,3.25-9.69,2.62-17.43,6.51-20.28,8.04,1.28,2.22,20.84,36.09,22.05,38.19,1.73-.88,5.2-2.47,9.63-3.67,4.46-1.2,8.38-1.59,10.35-1.72V30.14h0Z"/>
      <path class="cls-1" d="M96.07,2.75c6.4,0,11.61,5.21,11.61,11.61s-5.21,11.61-11.61,11.61-11.61-5.21-11.61-11.61,5.21-11.61,11.61-11.61M96.07,0c-7.93,0-14.36,6.43-14.36,14.36s6.43,14.36,14.36,14.36,14.36-6.43,14.36-14.36S104,0,96.07,0h0Z"/>
    </g>
  </g>
</svg>