<?xml version="1.0" encoding="UTF-8"?>
<svg id="Layer_2" data-name="Layer 2" xmlns="http://www.w3.org/2000/svg" viewBox="0 0 600 149.09">
  <defs>
    <style>
      .cls-1 {
        fill: #252525;
      }
    </style>
  </defs>
  <g id="Layer_1-2" data-name="Layer 1">
    <g id="Layer_2-2" data-name="Layer 2">
      <g id="uuid-ae9cf8b6-eb75-4bcf-bd08-943bf882a586" data-name="Layer 1-2">
        <path class="cls-1" d="M80.93.9c-18.3-2.95-35.45,1.33-51.43,12.84C14.24,24.51,4.02,41.03,1.21,59.49c-3.53,18.19.71,37.02,11.7,51.94,5.46,7.97,13.9,13.4,23.42,15.06,3.57.65,7.23.74,10.83.25,1.93,2.13,3.15,3.42,3.15,3.42,1.39.13,2.79.13,4.18,0-1.14-1.28-2.36-2.67-3.62-4.12h0c-9.46-10.77-38.38-41.98-28.08-74.21C34.32,15.73,61.68,11.79,61.68,11.79c-16.89,8.29-29.33,23.54-34.07,41.75-7.73,28.33,12.76,55.13,26.72,71.37,3.01-1.16,5.86-2.71,8.47-4.6,7.73-5.63,10.63-11.6,12.3-20.84,1.65-9.05-.33-18.39-5.51-25.99l-1.33-1.93c-5.14-7.66-7.11-17.02-5.49-26.1,1.6-9.18,8.2-17.94,15.97-23.57,7.1-5.1,15.73-7.64,24.46-7.21,8.02.81-3.96-10.79-22.26-13.75"/>
        <path class="cls-1" d="M101.93,36.04c-2.47-2.05-4.27-11.25,5.8-10.07,24.42,7,24.63,32.87,24.63,32.87-3.07-18.5-25.93-19.14-30.43-22.8M133.86,38.16c-5.84-8.28-14.39-14.25-24.17-16.9-6.44-1.6-18.02.37-26.1,6.15-6.71,4.75-11.14,12.06-12.24,20.21-1.26,9.2,1.33,16.9,6.65,25.14,6.11,9.71,7.88,21.53,4.85,32.6-2.12,8.91-7.38,16.77-14.81,22.12-8.16,5.88-16.43,8.15-24.81,6.81-8.37-1.35,4.31,10.96,22.62,13.9,18.31,2.94,35.46-1.24,51.41-12.84,15.25-10.66,25.47-27.1,28.29-45.5,3.55-18.09-.66-36.84-11.6-51.68"/>
        <path class="cls-1" d="M576.13,58.1c0-2.9.12-6.94,6.11-6.94,2.38-.08,4.61,1.17,5.8,3.23,1.72,2.67,2.76,4.41,5.8,4.41,3.31.09,6.06-2.52,6.15-5.83,0-.14,0-.28,0-.41,0-6.83-6.71-8.68-13.88-8.68-8.89,0-17.23,1.93-21.17,4.06-2.88,1.49-3.35,3-3.35,6.59v48.34c0,1.93.58,2.44,2.53,2.44h9.49c1.93,0,2.3-.58,2.44-2.44l.08-44.76ZM515.42,67.77c.58-7.97,4.18-15.26,12.14-15.26,5.09,0,9.67,4.27,10.07,11.6l-22.22,3.65ZM548.04,70.2c2.25,0,4.08-1.83,4.08-4.08,0-.19-.01-.37-.04-.56,0-5.53-4.29-21.73-22.33-21.73-12.36,0-25.89,8.33-25.89,31.34,0,20.46,10.63,31.56,25.89,31.56,18.16,0,22.91-16.88,22.91-20.11.14-1.78-1.18-3.33-2.96-3.48-.02,0-.04,0-.06,0-1.49,0-2.07.68-3.87,3.35-3.13,4.57-8.23,7.4-13.77,7.64-5.55,0-13.98-3.13-15.95-19.08l31.98-4.83ZM497.27,51.7c1.93,0,1.93-.46,1.93-4.74,0-1.62-.93-1.62-2.2-1.62h-8.78v-13.53c0-1.37-.12-3.23-1.62-3.23-.46,0-.81.12-2.07.93l-8.29,5.3c-1.5.75-2.34,2.38-2.09,4.04v6.48h-5.67c-1.49,0-1.93.46-1.93,1.93,0,4.04,0,4.51,2.07,4.51h5.55v38.01c0,3.71.12,7.87,3.36,11.79,2.3,2.78,6.36,5.1,12.61,5.1,4.62,0,11.1-1.93,11.1-5.1s-2.28-2.96-5.1-2.96c-7.73-.35-7.87-7.73-7.87-11.1v-35.77l9.01-.04ZM447.21,91.16c0,2.55-.12,7.73-7.17,7.73-6.13,0-9.67-4.16-9.67-9.94,0-8.68,7.73-11.12,16.76-13.88l.08,16.09ZM460.86,64.09c0-8.57.12-20.24-18.5-20.24-14,0-23.01,6.94-23.01,14-.09,3.3,2.51,6.04,5.81,6.13.14,0,.29,0,.43,0,4.39,0,5.43-2.9,6.48-5.8.91-2.09,2.53-6.36,8.08-6.36,6.94,0,7.06,6.25,7.06,10.52v5.9c-13.19,3.48-20.69,5.43-25.77,10.4-3.31,3.02-5.16,7.31-5.1,11.79,0,16.3,18.74,16.3,22.43,16.3,2.09,0,11,0,17.02-3.46,4.51-2.42,4.97-5.2,5.09-10.29v-28.89ZM383.52,103.05c.58,1.93,1.04,2.2,2.78,2.2h7.39c1.62,0,1.93-.35,2.44-2.2l16.76-54.14c.22-.68.37-1.38.46-2.09,0-1.39-1.28-1.39-2.3-1.39h-6.84c-1.93,0-2.09.58-2.55,2.32l-10.63,38.67-11.95-38.96c-.58-1.62-.7-2.09-2.09-2.09-1.29-.04-2.58,0-3.87.12-.93.23-1.16,1.16-1.51,2.2l-11.6,38.67-10.63-38.67c-.58-2.2-1.39-2.32-3.35-2.32h-9.67c-.79,0-2.3,0-2.3,1.62.05.71.21,1.41.46,2.07l17,54.14c.56,1.74.93,2.09,2.65,2.09h7.29c1.74,0,1.93-.23,2.55-1.93l9.82-31.21,9.69,30.9Z"/>
        <path class="cls-1" d="M313.54,91.51c-2.41,2.57-5.72,4.11-9.24,4.27-8.22,0-12.49-9.67-12.49-19.99,0-11.33,4.51-23.36,14.23-23.36,7.39,0,7.5,6.13,7.5,10.05v29.02ZM313.54,130.01c0,2.2.7,2.32,2.67,2.32h8.89c1.93,0,2.67-.12,2.67-2.32V60.07c0-4.97-.12-8.1-4.06-11.21-4.97-3.38-10.87-5.12-16.88-4.99-22.2,0-29.47,20.36-29.47,34.69,0,15.04,7.39,28.21,21.15,28.21,5.67-.17,11.05-2.53,15.02-6.57v29.82ZM233.53,67.8c.58-7.99,4.16-15.26,12.14-15.26,5.09,0,9.67,4.27,10.05,11.6l-22.2,3.65ZM266.15,70.24c2.25,0,4.08-1.83,4.08-4.08,0-.19-.01-.37-.04-.56,0-5.53-4.27-21.73-22.31-21.73-12.37,0-25.91,8.33-25.91,31.34,0,20.46,10.63,31.56,25.91,31.56,18.16,0,22.89-16.88,22.89-20.11.15-1.79-1.17-3.36-2.96-3.51-.02,0-.04,0-.06,0-1.51,0-2.09.7-3.87,3.36-3.13,4.57-8.23,7.4-13.77,7.64-5.55,0-13.98-3.13-15.95-19.08l31.98-4.81ZM194.61,68.15c-4.04-1.74-9.15-3.87-9.15-9.67-.05-3.78,2.97-6.89,6.75-6.94.06,0,.13,0,.19,0,4.74,0,6.71,3.46,7.87,5.67,1.16,2.2,2.84,4.66,6.44,4.66,3,.07,5.49-2.31,5.55-5.31,0-.12,0-.24,0-.35,0-4.62-5.2-12.37-19.2-12.37s-20.11,8.8-20.11,17.02c0,10.73,9.24,15.26,12.72,16.88,2.88,1.37,9.94,4.74,11.6,5.8,2.28,1.76,3.63,4.47,3.65,7.35.12,3.84-2.89,7.06-6.74,7.18-.18,0-.37,0-.55,0-4.62,0-6.71-3-9.47-6.94-1.62-2.18-3.25-4.51-6.48-4.51-3.31.1-5.91,2.87-5.8,6.18,0,.02,0,.04,0,.07,0,4.62,5.55,13.98,21.5,13.98,17.23,0,20.8-11.6,20.8-18.14,0-11.1-8.31-15.28-13.63-17.81l-5.96-2.73Z"/>
        <path class="cls-1" d="M576.62,141.14v-2.8h-10.29v-6.34h8.78v-2.84h-8.78v-6.17h10.29v-2.88h-13.53v21.04h13.53ZM559.22,122.93v-2.82h-13.53v21.04h3.19v-8.86h8.76v-2.88h-8.76v-6.42l10.34-.06ZM540.21,120.05h-3.19v21.09h3.19v-21.09ZM533.42,141.14v-2.8h-10.15v-18.23h-3.21v21.04h13.36ZM505.06,126.26c.05,1.77-1.34,3.25-3.11,3.31-.16,0-.31,0-.47-.02h-4.76v-6.55h4.76c1.77-.19,3.37,1.09,3.56,2.86.02.15.02.31.02.47M508.92,141.2l-4.85-9.32c2.56-.63,4.32-2.97,4.22-5.61.08-3.34-2.57-6.11-5.91-6.19-.21,0-.43,0-.64.02h-8.2v21.04h3.19v-8.82h4l4.45,8.87h3.75ZM485.61,130.66c0,4.23-.21,5.41-1.24,6.55-1.75,1.72-4.56,1.72-6.3,0-1.02-1.14-1.24-2.32-1.24-6.55s.21-5.43,1.24-6.55c1.72-1.74,4.52-1.76,6.26-.04.01.01.03.03.04.04,1.02,1.12,1.24,2.32,1.24,6.55M488.8,130.66c0-4.06,0-6.4-1.93-8.49-1.48-1.53-3.54-2.36-5.67-2.3-2.06-.01-4.03.82-5.45,2.3-2.09,2.09-2.05,4.43-2.05,8.49s0,6.4,2.05,8.47c1.45,1.49,3.45,2.3,5.53,2.26,2.05.04,4.03-.75,5.49-2.18,2.09-2.07,1.93-4.41,1.93-8.47M471.05,123.01v-2.9h-13.53v21.04h3.21v-8.86h8.78v-2.88h-8.78v-6.42l10.33.02ZM442.57,126.33c.01,1.77-1.42,3.22-3.19,3.23-.12,0-.25,0-.37-.02h-4.74v-6.55h4.74c1.77-.2,3.37,1.07,3.58,2.84.02.16.03.32.02.49M446.47,141.2l-4.85-9.32c2.55-.65,4.29-2.98,4.2-5.61.08-3.34-2.57-6.11-5.91-6.19-.21,0-.43,0-.64.02h-8.18v21.04h3.21v-8.82h4l4.45,8.87h3.73ZM426.69,141.2v-2.86h-10.27v-6.34h8.76v-2.84h-8.76v-6.17h10.27v-2.88h-13.53v21.04l13.53.06ZM409.56,122.99v-2.88h-14.81v2.88h5.8v18.16h3.21v-18.16h5.8ZM389.64,134.24h-6.5l3.31-9.36,3.19,9.36ZM395.44,141.2l-7.73-21.09h-2.57l-7.73,21.09h3.4l1.45-4.23h8.33l1.45,4.23h3.4ZM377.25,120.11h-3.4l-3.67,15.1-4.25-15.1h-2.57l-4.23,15.1-3.67-15.1h-3.44l5.57,21.04h2.78l4.27-14.77,4.29,14.77h2.78l5.55-21.04Z"/>
      </g>
    </g>
  </g>
</svg>